G04 #@! TF.GenerationSoftware,KiCad,Pcbnew,7.0.6*
G04 #@! TF.CreationDate,2023-08-21T22:19:32+09:00*
G04 #@! TF.ProjectId,SmaCon,536d6143-6f6e-42e6-9b69-6361645f7063,V1.2*
G04 #@! TF.SameCoordinates,Original*
G04 #@! TF.FileFunction,Paste,Top*
G04 #@! TF.FilePolarity,Positive*
%FSLAX46Y46*%
G04 Gerber Fmt 4.6, Leading zero omitted, Abs format (unit mm)*
G04 Created by KiCad (PCBNEW 7.0.6) date 2023-08-21 22:19:32*
%MOMM*%
%LPD*%
G01*
G04 APERTURE LIST*
G04 Aperture macros list*
%AMRoundRect*
0 Rectangle with rounded corners*
0 $1 Rounding radius*
0 $2 $3 $4 $5 $6 $7 $8 $9 X,Y pos of 4 corners*
0 Add a 4 corners polygon primitive as box body*
4,1,4,$2,$3,$4,$5,$6,$7,$8,$9,$2,$3,0*
0 Add four circle primitives for the rounded corners*
1,1,$1+$1,$2,$3*
1,1,$1+$1,$4,$5*
1,1,$1+$1,$6,$7*
1,1,$1+$1,$8,$9*
0 Add four rect primitives between the rounded corners*
20,1,$1+$1,$2,$3,$4,$5,0*
20,1,$1+$1,$4,$5,$6,$7,0*
20,1,$1+$1,$6,$7,$8,$9,0*
20,1,$1+$1,$8,$9,$2,$3,0*%
%AMFreePoly0*
4,1,13,0.900000,0.500000,2.600000,0.500000,2.600000,-0.500000,0.900000,-0.500000,0.400000,-1.000000,-0.400000,-1.000000,-0.400000,-0.500000,-2.600000,-0.500000,-2.600000,0.500000,-0.400000,0.500000,-0.400000,1.000000,0.400000,1.000000,0.900000,0.500000,0.900000,0.500000,$1*%
G04 Aperture macros list end*
%ADD10RoundRect,0.150000X-0.150000X0.150000X-0.150000X-0.150000X0.150000X-0.150000X0.150000X0.150000X0*%
%ADD11RoundRect,0.200000X-0.200000X0.250000X-0.200000X-0.250000X0.200000X-0.250000X0.200000X0.250000X0*%
%ADD12R,0.800000X1.100000*%
%ADD13RoundRect,0.250000X0.285000X0.285000X-0.285000X0.285000X-0.285000X-0.285000X0.285000X-0.285000X0*%
%ADD14R,0.800000X0.150000*%
%ADD15R,0.150000X0.800000*%
%ADD16RoundRect,0.250000X0.350000X-0.250000X0.350000X0.250000X-0.350000X0.250000X-0.350000X-0.250000X0*%
%ADD17RoundRect,0.150000X-0.150000X-0.150000X0.150000X-0.150000X0.150000X0.150000X-0.150000X0.150000X0*%
%ADD18RoundRect,0.150000X0.150000X-0.150000X0.150000X0.150000X-0.150000X0.150000X-0.150000X-0.150000X0*%
%ADD19RoundRect,0.625000X-0.875000X0.625000X-0.875000X-0.625000X0.875000X-0.625000X0.875000X0.625000X0*%
%ADD20RoundRect,0.200000X0.200000X-0.250000X0.200000X0.250000X-0.200000X0.250000X-0.200000X-0.250000X0*%
%ADD21RoundRect,0.150000X0.150000X0.150000X-0.150000X0.150000X-0.150000X-0.150000X0.150000X-0.150000X0*%
%ADD22RoundRect,0.500000X0.500000X-0.500000X0.500000X0.500000X-0.500000X0.500000X-0.500000X-0.500000X0*%
%ADD23R,1.400000X0.600000*%
%ADD24R,2.500000X1.000000*%
%ADD25R,0.700000X1.500000*%
%ADD26FreePoly0,90.000000*%
%ADD27R,1.900000X1.800000*%
%ADD28R,1.600000X1.100000*%
%ADD29R,0.500000X1.200000*%
%ADD30R,0.450000X0.940000*%
%ADD31R,0.150000X1.140000*%
%ADD32RoundRect,0.075000X-0.650000X-0.075000X0.650000X-0.075000X0.650000X0.075000X-0.650000X0.075000X0*%
%ADD33R,2.000000X1.400000*%
%ADD34R,3.000000X1.400000*%
%ADD35RoundRect,0.250000X-0.650000X0.325000X-0.650000X-0.325000X0.650000X-0.325000X0.650000X0.325000X0*%
%ADD36R,0.300000X1.750000*%
%ADD37R,0.200000X0.400000*%
%ADD38R,0.400000X0.200000*%
%ADD39RoundRect,0.150000X0.675000X0.150000X-0.675000X0.150000X-0.675000X-0.150000X0.675000X-0.150000X0*%
G04 APERTURE END LIST*
D10*
X-15500000Y-54500000D03*
X-15500000Y-55500000D03*
D11*
X19400000Y-52000000D03*
X19400000Y-53700000D03*
D12*
X1250000Y-18500000D03*
X3150000Y-18500000D03*
X2200000Y-16300000D03*
D13*
X1980000Y-31980000D03*
X1980000Y-30660000D03*
X1980000Y-29340000D03*
X1980000Y-28020000D03*
X660000Y-31980000D03*
X660000Y-30660000D03*
X660000Y-29340000D03*
X660000Y-28020000D03*
X-660000Y-31980000D03*
X-660000Y-30660000D03*
X-660000Y-29340000D03*
X-660000Y-28020000D03*
X-1980000Y-31980000D03*
X-1980000Y-30660000D03*
X-1980000Y-29340000D03*
X-1980000Y-28020000D03*
D14*
X3450000Y-32750000D03*
X3450000Y-32250000D03*
X3450000Y-31750000D03*
X3450000Y-31250000D03*
X3450000Y-30750000D03*
X3450000Y-30250000D03*
X3450000Y-29750000D03*
X3450000Y-29250000D03*
X3450000Y-28750000D03*
X3450000Y-28250000D03*
X3450000Y-27750000D03*
X3450000Y-27250000D03*
D15*
X2750000Y-26550000D03*
X2250000Y-26550000D03*
X1750000Y-26550000D03*
X1250000Y-26550000D03*
X750000Y-26550000D03*
X250000Y-26550000D03*
X-250000Y-26550000D03*
X-750000Y-26550000D03*
X-1250000Y-26550000D03*
X-1750000Y-26550000D03*
X-2250000Y-26550000D03*
X-2750000Y-26550000D03*
D14*
X-3450000Y-27250000D03*
X-3450000Y-27750000D03*
X-3450000Y-28250000D03*
X-3450000Y-28750000D03*
X-3450000Y-29250000D03*
X-3450000Y-29750000D03*
X-3450000Y-30250000D03*
X-3450000Y-30750000D03*
X-3450000Y-31250000D03*
X-3450000Y-31750000D03*
X-3450000Y-32250000D03*
X-3450000Y-32750000D03*
D15*
X-2750000Y-33450000D03*
X-2250000Y-33450000D03*
X-1750000Y-33450000D03*
X-1250000Y-33450000D03*
X-750000Y-33450000D03*
X-250000Y-33450000D03*
X250000Y-33450000D03*
X750000Y-33450000D03*
X1250000Y-33450000D03*
X1750000Y-33450000D03*
X2250000Y-33450000D03*
X2750000Y-33450000D03*
D16*
X-17500000Y-30300000D03*
X-17500000Y-28300000D03*
D17*
X16000000Y-42000000D03*
X17000000Y-42000000D03*
D18*
X13000000Y-64000000D03*
X13000000Y-63000000D03*
D19*
X-12000000Y-54250000D03*
X-12000000Y-60750000D03*
D11*
X-12000000Y-44350000D03*
X-12000000Y-46050000D03*
D20*
X-20000000Y-59850000D03*
X-20000000Y-58150000D03*
D17*
X14500000Y-51700000D03*
X15500000Y-51700000D03*
D18*
X-15500000Y-60500000D03*
X-15500000Y-59500000D03*
X-20000000Y-63700000D03*
X-20000000Y-62700000D03*
D20*
X-10300000Y-30350000D03*
X-10300000Y-28650000D03*
X1100000Y-45850000D03*
X1100000Y-44150000D03*
D21*
X10900000Y-42000000D03*
X9900000Y-42000000D03*
D22*
X-5000000Y-60900000D03*
X-2000000Y-60900000D03*
X2000000Y-60900000D03*
X5000000Y-60900000D03*
X-5000000Y-54100000D03*
X-2000000Y-54100000D03*
X2000000Y-54100000D03*
X5000000Y-54100000D03*
D23*
X6000000Y-56800000D03*
D24*
X100000Y-56600000D03*
X-100000Y-58400000D03*
D23*
X-6000000Y-58200000D03*
D18*
X1250000Y-21050000D03*
X1250000Y-20050000D03*
X-2700000Y-19350000D03*
X-2700000Y-18350000D03*
D17*
X2500000Y-11000000D03*
X3500000Y-11000000D03*
D16*
X-800000Y-20700000D03*
X-800000Y-18700000D03*
D11*
X10000000Y-54150000D03*
X10000000Y-55850000D03*
D25*
X14500000Y-57850000D03*
D26*
X16000000Y-56000000D03*
D25*
X17500000Y-57850000D03*
X17500000Y-54150000D03*
X14500000Y-54150000D03*
D17*
X13000000Y-42000000D03*
X14000000Y-42000000D03*
D27*
X-2500000Y-7550000D03*
X0Y-7550000D03*
X2500000Y-7550000D03*
D28*
X5300000Y-2900000D03*
X-5300000Y-2900000D03*
D29*
X14050000Y-46150000D03*
X15000000Y-46150000D03*
X15950000Y-46150000D03*
X15950000Y-43850000D03*
X14050000Y-43850000D03*
D17*
X4350000Y-39450000D03*
X5350000Y-39450000D03*
X4350000Y-38200000D03*
X5350000Y-38200000D03*
D16*
X-20500000Y-30300000D03*
X-20500000Y-28300000D03*
X-12300000Y-30300000D03*
X-12300000Y-28300000D03*
D30*
X-3200000Y-92475000D03*
X-2400000Y-92475000D03*
D31*
X-1250000Y-92575000D03*
X-250000Y-92575000D03*
X250000Y-92575000D03*
X1250000Y-92575000D03*
D30*
X2400000Y-92475000D03*
X3200000Y-92475000D03*
X3200000Y-92475000D03*
X2400000Y-92475000D03*
D31*
X1750000Y-92575000D03*
X750000Y-92575000D03*
X-750000Y-92575000D03*
X-1750000Y-92575000D03*
D30*
X-2400000Y-92475000D03*
X-3200000Y-92475000D03*
D10*
X-15500000Y-57000000D03*
X-15500000Y-58000000D03*
X3150000Y-20050000D03*
X3150000Y-21050000D03*
D32*
X4850000Y-44025000D03*
X4850000Y-44675000D03*
X4850000Y-45325000D03*
X4850000Y-45975000D03*
X9250000Y-45975000D03*
X9250000Y-45325000D03*
X9250000Y-44675000D03*
X9250000Y-44025000D03*
D10*
X-8750000Y-28350000D03*
X-8750000Y-29350000D03*
D33*
X-20100000Y-5500000D03*
X-20100000Y-11000000D03*
D34*
X-13400000Y-2200000D03*
D33*
X-20100000Y-2200000D03*
X-12900000Y-9200000D03*
D34*
X-13400000Y-11500000D03*
D16*
X-14500000Y-30300000D03*
X-14500000Y-28300000D03*
D17*
X-500000Y-11000000D03*
X500000Y-11000000D03*
D35*
X10000000Y-60525000D03*
X10000000Y-63475000D03*
D18*
X17000000Y-64000000D03*
X17000000Y-63000000D03*
X-5200000Y-19400000D03*
X-5200000Y-18400000D03*
D17*
X-3500000Y-11000000D03*
X-2500000Y-11000000D03*
D18*
X-20000000Y-55500000D03*
X-20000000Y-54500000D03*
D36*
X-14450000Y-41500000D03*
X-15100000Y-41500000D03*
X-15750000Y-41500000D03*
X-16400000Y-41500000D03*
X-17050000Y-41500000D03*
X-17700000Y-41500000D03*
X-18350000Y-41500000D03*
X-19000000Y-41500000D03*
X-19650000Y-41500000D03*
X-20300000Y-41500000D03*
X-20950000Y-41500000D03*
X-21600000Y-41500000D03*
X-21600000Y-48700000D03*
X-20950000Y-48700000D03*
X-20300000Y-48700000D03*
X-19650000Y-48700000D03*
X-19000000Y-48700000D03*
X-18350000Y-48700000D03*
X-17700000Y-48700000D03*
X-17050000Y-48700000D03*
X-16400000Y-48700000D03*
X-15750000Y-48700000D03*
X-15100000Y-48700000D03*
X-14450000Y-48700000D03*
D21*
X17500000Y-51700000D03*
X16500000Y-51700000D03*
D17*
X8500000Y-28750000D03*
X9500000Y-28750000D03*
D37*
X15275000Y-64150000D03*
X14725000Y-64150000D03*
D38*
X14500000Y-63500000D03*
D37*
X14725000Y-62850000D03*
X15275000Y-62850000D03*
D38*
X15500000Y-63500000D03*
D39*
X-1800000Y-46905000D03*
X-1800000Y-45635000D03*
X-1800000Y-44365000D03*
X-1800000Y-43095000D03*
X-7050000Y-43095000D03*
X-7050000Y-44365000D03*
X-7050000Y-45635000D03*
X-7050000Y-46905000D03*
M02*
