G04 #@! TF.GenerationSoftware,KiCad,Pcbnew,7.0.6*
G04 #@! TF.CreationDate,2023-08-05T21:37:01+09:00*
G04 #@! TF.ProjectId,SmaCon,536d6143-6f6e-42e6-9b69-6361645f7063,V1.0*
G04 #@! TF.SameCoordinates,Original*
G04 #@! TF.FileFunction,Soldermask,Top*
G04 #@! TF.FilePolarity,Negative*
%FSLAX46Y46*%
G04 Gerber Fmt 4.6, Leading zero omitted, Abs format (unit mm)*
G04 Created by KiCad (PCBNEW 7.0.6) date 2023-08-05 21:37:01*
%MOMM*%
%LPD*%
G01*
G04 APERTURE LIST*
G04 Aperture macros list*
%AMRoundRect*
0 Rectangle with rounded corners*
0 $1 Rounding radius*
0 $2 $3 $4 $5 $6 $7 $8 $9 X,Y pos of 4 corners*
0 Add a 4 corners polygon primitive as box body*
4,1,4,$2,$3,$4,$5,$6,$7,$8,$9,$2,$3,0*
0 Add four circle primitives for the rounded corners*
1,1,$1+$1,$2,$3*
1,1,$1+$1,$4,$5*
1,1,$1+$1,$6,$7*
1,1,$1+$1,$8,$9*
0 Add four rect primitives between the rounded corners*
20,1,$1+$1,$2,$3,$4,$5,0*
20,1,$1+$1,$4,$5,$6,$7,0*
20,1,$1+$1,$6,$7,$8,$9,0*
20,1,$1+$1,$8,$9,$2,$3,0*%
%AMFreePoly0*
4,1,13,0.900000,0.500000,2.600000,0.500000,2.600000,-0.500000,0.900000,-0.500000,0.400000,-1.000000,-0.400000,-1.000000,-0.400000,-0.500000,-2.600000,-0.500000,-2.600000,0.500000,-0.400000,0.500000,-0.400000,1.000000,0.400000,1.000000,0.900000,0.500000,0.900000,0.500000,$1*%
G04 Aperture macros list end*
%ADD10R,0.800000X1.100000*%
%ADD11RoundRect,0.150000X-0.150000X0.150000X-0.150000X-0.150000X0.150000X-0.150000X0.150000X0.150000X0*%
%ADD12RoundRect,0.200000X-0.200000X0.250000X-0.200000X-0.250000X0.200000X-0.250000X0.200000X0.250000X0*%
%ADD13R,0.800000X0.150000*%
%ADD14R,0.150000X0.800000*%
%ADD15R,5.300000X5.300000*%
%ADD16RoundRect,0.250000X0.350000X-0.250000X0.350000X0.250000X-0.350000X0.250000X-0.350000X-0.250000X0*%
%ADD17C,1.400000*%
%ADD18RoundRect,0.150000X-0.150000X-0.150000X0.150000X-0.150000X0.150000X0.150000X-0.150000X0.150000X0*%
%ADD19RoundRect,0.150000X0.150000X-0.150000X0.150000X0.150000X-0.150000X0.150000X-0.150000X-0.150000X0*%
%ADD20O,18.000000X1.000000*%
%ADD21RoundRect,0.625000X-0.875000X0.625000X-0.875000X-0.625000X0.875000X-0.625000X0.875000X0.625000X0*%
%ADD22O,11.000000X1.800000*%
%ADD23RoundRect,0.200000X0.200000X-0.250000X0.200000X0.250000X-0.200000X0.250000X-0.200000X-0.250000X0*%
%ADD24RoundRect,0.150000X0.150000X0.150000X-0.150000X0.150000X-0.150000X-0.150000X0.150000X-0.150000X0*%
%ADD25RoundRect,0.500000X0.500000X-0.500000X0.500000X0.500000X-0.500000X0.500000X-0.500000X-0.500000X0*%
%ADD26R,1.400000X0.600000*%
%ADD27R,2.500000X1.000000*%
%ADD28O,1.000000X1.600000*%
%ADD29R,0.700000X1.500000*%
%ADD30FreePoly0,90.000000*%
%ADD31C,1.100000*%
%ADD32R,1.900000X1.800000*%
%ADD33R,1.600000X1.100000*%
%ADD34R,0.500000X1.200000*%
%ADD35R,1.700000X1.700000*%
%ADD36O,1.700000X1.700000*%
%ADD37O,1.000000X1.800000*%
%ADD38C,0.650000*%
%ADD39O,1.000000X2.100000*%
%ADD40R,0.450000X0.940000*%
%ADD41R,0.150000X1.140000*%
%ADD42C,1.200000*%
%ADD43RoundRect,0.075000X-0.650000X-0.075000X0.650000X-0.075000X0.650000X0.075000X-0.650000X0.075000X0*%
%ADD44R,2.000000X1.400000*%
%ADD45R,3.000000X1.400000*%
%ADD46RoundRect,0.250000X-0.650000X0.325000X-0.650000X-0.325000X0.650000X-0.325000X0.650000X0.325000X0*%
%ADD47R,0.300000X1.750000*%
%ADD48R,1.000000X1.000000*%
%ADD49O,1.000000X1.000000*%
%ADD50R,0.200000X0.400000*%
%ADD51R,0.400000X0.200000*%
%ADD52RoundRect,0.150000X0.675000X0.150000X-0.675000X0.150000X-0.675000X-0.150000X0.675000X-0.150000X0*%
%ADD53C,1.500000*%
%ADD54C,1.700000*%
G04 APERTURE END LIST*
D10*
X1250000Y-18500000D03*
X3150000Y-18500000D03*
X2200000Y-16300000D03*
D11*
X-15500000Y-54500000D03*
X-15500000Y-55500000D03*
D12*
X19400000Y-52000000D03*
X19400000Y-53700000D03*
D13*
X3450000Y-32750000D03*
X3450000Y-32250000D03*
X3450000Y-31750000D03*
X3450000Y-31250000D03*
X3450000Y-30750000D03*
X3450000Y-30250000D03*
X3450000Y-29750000D03*
X3450000Y-29250000D03*
X3450000Y-28750000D03*
X3450000Y-28250000D03*
X3450000Y-27750000D03*
X3450000Y-27250000D03*
D14*
X2750000Y-26550000D03*
X2250000Y-26550000D03*
X1750000Y-26550000D03*
X1250000Y-26550000D03*
X750000Y-26550000D03*
X250000Y-26550000D03*
X-250000Y-26550000D03*
X-750000Y-26550000D03*
X-1250000Y-26550000D03*
X-1750000Y-26550000D03*
X-2250000Y-26550000D03*
X-2750000Y-26550000D03*
D13*
X-3450000Y-27250000D03*
X-3450000Y-27750000D03*
X-3450000Y-28250000D03*
X-3450000Y-28750000D03*
X-3450000Y-29250000D03*
X-3450000Y-29750000D03*
X-3450000Y-30250000D03*
X-3450000Y-30750000D03*
X-3450000Y-31250000D03*
X-3450000Y-31750000D03*
X-3450000Y-32250000D03*
X-3450000Y-32750000D03*
D14*
X-2750000Y-33450000D03*
X-2250000Y-33450000D03*
X-1750000Y-33450000D03*
X-1250000Y-33450000D03*
X-750000Y-33450000D03*
X-250000Y-33450000D03*
X250000Y-33450000D03*
X750000Y-33450000D03*
X1250000Y-33450000D03*
X1750000Y-33450000D03*
X2250000Y-33450000D03*
D15*
X0Y-30000000D03*
D14*
X2750000Y-33450000D03*
D16*
X-17500000Y-30300000D03*
X-17500000Y-28300000D03*
D17*
X13250000Y-76700000D03*
X13250000Y-83300000D03*
X8750000Y-76700000D03*
X8750000Y-83300000D03*
D18*
X16000000Y-42000000D03*
X17000000Y-42000000D03*
D19*
X13000000Y-64000000D03*
X13000000Y-63000000D03*
D20*
X0Y-68500000D03*
D21*
X-12000000Y-54250000D03*
X-12000000Y-60750000D03*
D17*
X22750000Y-83300000D03*
X22750000Y-76700000D03*
X27250000Y-83300000D03*
X27250000Y-76700000D03*
D12*
X-12000000Y-44350000D03*
X-12000000Y-46050000D03*
D22*
X-17000000Y-68100000D03*
D23*
X-20000000Y-59850000D03*
X-20000000Y-58150000D03*
D18*
X14500000Y-51700000D03*
X15500000Y-51700000D03*
D19*
X-15500000Y-60500000D03*
X-15500000Y-59500000D03*
D17*
X14700000Y-84750000D03*
X21300000Y-84750000D03*
X14700000Y-89250000D03*
X21300000Y-89250000D03*
D19*
X-20000000Y-63700000D03*
X-20000000Y-62700000D03*
D23*
X-10300000Y-30350000D03*
X-10300000Y-28650000D03*
X1100000Y-45850000D03*
X1100000Y-44150000D03*
D24*
X10900000Y-42000000D03*
X9900000Y-42000000D03*
D25*
X-5000000Y-60900000D03*
X-2000000Y-60900000D03*
X2000000Y-60900000D03*
X5000000Y-60900000D03*
X-5000000Y-54100000D03*
X-2000000Y-54100000D03*
X2000000Y-54100000D03*
X5000000Y-54100000D03*
D26*
X6000000Y-56800000D03*
D27*
X100000Y-56600000D03*
X-100000Y-58400000D03*
D26*
X-6000000Y-58200000D03*
D28*
X-1000000Y-71000000D03*
X1000000Y-71000000D03*
D19*
X1250000Y-21050000D03*
X1250000Y-20050000D03*
X-2700000Y-19350000D03*
X-2700000Y-18350000D03*
D18*
X2500000Y-11000000D03*
X3500000Y-11000000D03*
D16*
X-800000Y-20700000D03*
X-800000Y-18700000D03*
D12*
X10000000Y-54150000D03*
X10000000Y-55850000D03*
D29*
X14500000Y-57850000D03*
D30*
X16000000Y-56000000D03*
D29*
X17500000Y-57850000D03*
X17500000Y-54150000D03*
X14500000Y-54150000D03*
D18*
X13000000Y-42000000D03*
X14000000Y-42000000D03*
D31*
X-2500000Y-3800000D03*
X2500000Y-3800000D03*
D32*
X-2500000Y-7550000D03*
X0Y-7550000D03*
X2500000Y-7550000D03*
D33*
X5300000Y-2900000D03*
X-5300000Y-2900000D03*
D34*
X14050000Y-46150000D03*
X15000000Y-46150000D03*
X15950000Y-46150000D03*
X15950000Y-43850000D03*
X14050000Y-43850000D03*
D18*
X4350000Y-39450000D03*
X5350000Y-39450000D03*
X4350000Y-38200000D03*
X5350000Y-38200000D03*
D16*
X-20500000Y-30300000D03*
X-20500000Y-28300000D03*
D35*
X13190000Y-12155000D03*
D36*
X15730000Y-12155000D03*
X18270000Y-12155000D03*
X20810000Y-12155000D03*
D16*
X-12300000Y-30300000D03*
X-12300000Y-28300000D03*
D37*
X-4320000Y-97325000D03*
D38*
X-2890000Y-93645000D03*
X2890000Y-93645000D03*
D39*
X4320000Y-93145000D03*
D37*
X4320000Y-97325000D03*
D40*
X-3200000Y-92475000D03*
X-2400000Y-92475000D03*
D41*
X-1250000Y-92575000D03*
X-250000Y-92575000D03*
X250000Y-92575000D03*
X1250000Y-92575000D03*
D40*
X2400000Y-92475000D03*
X3200000Y-92475000D03*
X3200000Y-92475000D03*
X2400000Y-92475000D03*
D41*
X1750000Y-92575000D03*
X750000Y-92575000D03*
X-750000Y-92575000D03*
X-1750000Y-92575000D03*
D40*
X-2400000Y-92475000D03*
X-3200000Y-92475000D03*
D39*
X-4320000Y-93145000D03*
D11*
X-15500000Y-57000000D03*
X-15500000Y-58000000D03*
D42*
X6900000Y-34000000D03*
D11*
X3150000Y-20050000D03*
X3150000Y-21050000D03*
D43*
X4850000Y-44025000D03*
X4850000Y-44675000D03*
X4850000Y-45325000D03*
X4850000Y-45975000D03*
X9250000Y-45975000D03*
X9250000Y-45325000D03*
X9250000Y-44675000D03*
X9250000Y-44025000D03*
D11*
X-8750000Y-28350000D03*
X-8750000Y-29350000D03*
D42*
X-16500000Y-2400000D03*
X-16500000Y-9400000D03*
D44*
X-20100000Y-5500000D03*
X-20100000Y-11000000D03*
D45*
X-13400000Y-2200000D03*
D44*
X-20100000Y-2200000D03*
X-12900000Y-9200000D03*
D45*
X-13400000Y-11500000D03*
D16*
X-14500000Y-30300000D03*
X-14500000Y-28300000D03*
D18*
X-500000Y-11000000D03*
X500000Y-11000000D03*
D46*
X10000000Y-60525000D03*
X10000000Y-63475000D03*
D19*
X17000000Y-64000000D03*
X17000000Y-63000000D03*
X-5200000Y-19400000D03*
X-5200000Y-18400000D03*
D18*
X-3500000Y-11000000D03*
X-2500000Y-11000000D03*
D17*
X21300000Y-75250000D03*
X14700000Y-75250000D03*
X21300000Y-70750000D03*
X14700000Y-70750000D03*
D19*
X-20000000Y-55500000D03*
X-20000000Y-54500000D03*
D47*
X-14450000Y-41500000D03*
X-15100000Y-41500000D03*
X-15750000Y-41500000D03*
X-16400000Y-41500000D03*
X-17050000Y-41500000D03*
X-17700000Y-41500000D03*
X-18350000Y-41500000D03*
X-19000000Y-41500000D03*
X-19650000Y-41500000D03*
X-20300000Y-41500000D03*
X-20950000Y-41500000D03*
X-21600000Y-41500000D03*
X-21600000Y-48700000D03*
X-20950000Y-48700000D03*
X-20300000Y-48700000D03*
X-19650000Y-48700000D03*
X-19000000Y-48700000D03*
X-18350000Y-48700000D03*
X-17700000Y-48700000D03*
X-17050000Y-48700000D03*
X-16400000Y-48700000D03*
X-15750000Y-48700000D03*
X-15100000Y-48700000D03*
X-14450000Y-48700000D03*
D24*
X17500000Y-51700000D03*
X16500000Y-51700000D03*
D48*
X-4200000Y-38900000D03*
D49*
X-5470000Y-38900000D03*
X-6740000Y-38900000D03*
X-8010000Y-38900000D03*
X-9280000Y-38900000D03*
D18*
X8500000Y-28750000D03*
X9500000Y-28750000D03*
D50*
X15275000Y-64150000D03*
X14725000Y-64150000D03*
D51*
X14500000Y-63500000D03*
D50*
X14725000Y-62850000D03*
X15275000Y-62850000D03*
D51*
X15500000Y-63500000D03*
D52*
X-1800000Y-46905000D03*
X-1800000Y-45635000D03*
X-1800000Y-44365000D03*
X-1800000Y-43095000D03*
X-7050000Y-43095000D03*
X-7050000Y-44365000D03*
X-7050000Y-45635000D03*
X-7050000Y-46905000D03*
D53*
X-25000000Y-74000000D03*
X-13000000Y-86000000D03*
D54*
X-17000000Y-71400000D03*
X-19000000Y-71400000D03*
X-21000000Y-71400000D03*
X-10400000Y-82000000D03*
X-10400000Y-80000000D03*
X-10400000Y-78000000D03*
M02*
