G04 #@! TF.GenerationSoftware,KiCad,Pcbnew,7.0.6*
G04 #@! TF.CreationDate,2023-07-24T20:40:51+09:00*
G04 #@! TF.ProjectId,SmaCon,536d6143-6f6e-42e6-9b69-6361645f7063,V1.0*
G04 #@! TF.SameCoordinates,Original*
G04 #@! TF.FileFunction,Copper,L2,Bot*
G04 #@! TF.FilePolarity,Positive*
%FSLAX46Y46*%
G04 Gerber Fmt 4.6, Leading zero omitted, Abs format (unit mm)*
G04 Created by KiCad (PCBNEW 7.0.6) date 2023-07-24 20:40:51*
%MOMM*%
%LPD*%
G01*
G04 APERTURE LIST*
G04 #@! TA.AperFunction,ComponentPad*
%ADD10C,1.400000*%
G04 #@! TD*
G04 #@! TA.AperFunction,ComponentPad*
%ADD11O,1.000000X1.600000*%
G04 #@! TD*
G04 #@! TA.AperFunction,ComponentPad*
%ADD12R,1.700000X1.700000*%
G04 #@! TD*
G04 #@! TA.AperFunction,ComponentPad*
%ADD13O,1.700000X1.700000*%
G04 #@! TD*
G04 #@! TA.AperFunction,ComponentPad*
%ADD14O,1.000000X1.800000*%
G04 #@! TD*
G04 #@! TA.AperFunction,ComponentPad*
%ADD15O,1.000000X2.100000*%
G04 #@! TD*
G04 #@! TA.AperFunction,ComponentPad*
%ADD16C,1.200000*%
G04 #@! TD*
G04 #@! TA.AperFunction,ComponentPad*
%ADD17R,1.000000X1.000000*%
G04 #@! TD*
G04 #@! TA.AperFunction,ComponentPad*
%ADD18O,1.000000X1.000000*%
G04 #@! TD*
G04 #@! TA.AperFunction,ComponentPad*
%ADD19C,1.700000*%
G04 #@! TD*
G04 #@! TA.AperFunction,SMDPad,CuDef*
%ADD20R,1.800000X2.200000*%
G04 #@! TD*
G04 #@! TA.AperFunction,SMDPad,CuDef*
%ADD21R,0.150000X1.300000*%
G04 #@! TD*
G04 #@! TA.AperFunction,ViaPad*
%ADD22C,0.609600*%
G04 #@! TD*
G04 #@! TA.AperFunction,Conductor*
%ADD23C,0.203200*%
G04 #@! TD*
G04 #@! TA.AperFunction,Conductor*
%ADD24C,0.152400*%
G04 #@! TD*
G04 #@! TA.AperFunction,Conductor*
%ADD25C,0.304800*%
G04 #@! TD*
G04 #@! TA.AperFunction,Conductor*
%ADD26C,0.406400*%
G04 #@! TD*
G04 APERTURE END LIST*
D10*
X13250000Y-76700000D03*
X13250000Y-83300000D03*
X8750000Y-76700000D03*
X8750000Y-83300000D03*
X22750000Y-83300000D03*
X22750000Y-76700000D03*
X27250000Y-83300000D03*
X27250000Y-76700000D03*
X14700000Y-84750000D03*
X21300000Y-84750000D03*
X14700000Y-89250000D03*
X21300000Y-89250000D03*
D11*
X-1000000Y-71000000D03*
X1000000Y-71000000D03*
D12*
X13190000Y-12155000D03*
D13*
X15730000Y-12155000D03*
X18270000Y-12155000D03*
X20810000Y-12155000D03*
D14*
X-4320000Y-97325000D03*
D15*
X4320000Y-93145000D03*
D14*
X4320000Y-97325000D03*
D15*
X-4320000Y-93145000D03*
D16*
X9000000Y-34000000D03*
D10*
X21300000Y-75250000D03*
X14700000Y-75250000D03*
X21300000Y-70750000D03*
X14700000Y-70750000D03*
D17*
X-4200000Y-38900000D03*
D18*
X-5470000Y-38900000D03*
X-6740000Y-38900000D03*
X-8010000Y-38900000D03*
X-9280000Y-38900000D03*
D19*
X-17000000Y-71400000D03*
X-19000000Y-71400000D03*
X-21000000Y-71400000D03*
X-10400000Y-82000000D03*
X-10400000Y-80000000D03*
X-10400000Y-78000000D03*
D20*
X6150000Y-20400000D03*
X-6150000Y-20400000D03*
D21*
X4250000Y-17150000D03*
X3750000Y-17150000D03*
X3250000Y-17150000D03*
X2750000Y-17150000D03*
X2250000Y-17150000D03*
X1750000Y-17150000D03*
X1250000Y-17150000D03*
X750000Y-17150000D03*
X250000Y-17150000D03*
X-250000Y-17150000D03*
X-750000Y-17150000D03*
X-1250000Y-17150000D03*
X-1750000Y-17150000D03*
X-2250000Y-17150000D03*
X-2750000Y-17150000D03*
X-3250000Y-17150000D03*
X-3750000Y-17150000D03*
X-4250000Y-17150000D03*
D20*
X-13850000Y-40400000D03*
X-20150000Y-40400000D03*
D21*
X-15750000Y-37150000D03*
X-16250000Y-37150000D03*
X-16750000Y-37150000D03*
X-17250000Y-37150000D03*
X-17750000Y-37150000D03*
X-18250000Y-37150000D03*
D22*
X25000000Y-10000000D03*
X20000000Y-50000000D03*
X-25000000Y-10000000D03*
X25000000Y-80000000D03*
X-5000000Y-5000000D03*
X10000000Y-25000000D03*
X15000000Y-60000000D03*
X-10000000Y-15000000D03*
X5000000Y-90000000D03*
X25000000Y-5000000D03*
X-1325000Y-31325000D03*
X-25000000Y-80000000D03*
X0Y-65000000D03*
X-25000000Y-20000000D03*
X-15000000Y-95000000D03*
X-20000000Y-20000000D03*
X-25000000Y-95000000D03*
X-20000000Y-85000000D03*
X10000000Y-95000000D03*
X-1325000Y-30000000D03*
X-25000000Y-25000000D03*
X20000000Y-5000000D03*
X25000000Y-85000000D03*
X15000000Y-30000000D03*
X-15000000Y-25000000D03*
X15000000Y-20000000D03*
X5000000Y-65000000D03*
X20000000Y-95000000D03*
X-10000000Y-50000000D03*
X-20000000Y-80000000D03*
X5000000Y-10000000D03*
X5000000Y-85000000D03*
X-10000000Y-10000000D03*
X15000000Y-80000000D03*
X-25000000Y-55000000D03*
X-25000000Y-60000000D03*
X25000000Y-95000000D03*
X-5000000Y-75000000D03*
X-25000000Y-70000000D03*
X-25000000Y-5000000D03*
X-1325000Y-28675000D03*
X4500000Y-18500000D03*
X25000000Y-30000000D03*
X5000000Y-70000000D03*
X0Y-40000000D03*
X0Y-55000000D03*
X25000000Y-20000000D03*
X-10000000Y-90000000D03*
X-10000000Y-25000000D03*
X-10000000Y-85000000D03*
X-25000000Y-40000000D03*
X-15000000Y-15000000D03*
X10000000Y-5000000D03*
X0Y-5000000D03*
X20000000Y-25000000D03*
X5000000Y-80000000D03*
X15000000Y-95000000D03*
X20000000Y-15000000D03*
X10000000Y-90000000D03*
X25000000Y-40000000D03*
X-25000000Y-35000000D03*
X0Y-50000000D03*
X-15000000Y-75000000D03*
X15000000Y-40000000D03*
X15000000Y-5000000D03*
X-20000000Y-25000000D03*
X6050000Y-46350000D03*
X20000000Y-65000000D03*
X-25000000Y-65000000D03*
X20000000Y-20000000D03*
X-25000000Y-50000000D03*
X-15000000Y-20000000D03*
X25000000Y-15000000D03*
X-20000000Y-65000000D03*
X-15000000Y-85000000D03*
X-15000000Y-90000000D03*
X0Y-75000000D03*
X10000000Y-15000000D03*
X-10000000Y-65000000D03*
X-5000000Y-65000000D03*
X20000000Y-30000000D03*
X25000000Y-25000000D03*
X6950000Y-40800000D03*
X-20000000Y-95000000D03*
X-10000000Y-95000000D03*
X25000000Y-90000000D03*
X-15000000Y-5000000D03*
X-5000000Y-10000000D03*
X5000000Y-15000000D03*
X-25000000Y-15000000D03*
X15000000Y-25000000D03*
X5000000Y-5000000D03*
X-25000000Y-85000000D03*
X-10000000Y-20000000D03*
X10000000Y-10000000D03*
X-15000000Y-80000000D03*
X-25000000Y-90000000D03*
X-25000000Y-30000000D03*
X-17700000Y-38300000D03*
X-5000000Y-70000000D03*
X9450000Y-30900000D03*
X-20000000Y-15000000D03*
X25000000Y-35000000D03*
X-5000000Y-15000000D03*
X15000000Y-50000000D03*
X-5000000Y-85000000D03*
X-10000000Y-5000000D03*
X20000000Y-60000000D03*
X20000000Y-80000000D03*
X-25000000Y-45000000D03*
X-50000Y-43300000D03*
X-5000000Y-90000000D03*
X-5000000Y-80000000D03*
X20000000Y-35000000D03*
X-20000000Y-90000000D03*
X-20000000Y-75000000D03*
X7100000Y-28050000D03*
X-4100000Y-18850000D03*
X-19650000Y-36250000D03*
X4650000Y-24050000D03*
X4350000Y-37250000D03*
X-250000Y-14000000D03*
X-23100000Y-36250000D03*
X-1550000Y-25350000D03*
X-6150000Y-36600000D03*
X-4000000Y-26150000D03*
X3450000Y-35200000D03*
X-5500000Y-37200000D03*
X8450000Y-29900000D03*
X-14650000Y-36250000D03*
X1850000Y-34850000D03*
X-250000Y-24550000D03*
X-2400000Y-91000000D03*
X2400000Y-91000000D03*
X3250000Y-24000000D03*
X2250000Y-24000000D03*
X-4600000Y-29750000D03*
X1300000Y-23100000D03*
X-250000Y-15100000D03*
X-1500000Y-15100000D03*
X-150000Y-35650000D03*
X-150000Y-34850000D03*
X-16000000Y-29200000D03*
X-2337759Y-34515301D03*
X7800000Y-43950000D03*
X6450000Y-45300000D03*
X24800000Y-71200000D03*
X25400000Y-70600000D03*
X23000000Y-73000000D03*
X23600000Y-72400000D03*
X24200000Y-71800000D03*
X11500000Y-52500000D03*
X11500000Y-50500000D03*
X12500000Y-52500000D03*
X12500000Y-50500000D03*
X-250000Y-25400000D03*
X-10850000Y-36000000D03*
X4100000Y-40750000D03*
X4100000Y-43000000D03*
D23*
X-16750000Y-38050000D02*
X-16500000Y-38300000D01*
D24*
X750000Y-17150000D02*
X750000Y-16150000D01*
X4250000Y-17150000D02*
X4250000Y-16250000D01*
X-16750000Y-37150000D02*
X-16750000Y-38050000D01*
D23*
X-17000000Y-38300000D02*
X-17700000Y-38300000D01*
X-16000000Y-38300000D02*
X-15750000Y-38050000D01*
D24*
X750000Y-16150000D02*
X1100000Y-15800000D01*
X4250000Y-16250000D02*
X4250000Y-15850000D01*
D23*
X-16500000Y-38300000D02*
X-16000000Y-38300000D01*
X-16750000Y-38050000D02*
X-17000000Y-38300000D01*
D24*
X-15750000Y-38050000D02*
X-15750000Y-37150000D01*
X-18250000Y-37150000D02*
X-18250000Y-36250000D01*
D25*
X-3200000Y-25350000D02*
X-4000000Y-26150000D01*
X-6150000Y-36600000D02*
X-5956400Y-36406400D01*
X-6740000Y-37800000D02*
X-6740000Y-37560000D01*
X-7300000Y-37000000D02*
X-13550000Y-37000000D01*
X-4629800Y-16195200D02*
X-2434600Y-14000000D01*
X-4629800Y-18320200D02*
X-4629800Y-16195200D01*
X-21550000Y-36250000D02*
X-23100000Y-36250000D01*
X-18550000Y-39050000D02*
X-19650000Y-37950000D01*
X4800000Y-26950000D02*
X4650000Y-26800000D01*
X2459600Y-35102505D02*
X2459600Y-28050000D01*
X-549799Y-36615200D02*
X946905Y-36615200D01*
X7700000Y-26950000D02*
X4800000Y-26950000D01*
D24*
X250000Y-17150000D02*
X250000Y-16250000D01*
D23*
X250000Y-15650000D02*
X250000Y-16250000D01*
X308800Y-14558800D02*
X308800Y-15591200D01*
D25*
X4890400Y-30509600D02*
X8840400Y-30509600D01*
X4350000Y-37250000D02*
X4350000Y-31050000D01*
X-2434600Y-14000000D02*
X-250000Y-14000000D01*
X-758599Y-36406400D02*
X-549799Y-36615200D01*
X9250000Y-30100000D02*
X9250000Y-28500000D01*
X946905Y-36615200D02*
X2459600Y-35102505D01*
X-19650000Y-37950000D02*
X-19650000Y-36250000D01*
X2459600Y-26397495D02*
X2505Y-23940400D01*
X2505Y-23940400D02*
X-940400Y-23940400D01*
X4650000Y-26800000D02*
X4650000Y-24050000D01*
X2459600Y-28050000D02*
X7100000Y-28050000D01*
X-1550000Y-24550000D02*
X-1550000Y-25350000D01*
X-4100000Y-18850000D02*
X-4629800Y-18320200D01*
X4350000Y-31050000D02*
X4890400Y-30509600D01*
X-19650000Y-36250000D02*
X-21550000Y-36250000D01*
X3790400Y-37809600D02*
X-6730400Y-37809600D01*
X2459600Y-28050000D02*
X2459600Y-26397495D01*
X-15600000Y-39050000D02*
X-18550000Y-39050000D01*
X-1550000Y-25350000D02*
X-3200000Y-25350000D01*
D23*
X308800Y-15591200D02*
X250000Y-15650000D01*
D25*
X-6730400Y-37809600D02*
X-6740000Y-37800000D01*
X-6740000Y-38900000D02*
X-6740000Y-37800000D01*
X9250000Y-28500000D02*
X7700000Y-26950000D01*
X-6740000Y-37560000D02*
X-7300000Y-37000000D01*
X4350000Y-37250000D02*
X3790400Y-37809600D01*
D23*
X-19650000Y-36250000D02*
X-18250000Y-36250000D01*
D25*
X-940400Y-23940400D02*
X-1550000Y-24550000D01*
X-5956400Y-36406400D02*
X-758599Y-36406400D01*
X-13550000Y-37000000D02*
X-15600000Y-39050000D01*
X8840400Y-30509600D02*
X9250000Y-30100000D01*
D23*
X-250000Y-14000000D02*
X308800Y-14558800D01*
X-14306400Y-36593600D02*
X-14650000Y-36250000D01*
X-6525264Y-37200000D02*
X-7131664Y-36593600D01*
X7491200Y-27491200D02*
X4291200Y-27491200D01*
X-15000000Y-35900000D02*
X-14650000Y-36250000D01*
X1450000Y-37200000D02*
X-5500000Y-37200000D01*
X-5500000Y-37200000D02*
X-6525264Y-37200000D01*
X3808800Y-27008800D02*
X3808800Y-23768537D01*
X3750000Y-23709737D02*
X3750000Y-18050000D01*
X-7131664Y-36593600D02*
X-14306400Y-36593600D01*
X8450000Y-28450000D02*
X7491200Y-27491200D01*
D24*
X3750000Y-17150000D02*
X3750000Y-18050000D01*
X-16250000Y-37150000D02*
X-16250000Y-36250000D01*
D23*
X3450000Y-35200000D02*
X3450000Y-30550000D01*
X8450000Y-29900000D02*
X8450000Y-28450000D01*
X4291200Y-27491200D02*
X3808800Y-27008800D01*
X3450000Y-30550000D02*
X4100000Y-29900000D01*
X3808800Y-23768537D02*
X3750000Y-23709737D01*
X4100000Y-29900000D02*
X8450000Y-29900000D01*
X-15900000Y-35900000D02*
X-15000000Y-35900000D01*
X-16250000Y-36250000D02*
X-15900000Y-35900000D01*
X3450000Y-35200000D02*
X1450000Y-37200000D01*
X-250000Y-24609737D02*
X-250000Y-24550000D01*
X1850000Y-34850000D02*
X1850000Y-26709737D01*
X1850000Y-26709737D02*
X-250000Y-24609737D01*
D26*
X2400000Y-91000000D02*
X-2400000Y-91000000D01*
D23*
X3250000Y-18050000D02*
X3250000Y-24000000D01*
D24*
X3250000Y-17150000D02*
X3250000Y-18050000D01*
D23*
X2750000Y-23500000D02*
X2250000Y-24000000D01*
X2750000Y-18050000D02*
X2750000Y-23500000D01*
D24*
X2750000Y-17150000D02*
X2750000Y-18050000D01*
D23*
X1450000Y-23900000D02*
X2250000Y-23100000D01*
X900000Y-23900000D02*
X1450000Y-23900000D01*
X500000Y-23500000D02*
X900000Y-23900000D01*
X-2140263Y-23500000D02*
X500000Y-23500000D01*
X-4600000Y-29750000D02*
X-4600000Y-25959737D01*
X2250000Y-23100000D02*
X2250000Y-18050000D01*
D24*
X2250000Y-17150000D02*
X2250000Y-18050000D01*
D23*
X-4600000Y-25959737D02*
X-2140263Y-23500000D01*
X1750000Y-22650000D02*
X1300000Y-23100000D01*
D24*
X1750000Y-17150000D02*
X1750000Y-18050000D01*
D23*
X1750000Y-18050000D02*
X1750000Y-22650000D01*
X-250000Y-15100000D02*
X-250000Y-16250000D01*
D24*
X-250000Y-17150000D02*
X-250000Y-16250000D01*
D23*
X-1750000Y-16250000D02*
X-1500000Y-16250000D01*
D24*
X-750000Y-16250000D02*
X-750000Y-17150000D01*
X-2250000Y-17150000D02*
X-2250000Y-16250000D01*
D23*
X-2250000Y-16250000D02*
X-1750000Y-16250000D01*
D24*
X-1750000Y-17150000D02*
X-1750000Y-16250000D01*
X-1250000Y-17150000D02*
X-1250000Y-16250000D01*
D23*
X-1500000Y-15100000D02*
X-1500000Y-16250000D01*
X-1500000Y-16250000D02*
X-1250000Y-16250000D01*
X-1250000Y-16250000D02*
X-750000Y-16250000D01*
X-17250000Y-35652894D02*
X-17250000Y-36250000D01*
X-17026807Y-35429701D02*
X-17250000Y-35652894D01*
D24*
X-17250000Y-37150000D02*
X-17250000Y-36250000D01*
D23*
X-150000Y-35650000D02*
X-370299Y-35429701D01*
X-370299Y-35429701D02*
X-17026807Y-35429701D01*
X-150000Y-34850000D02*
X-374101Y-35074101D01*
X-17750000Y-35650000D02*
X-17750000Y-36250000D01*
X-374101Y-35074101D02*
X-17174101Y-35074101D01*
X-17174101Y-35074101D02*
X-17750000Y-35650000D01*
D24*
X-17750000Y-37150000D02*
X-17750000Y-36250000D01*
D23*
X-2540959Y-34718501D02*
X-15681499Y-34718501D01*
X-16000000Y-34400000D02*
X-16000000Y-29200000D01*
X-15681499Y-34718501D02*
X-16000000Y-34400000D01*
X-2337759Y-34515301D02*
X-2540959Y-34718501D01*
X6450000Y-45300000D02*
X7800000Y-43950000D01*
X25590263Y-71200000D02*
X24800000Y-71200000D01*
X25958800Y-70831463D02*
X25590263Y-71200000D01*
X-8455600Y-78044400D02*
X4955600Y-78044400D01*
X13800000Y-69200000D02*
X24790263Y-69200000D01*
X-17700000Y-70100000D02*
X-16400000Y-70100000D01*
X-16400000Y-70100000D02*
X-8455600Y-78044400D01*
X24790263Y-69200000D02*
X25958800Y-70368537D01*
X-19000000Y-71400000D02*
X-17700000Y-70100000D01*
X25958800Y-70368537D02*
X25958800Y-70831463D01*
X4955600Y-78044400D02*
X13800000Y-69200000D01*
X13947294Y-69555600D02*
X24355600Y-69555600D01*
X-10400000Y-80000000D02*
X-8800000Y-78400000D01*
X-8800000Y-78400000D02*
X5102894Y-78400000D01*
X24355600Y-69555600D02*
X25400000Y-70600000D01*
X5102894Y-78400000D02*
X13947294Y-69555600D01*
X14700000Y-89250000D02*
X10000000Y-84550000D01*
X10000000Y-76400000D02*
X13400000Y-73000000D01*
X10000000Y-84550000D02*
X10000000Y-76400000D01*
X13400000Y-73000000D02*
X23000000Y-73000000D01*
X8750000Y-76700000D02*
X13008800Y-72441200D01*
X23558800Y-72441200D02*
X23600000Y-72400000D01*
X13008800Y-72441200D02*
X23558800Y-72441200D01*
X22350000Y-71800000D02*
X24200000Y-71800000D01*
X21300000Y-70750000D02*
X22350000Y-71800000D01*
X11500000Y-52500000D02*
X11500000Y-50500000D01*
X12500000Y-52500000D02*
X12500000Y-50500000D01*
X-381463Y-36208800D02*
X81463Y-36208800D01*
X-590263Y-36000000D02*
X-381463Y-36208800D01*
X-10850000Y-36000000D02*
X-590263Y-36000000D01*
X408800Y-26058800D02*
X-250000Y-25400000D01*
X81463Y-36208800D02*
X408800Y-35881463D01*
X408800Y-35881463D02*
X408800Y-26058800D01*
X4100000Y-43000000D02*
X4100000Y-40750000D01*
G04 #@! TA.AperFunction,Conductor*
G36*
X13999964Y-83696411D02*
G01*
X14655597Y-84352046D01*
X14574852Y-84364835D01*
X14461955Y-84422359D01*
X14372359Y-84511955D01*
X14314835Y-84624852D01*
X14302046Y-84705599D01*
X13950036Y-84353589D01*
X13294401Y-83697953D01*
X13375148Y-83685165D01*
X13488045Y-83627641D01*
X13577641Y-83538045D01*
X13635165Y-83425148D01*
X13647953Y-83344400D01*
X13999964Y-83696411D01*
G37*
G04 #@! TD.AperFunction*
G04 #@! TA.AperFunction,Conductor*
G36*
X22364835Y-83425148D02*
G01*
X22422359Y-83538045D01*
X22511955Y-83627641D01*
X22624852Y-83685165D01*
X22705599Y-83697953D01*
X21697953Y-84705598D01*
X21685165Y-84624852D01*
X21627641Y-84511955D01*
X21538045Y-84422359D01*
X21425148Y-84364835D01*
X21344399Y-84352046D01*
X22352046Y-83344400D01*
X22364835Y-83425148D01*
G37*
G04 #@! TD.AperFunction*
G04 #@! TA.AperFunction,Conductor*
G36*
X14314835Y-75375148D02*
G01*
X14372359Y-75488045D01*
X14461955Y-75577641D01*
X14574852Y-75635165D01*
X14655599Y-75647953D01*
X13647953Y-76655599D01*
X13635165Y-76574852D01*
X13577641Y-76461955D01*
X13488045Y-76372359D01*
X13375148Y-76314835D01*
X13294399Y-76302046D01*
X14302046Y-75294400D01*
X14314835Y-75375148D01*
G37*
G04 #@! TD.AperFunction*
G04 #@! TA.AperFunction,Conductor*
G36*
X22705599Y-76302046D02*
G01*
X22624852Y-76314835D01*
X22511955Y-76372359D01*
X22422359Y-76461955D01*
X22364835Y-76574852D01*
X22352046Y-76655599D01*
X22000036Y-76303589D01*
X21344401Y-75647953D01*
X21425148Y-75635165D01*
X21538045Y-75577641D01*
X21627641Y-75488045D01*
X21685165Y-75375148D01*
X21697953Y-75294401D01*
X22705599Y-76302046D01*
G37*
G04 #@! TD.AperFunction*
G04 #@! TA.AperFunction,Conductor*
G36*
X27001735Y-305398D02*
G01*
X27149809Y-313713D01*
X27298240Y-322049D01*
X27305134Y-322825D01*
X27543265Y-363285D01*
X27596189Y-372278D01*
X27602973Y-373826D01*
X27886660Y-455555D01*
X27893220Y-457850D01*
X28165971Y-570827D01*
X28172233Y-573842D01*
X28430616Y-716646D01*
X28430622Y-716649D01*
X28436500Y-720342D01*
X28677280Y-891185D01*
X28682710Y-895515D01*
X28902842Y-1092237D01*
X28907762Y-1097157D01*
X29104484Y-1317289D01*
X29108813Y-1322718D01*
X29279653Y-1563494D01*
X29283350Y-1569377D01*
X29426157Y-1827767D01*
X29429176Y-1834036D01*
X29542146Y-2106772D01*
X29544444Y-2113339D01*
X29626173Y-2397026D01*
X29627721Y-2403810D01*
X29677172Y-2694853D01*
X29677951Y-2701767D01*
X29694602Y-2998264D01*
X29694700Y-3001740D01*
X29694700Y-93951645D01*
X29694700Y-94000000D01*
X29683884Y-94275300D01*
X29677241Y-94444366D01*
X29676860Y-94449208D01*
X29659263Y-94597884D01*
X29624875Y-94888426D01*
X29624113Y-94893236D01*
X29537830Y-95327012D01*
X29536693Y-95331748D01*
X29416647Y-95757400D01*
X29415142Y-95762032D01*
X29262059Y-96176981D01*
X29260195Y-96181480D01*
X29075035Y-96583125D01*
X29072824Y-96587465D01*
X28856717Y-96973351D01*
X28854172Y-96977503D01*
X28608462Y-97345234D01*
X28605600Y-97349174D01*
X28331791Y-97696500D01*
X28328628Y-97700203D01*
X28028415Y-98024971D01*
X28024971Y-98028415D01*
X27700203Y-98328628D01*
X27696500Y-98331791D01*
X27349174Y-98605600D01*
X27345234Y-98608462D01*
X26977503Y-98854172D01*
X26973351Y-98856717D01*
X26587465Y-99072824D01*
X26583125Y-99075035D01*
X26181480Y-99260195D01*
X26176981Y-99262059D01*
X25762032Y-99415142D01*
X25757400Y-99416647D01*
X25331748Y-99536693D01*
X25327012Y-99537830D01*
X24893236Y-99624113D01*
X24888426Y-99624875D01*
X24668824Y-99650866D01*
X24449208Y-99676860D01*
X24444374Y-99677240D01*
X24000000Y-99694700D01*
X-24000000Y-99694700D01*
X-24444374Y-99677240D01*
X-24449208Y-99676860D01*
X-24668824Y-99650866D01*
X-24888426Y-99624875D01*
X-24893236Y-99624113D01*
X-25327012Y-99537830D01*
X-25331748Y-99536693D01*
X-25364051Y-99527582D01*
X-25757423Y-99416640D01*
X-25762033Y-99415143D01*
X-26176982Y-99262059D01*
X-26181481Y-99260195D01*
X-26583125Y-99075035D01*
X-26587465Y-99072824D01*
X-26973351Y-98856717D01*
X-26977503Y-98854172D01*
X-27345234Y-98608462D01*
X-27349174Y-98605600D01*
X-27696500Y-98331791D01*
X-27700203Y-98328628D01*
X-28024971Y-98028415D01*
X-28028415Y-98024971D01*
X-28258799Y-97775743D01*
X-5320500Y-97775743D01*
X-5305074Y-97927439D01*
X-5274132Y-98026058D01*
X-5244159Y-98121588D01*
X-5145409Y-98299502D01*
X-5012866Y-98453895D01*
X-4851958Y-98578448D01*
X-4669271Y-98668060D01*
X-4472285Y-98719063D01*
X-4269064Y-98729369D01*
X-4067929Y-98698556D01*
X-3877113Y-98627886D01*
X-3704429Y-98520252D01*
X-3556947Y-98380059D01*
X-3488409Y-98281587D01*
X-3440705Y-98213050D01*
X-3360459Y-98026056D01*
X-3319500Y-97826741D01*
X-3319500Y-97775743D01*
X3319500Y-97775743D01*
X3334925Y-97927439D01*
X3395837Y-98121579D01*
X3395844Y-98121594D01*
X3494589Y-98299499D01*
X3494592Y-98299504D01*
X3627132Y-98453893D01*
X3627134Y-98453895D01*
X3788037Y-98578445D01*
X3788038Y-98578445D01*
X3788042Y-98578448D01*
X3970729Y-98668060D01*
X4167715Y-98719063D01*
X4370936Y-98729369D01*
X4572071Y-98698556D01*
X4762887Y-98627886D01*
X4935571Y-98520252D01*
X5083053Y-98380059D01*
X5199295Y-98213049D01*
X5279540Y-98026058D01*
X5320500Y-97826741D01*
X5320500Y-96874258D01*
X5305074Y-96722562D01*
X5305074Y-96722560D01*
X5244162Y-96528420D01*
X5244160Y-96528416D01*
X5244159Y-96528412D01*
X5145409Y-96350498D01*
X5145408Y-96350497D01*
X5145407Y-96350495D01*
X5012867Y-96196106D01*
X5012865Y-96196104D01*
X4851962Y-96071554D01*
X4851959Y-96071553D01*
X4851958Y-96071552D01*
X4669271Y-95981940D01*
X4472285Y-95930937D01*
X4472287Y-95930937D01*
X4336804Y-95924066D01*
X4269064Y-95920631D01*
X4269063Y-95920631D01*
X4269061Y-95920631D01*
X4067936Y-95951442D01*
X4067924Y-95951445D01*
X3877118Y-96022111D01*
X3877111Y-96022115D01*
X3704432Y-96129745D01*
X3704427Y-96129749D01*
X3556949Y-96269938D01*
X3556948Y-96269940D01*
X3440705Y-96436949D01*
X3360459Y-96623943D01*
X3319500Y-96823258D01*
X3319500Y-97775743D01*
X-3319500Y-97775743D01*
X-3319500Y-96874256D01*
X-3334925Y-96722560D01*
X-3395837Y-96528420D01*
X-3395844Y-96528405D01*
X-3494589Y-96350500D01*
X-3494592Y-96350495D01*
X-3627132Y-96196106D01*
X-3627134Y-96196104D01*
X-3788037Y-96071554D01*
X-3788040Y-96071553D01*
X-3970728Y-95981940D01*
X-4167715Y-95930937D01*
X-4167712Y-95930937D01*
X-4370936Y-95920631D01*
X-4370938Y-95920631D01*
X-4572063Y-95951442D01*
X-4572075Y-95951445D01*
X-4762881Y-96022111D01*
X-4762884Y-96022113D01*
X-4762887Y-96022114D01*
X-4836513Y-96068005D01*
X-4935567Y-96129745D01*
X-4935569Y-96129747D01*
X-4935571Y-96129748D01*
X-5083053Y-96269941D01*
X-5199295Y-96436951D01*
X-5262023Y-96583125D01*
X-5279540Y-96623943D01*
X-5320500Y-96823258D01*
X-5320500Y-97775743D01*
X-28258799Y-97775743D01*
X-28328628Y-97700203D01*
X-28331791Y-97696500D01*
X-28605600Y-97349174D01*
X-28608462Y-97345234D01*
X-28854172Y-96977503D01*
X-28856717Y-96973351D01*
X-29072824Y-96587465D01*
X-29075035Y-96583125D01*
X-29260195Y-96181481D01*
X-29262059Y-96176982D01*
X-29415143Y-95762033D01*
X-29416640Y-95757423D01*
X-29536693Y-95331748D01*
X-29537830Y-95327012D01*
X-29624113Y-94893236D01*
X-29624875Y-94888426D01*
X-29659263Y-94597884D01*
X-29676860Y-94449208D01*
X-29677241Y-94444366D01*
X-29683884Y-94275300D01*
X-29694700Y-94000000D01*
X-29694700Y-93951645D01*
X-29694700Y-93745743D01*
X-5320500Y-93745743D01*
X-5305074Y-93897439D01*
X-5274132Y-93996058D01*
X-5244159Y-94091588D01*
X-5145409Y-94269502D01*
X-5012866Y-94423895D01*
X-4851958Y-94548448D01*
X-4669271Y-94638060D01*
X-4472285Y-94689063D01*
X-4269064Y-94699369D01*
X-4067929Y-94668556D01*
X-3877113Y-94597886D01*
X-3704429Y-94490252D01*
X-3556947Y-94350059D01*
X-3442326Y-94185378D01*
X-3387872Y-94141599D01*
X-3318394Y-94134211D01*
X-3267664Y-94155898D01*
X-3263423Y-94158979D01*
X-3185665Y-94201726D01*
X-3123873Y-94235696D01*
X-2969625Y-94275300D01*
X-2969621Y-94275300D01*
X-2850343Y-94275300D01*
X-2850341Y-94275300D01*
X-2850337Y-94275299D01*
X-2850331Y-94275299D01*
X-2825671Y-94272183D01*
X-2732005Y-94260351D01*
X-2583937Y-94201726D01*
X-2583933Y-94201723D01*
X-2583929Y-94201721D01*
X-2455101Y-94108123D01*
X-2455099Y-94108121D01*
X-2353591Y-93985417D01*
X-2353590Y-93985416D01*
X-2285784Y-93841322D01*
X-2255944Y-93684891D01*
X-2260963Y-93605111D01*
X2255944Y-93605111D01*
X2265943Y-93764045D01*
X2315154Y-93915502D01*
X2315156Y-93915506D01*
X2400486Y-94049963D01*
X2400487Y-94049964D01*
X2516570Y-94158974D01*
X2516578Y-94158980D01*
X2656124Y-94235695D01*
X2656126Y-94235695D01*
X2656127Y-94235696D01*
X2810375Y-94275300D01*
X2810379Y-94275300D01*
X2929657Y-94275300D01*
X2929659Y-94275300D01*
X2929664Y-94275299D01*
X2929668Y-94275299D01*
X2942494Y-94273678D01*
X3047995Y-94260351D01*
X3196063Y-94201726D01*
X3268669Y-94148974D01*
X3334475Y-94125495D01*
X3402528Y-94141320D01*
X3449973Y-94189116D01*
X3494589Y-94269499D01*
X3494592Y-94269504D01*
X3627132Y-94423893D01*
X3627134Y-94423895D01*
X3788037Y-94548445D01*
X3788038Y-94548445D01*
X3788042Y-94548448D01*
X3970729Y-94638060D01*
X4167715Y-94689063D01*
X4370936Y-94699369D01*
X4572071Y-94668556D01*
X4762887Y-94597886D01*
X4935571Y-94490252D01*
X5083053Y-94350059D01*
X5199295Y-94183049D01*
X5279540Y-93996058D01*
X5320500Y-93796741D01*
X5320500Y-92544258D01*
X5305074Y-92392562D01*
X5305074Y-92392560D01*
X5244162Y-92198420D01*
X5244160Y-92198416D01*
X5244159Y-92198412D01*
X5145409Y-92020498D01*
X5145408Y-92020497D01*
X5145407Y-92020495D01*
X5012867Y-91866106D01*
X5012865Y-91866104D01*
X4851962Y-91741554D01*
X4851959Y-91741553D01*
X4851958Y-91741552D01*
X4669271Y-91651940D01*
X4472285Y-91600937D01*
X4472287Y-91600937D01*
X4336804Y-91594066D01*
X4269064Y-91590631D01*
X4269063Y-91590631D01*
X4269061Y-91590631D01*
X4067936Y-91621442D01*
X4067924Y-91621445D01*
X3877118Y-91692111D01*
X3877111Y-91692115D01*
X3704432Y-91799745D01*
X3704427Y-91799749D01*
X3556949Y-91939938D01*
X3556948Y-91939940D01*
X3440705Y-92106949D01*
X3360459Y-92293943D01*
X3319500Y-92493258D01*
X3319500Y-92952177D01*
X3299815Y-93019216D01*
X3247011Y-93064971D01*
X3177853Y-93074915D01*
X3135766Y-93060841D01*
X3123874Y-93054304D01*
X2969628Y-93014700D01*
X2969625Y-93014700D01*
X2850341Y-93014700D01*
X2850331Y-93014700D01*
X2732005Y-93029649D01*
X2732003Y-93029649D01*
X2583938Y-93088273D01*
X2583929Y-93088278D01*
X2455101Y-93181876D01*
X2455099Y-93181878D01*
X2353591Y-93304582D01*
X2285783Y-93448680D01*
X2255944Y-93605111D01*
X-2260963Y-93605111D01*
X-2265943Y-93525955D01*
X-2291051Y-93448678D01*
X-2315154Y-93374497D01*
X-2315156Y-93374493D01*
X-2400486Y-93240036D01*
X-2400487Y-93240035D01*
X-2516570Y-93131025D01*
X-2516578Y-93131019D01*
X-2656124Y-93054304D01*
X-2810371Y-93014700D01*
X-2810375Y-93014700D01*
X-2929659Y-93014700D01*
X-2929668Y-93014700D01*
X-3036161Y-93028154D01*
X-3047995Y-93029649D01*
X-3048000Y-93029650D01*
X-3149853Y-93069977D01*
X-3219431Y-93076354D01*
X-3281411Y-93044101D01*
X-3316115Y-92983460D01*
X-3319500Y-92954685D01*
X-3319500Y-92544256D01*
X-3334925Y-92392560D01*
X-3395837Y-92198420D01*
X-3395844Y-92198405D01*
X-3494589Y-92020500D01*
X-3494592Y-92020495D01*
X-3627132Y-91866106D01*
X-3627134Y-91866104D01*
X-3788037Y-91741554D01*
X-3788040Y-91741553D01*
X-3970728Y-91651940D01*
X-4167715Y-91600937D01*
X-4167712Y-91600937D01*
X-4370936Y-91590631D01*
X-4370938Y-91590631D01*
X-4572063Y-91621442D01*
X-4572075Y-91621445D01*
X-4762881Y-91692111D01*
X-4762884Y-91692113D01*
X-4762887Y-91692114D01*
X-4823898Y-91730142D01*
X-4935567Y-91799745D01*
X-4935569Y-91799747D01*
X-4935571Y-91799748D01*
X-5083053Y-91939941D01*
X-5172424Y-92068344D01*
X-5199294Y-92106949D01*
X-5279540Y-92293943D01*
X-5320500Y-92493258D01*
X-5320500Y-93745743D01*
X-29694700Y-93745743D01*
X-29694700Y-91000000D01*
X-3210396Y-91000000D01*
X-3190078Y-91180330D01*
X-3130142Y-91351618D01*
X-3130140Y-91351620D01*
X-3130140Y-91351622D01*
X-3130138Y-91351625D01*
X-3033593Y-91505274D01*
X-2905274Y-91633593D01*
X-2905269Y-91633596D01*
X-2905268Y-91633597D01*
X-2751625Y-91730138D01*
X-2751622Y-91730140D01*
X-2751620Y-91730140D01*
X-2751618Y-91730142D01*
X-2580330Y-91790078D01*
X-2580327Y-91790078D01*
X-2580324Y-91790079D01*
X-2400004Y-91810396D01*
X-2400000Y-91810396D01*
X-2399996Y-91810396D01*
X-2219675Y-91790079D01*
X-2219670Y-91790078D01*
X-2080993Y-91741553D01*
X-2048382Y-91730142D01*
X-2048381Y-91730141D01*
X-2048377Y-91730140D01*
X-2048376Y-91730139D01*
X-2036546Y-91722706D01*
X-1970575Y-91703700D01*
X1970575Y-91703700D01*
X2036546Y-91722706D01*
X2048376Y-91730139D01*
X2048377Y-91730140D01*
X2048381Y-91730141D01*
X2048382Y-91730142D01*
X2080993Y-91741553D01*
X2219670Y-91790078D01*
X2219675Y-91790079D01*
X2399996Y-91810396D01*
X2400000Y-91810396D01*
X2400004Y-91810396D01*
X2580324Y-91790079D01*
X2580327Y-91790078D01*
X2580330Y-91790078D01*
X2751618Y-91730142D01*
X2751620Y-91730140D01*
X2751622Y-91730140D01*
X2751625Y-91730138D01*
X2905268Y-91633597D01*
X2905269Y-91633596D01*
X2905274Y-91633593D01*
X3033593Y-91505274D01*
X3130138Y-91351625D01*
X3130140Y-91351622D01*
X3130140Y-91351620D01*
X3130142Y-91351618D01*
X3190078Y-91180330D01*
X3210396Y-91000000D01*
X3190078Y-90819670D01*
X3130142Y-90648382D01*
X3130141Y-90648381D01*
X3130140Y-90648377D01*
X3130138Y-90648374D01*
X3033597Y-90494731D01*
X3033592Y-90494725D01*
X2905274Y-90366407D01*
X2905268Y-90366402D01*
X2751625Y-90269861D01*
X2751622Y-90269859D01*
X2580329Y-90209921D01*
X2580324Y-90209920D01*
X2400004Y-90189604D01*
X2399996Y-90189604D01*
X2219675Y-90209920D01*
X2219670Y-90209921D01*
X2048377Y-90269859D01*
X2048376Y-90269860D01*
X2036546Y-90277294D01*
X1970575Y-90296300D01*
X-1970575Y-90296300D01*
X-2036546Y-90277294D01*
X-2048376Y-90269860D01*
X-2048377Y-90269859D01*
X-2219670Y-90209921D01*
X-2219675Y-90209920D01*
X-2399996Y-90189604D01*
X-2400004Y-90189604D01*
X-2580324Y-90209920D01*
X-2580329Y-90209921D01*
X-2751622Y-90269859D01*
X-2751625Y-90269861D01*
X-2905268Y-90366402D01*
X-2905274Y-90366407D01*
X-3033592Y-90494725D01*
X-3033597Y-90494731D01*
X-3130138Y-90648374D01*
X-3130140Y-90648377D01*
X-3130141Y-90648381D01*
X-3130142Y-90648382D01*
X-3190078Y-90819670D01*
X-3210396Y-91000000D01*
X-29694700Y-91000000D01*
X-29694700Y-86000000D01*
X-14060406Y-86000000D01*
X-14040031Y-86206875D01*
X-13979687Y-86405800D01*
X-13881695Y-86589130D01*
X-13749820Y-86749820D01*
X-13589130Y-86881695D01*
X-13405800Y-86979687D01*
X-13206875Y-87040031D01*
X-13051843Y-87055300D01*
X-13051840Y-87055300D01*
X-12948160Y-87055300D01*
X-12948157Y-87055300D01*
X-12793125Y-87040031D01*
X-12594200Y-86979687D01*
X-12594198Y-86979686D01*
X-12410875Y-86881698D01*
X-12410868Y-86881694D01*
X-12250179Y-86749820D01*
X-12118305Y-86589131D01*
X-12118301Y-86589124D01*
X-12020313Y-86405801D01*
X-11959969Y-86206877D01*
X-11939594Y-86000000D01*
X-11959969Y-85793122D01*
X-12020313Y-85594198D01*
X-12118301Y-85410875D01*
X-12118305Y-85410868D01*
X-12250179Y-85250179D01*
X-12410868Y-85118305D01*
X-12410875Y-85118301D01*
X-12594198Y-85020313D01*
X-12793122Y-84959969D01*
X-12870641Y-84952334D01*
X-12948157Y-84944700D01*
X-13051843Y-84944700D01*
X-13144862Y-84953861D01*
X-13206877Y-84959969D01*
X-13405801Y-85020313D01*
X-13589124Y-85118301D01*
X-13589131Y-85118305D01*
X-13749820Y-85250179D01*
X-13881694Y-85410868D01*
X-13881695Y-85410870D01*
X-13979687Y-85594200D01*
X-14040031Y-85793125D01*
X-14060406Y-86000000D01*
X-29694700Y-86000000D01*
X-29694700Y-74000000D01*
X-26060406Y-74000000D01*
X-26040031Y-74206875D01*
X-25979687Y-74405800D01*
X-25881695Y-74589130D01*
X-25749820Y-74749820D01*
X-25589130Y-74881695D01*
X-25405800Y-74979687D01*
X-25206875Y-75040031D01*
X-25051843Y-75055300D01*
X-25051840Y-75055300D01*
X-24948160Y-75055300D01*
X-24948157Y-75055300D01*
X-24793125Y-75040031D01*
X-24594200Y-74979687D01*
X-24486947Y-74922359D01*
X-24410875Y-74881698D01*
X-24410868Y-74881694D01*
X-24250179Y-74749820D01*
X-24118305Y-74589131D01*
X-24118301Y-74589124D01*
X-24020313Y-74405801D01*
X-23959969Y-74206877D01*
X-23939594Y-74000000D01*
X-23959969Y-73793122D01*
X-24020313Y-73594198D01*
X-24118301Y-73410875D01*
X-24118305Y-73410868D01*
X-24250179Y-73250179D01*
X-24410868Y-73118305D01*
X-24410875Y-73118301D01*
X-24594198Y-73020313D01*
X-24793122Y-72959969D01*
X-24870641Y-72952334D01*
X-24948157Y-72944700D01*
X-25051843Y-72944700D01*
X-25144862Y-72953861D01*
X-25206877Y-72959969D01*
X-25405801Y-73020313D01*
X-25589124Y-73118301D01*
X-25589131Y-73118305D01*
X-25749820Y-73250179D01*
X-25881694Y-73410868D01*
X-25881695Y-73410870D01*
X-25979687Y-73594200D01*
X-26040031Y-73793125D01*
X-26060406Y-74000000D01*
X-29694700Y-74000000D01*
X-29694700Y-68211688D01*
X-22805300Y-68211688D01*
X-22764255Y-68431259D01*
X-22683563Y-68639550D01*
X-22565971Y-68829468D01*
X-22415484Y-68994544D01*
X-22237227Y-69129157D01*
X-22037270Y-69228724D01*
X-21822422Y-69289854D01*
X-21655730Y-69305300D01*
X-21655726Y-69305300D01*
X-17978177Y-69305300D01*
X-17911138Y-69324985D01*
X-17865383Y-69377789D01*
X-17855439Y-69446947D01*
X-17884464Y-69510503D01*
X-17930725Y-69543861D01*
X-18003645Y-69574065D01*
X-18003648Y-69574066D01*
X-18062287Y-69619062D01*
X-18097846Y-69646348D01*
X-18097847Y-69646349D01*
X-18097848Y-69646350D01*
X-18097850Y-69646351D01*
X-18129420Y-69670576D01*
X-18129422Y-69670578D01*
X-18151176Y-69698928D01*
X-18156529Y-69705031D01*
X-18518253Y-70066755D01*
X-18579576Y-70100240D01*
X-18638027Y-70098849D01*
X-18764586Y-70064938D01*
X-18764596Y-70064936D01*
X-18999999Y-70044341D01*
X-19000001Y-70044341D01*
X-19235403Y-70064936D01*
X-19235413Y-70064938D01*
X-19463655Y-70126094D01*
X-19463659Y-70126096D01*
X-19463663Y-70126097D01*
X-19570745Y-70176031D01*
X-19677828Y-70225964D01*
X-19677830Y-70225965D01*
X-19871402Y-70361505D01*
X-20038494Y-70528597D01*
X-20154821Y-70694731D01*
X-20174035Y-70722171D01*
X-20273903Y-70936337D01*
X-20273904Y-70936342D01*
X-20273906Y-70936346D01*
X-20283333Y-70971532D01*
X-20298655Y-71028715D01*
X-20330748Y-71084302D01*
X-20516922Y-71270476D01*
X-20540507Y-71190156D01*
X-20618239Y-71069202D01*
X-20726900Y-70975048D01*
X-20857685Y-70915320D01*
X-20867464Y-70913913D01*
X-20238625Y-70285074D01*
X-20238626Y-70285072D01*
X-20322417Y-70226402D01*
X-20536507Y-70126570D01*
X-20536516Y-70126566D01*
X-20764673Y-70065432D01*
X-20764684Y-70065430D01*
X-20999998Y-70044843D01*
X-21000002Y-70044843D01*
X-21235315Y-70065430D01*
X-21235326Y-70065432D01*
X-21463483Y-70126566D01*
X-21463492Y-70126570D01*
X-21677576Y-70226399D01*
X-21677578Y-70226400D01*
X-21761372Y-70285073D01*
X-21761373Y-70285073D01*
X-21132532Y-70913913D01*
X-21142315Y-70915320D01*
X-21273100Y-70975048D01*
X-21381761Y-71069202D01*
X-21459493Y-71190156D01*
X-21483076Y-71270475D01*
X-22114925Y-70638625D01*
X-22114925Y-70638626D01*
X-22173599Y-70722421D01*
X-22173600Y-70722423D01*
X-22273429Y-70936507D01*
X-22273433Y-70936516D01*
X-22334567Y-71164673D01*
X-22334569Y-71164684D01*
X-22355157Y-71399998D01*
X-22355157Y-71400001D01*
X-22334569Y-71635315D01*
X-22334567Y-71635326D01*
X-22273433Y-71863483D01*
X-22273429Y-71863492D01*
X-22173600Y-72077578D01*
X-22173598Y-72077582D01*
X-22114925Y-72161373D01*
X-21483076Y-71529524D01*
X-21459493Y-71609844D01*
X-21381761Y-71730798D01*
X-21273100Y-71824952D01*
X-21142315Y-71884680D01*
X-21132533Y-71886086D01*
X-21761373Y-72514925D01*
X-21761373Y-72514926D01*
X-21677582Y-72573598D01*
X-21677578Y-72573600D01*
X-21463492Y-72673429D01*
X-21463483Y-72673433D01*
X-21235326Y-72734567D01*
X-21235315Y-72734569D01*
X-21000002Y-72755157D01*
X-20999998Y-72755157D01*
X-20764684Y-72734569D01*
X-20764673Y-72734567D01*
X-20536516Y-72673433D01*
X-20536507Y-72673429D01*
X-20322421Y-72573599D01*
X-20238625Y-72514925D01*
X-20867466Y-71886086D01*
X-20857685Y-71884680D01*
X-20726900Y-71824952D01*
X-20618239Y-71730798D01*
X-20540507Y-71609844D01*
X-20516922Y-71529522D01*
X-20330748Y-71715697D01*
X-20298655Y-71771282D01*
X-20273903Y-71863663D01*
X-20174035Y-72077830D01*
X-20038495Y-72271401D01*
X-19871401Y-72438495D01*
X-19677830Y-72574035D01*
X-19463663Y-72673903D01*
X-19235408Y-72735063D01*
X-19046188Y-72751618D01*
X-19000001Y-72755659D01*
X-19000000Y-72755659D01*
X-18999999Y-72755659D01*
X-18952918Y-72751539D01*
X-18764592Y-72735063D01*
X-18536337Y-72673903D01*
X-18322170Y-72574035D01*
X-18322167Y-72574033D01*
X-18322165Y-72574032D01*
X-18225384Y-72506264D01*
X-18128599Y-72438495D01*
X-18087680Y-72397577D01*
X-18026358Y-72364092D01*
X-17956666Y-72369076D01*
X-17912319Y-72397577D01*
X-17871401Y-72438495D01*
X-17677830Y-72574035D01*
X-17463663Y-72673903D01*
X-17235408Y-72735063D01*
X-17046188Y-72751618D01*
X-17000001Y-72755659D01*
X-17000000Y-72755659D01*
X-16999999Y-72755659D01*
X-16952918Y-72751539D01*
X-16764592Y-72735063D01*
X-16536337Y-72673903D01*
X-16322170Y-72574035D01*
X-16322167Y-72574033D01*
X-16322165Y-72574032D01*
X-16225384Y-72506264D01*
X-16128599Y-72438495D01*
X-15961505Y-72271401D01*
X-15934281Y-72232521D01*
X-15825967Y-72077834D01*
X-15825965Y-72077830D01*
X-15783866Y-71987548D01*
X-15726097Y-71863663D01*
X-15726096Y-71863661D01*
X-15725167Y-71861668D01*
X-15678995Y-71809229D01*
X-15611801Y-71790077D01*
X-15544920Y-71810293D01*
X-15525109Y-71826387D01*
X-10826012Y-76525484D01*
X-10792530Y-76586803D01*
X-10797514Y-76656495D01*
X-10839386Y-76712428D01*
X-10861291Y-76725543D01*
X-11077576Y-76826399D01*
X-11077578Y-76826400D01*
X-11161372Y-76885073D01*
X-11161373Y-76885073D01*
X-10532533Y-77513913D01*
X-10542315Y-77515320D01*
X-10673100Y-77575048D01*
X-10781761Y-77669202D01*
X-10859493Y-77790156D01*
X-10883076Y-77870475D01*
X-11514925Y-77238625D01*
X-11514925Y-77238626D01*
X-11573599Y-77322421D01*
X-11573600Y-77322423D01*
X-11673429Y-77536507D01*
X-11673433Y-77536516D01*
X-11734567Y-77764673D01*
X-11734569Y-77764684D01*
X-11755157Y-77999998D01*
X-11755157Y-78000001D01*
X-11734569Y-78235315D01*
X-11734567Y-78235326D01*
X-11673433Y-78463483D01*
X-11673429Y-78463492D01*
X-11573600Y-78677578D01*
X-11573598Y-78677582D01*
X-11514926Y-78761373D01*
X-11514925Y-78761373D01*
X-10883076Y-78129524D01*
X-10859493Y-78209844D01*
X-10781761Y-78330798D01*
X-10673100Y-78424952D01*
X-10542315Y-78484680D01*
X-10532533Y-78486086D01*
X-10715697Y-78669250D01*
X-10771284Y-78701344D01*
X-10863658Y-78726095D01*
X-10863660Y-78726096D01*
X-10863663Y-78726097D01*
X-10939312Y-78761373D01*
X-11077828Y-78825964D01*
X-11077830Y-78825965D01*
X-11271402Y-78961505D01*
X-11438494Y-79128597D01*
X-11438495Y-79128599D01*
X-11574035Y-79322171D01*
X-11673903Y-79536337D01*
X-11735063Y-79764592D01*
X-11755659Y-80000000D01*
X-11735063Y-80235408D01*
X-11673903Y-80463663D01*
X-11574035Y-80677830D01*
X-11438495Y-80871401D01*
X-11397576Y-80912319D01*
X-11364092Y-80973640D01*
X-11369076Y-81043331D01*
X-11397577Y-81087680D01*
X-11438494Y-81128597D01*
X-11438495Y-81128599D01*
X-11574035Y-81322171D01*
X-11673903Y-81536337D01*
X-11735063Y-81764592D01*
X-11755659Y-82000000D01*
X-11735063Y-82235408D01*
X-11673903Y-82463663D01*
X-11574035Y-82677830D01*
X-11438495Y-82871401D01*
X-11271401Y-83038495D01*
X-11077830Y-83174035D01*
X-10863663Y-83273903D01*
X-10635408Y-83335063D01*
X-10439234Y-83352226D01*
X-10400001Y-83355659D01*
X-10400000Y-83355659D01*
X-10399999Y-83355659D01*
X-10352918Y-83351539D01*
X-10164592Y-83335063D01*
X-9936337Y-83273903D01*
X-9722170Y-83174035D01*
X-9722167Y-83174033D01*
X-9722165Y-83174032D01*
X-9585678Y-83078462D01*
X-9528599Y-83038495D01*
X-9361505Y-82871401D01*
X-9334281Y-82832521D01*
X-9225967Y-82677834D01*
X-9225965Y-82677830D01*
X-9137336Y-82487764D01*
X-9126097Y-82463663D01*
X-9126096Y-82463659D01*
X-9126094Y-82463655D01*
X-9064938Y-82235413D01*
X-9064936Y-82235403D01*
X-9044341Y-82000000D01*
X-9044341Y-81999999D01*
X-9064936Y-81764596D01*
X-9064938Y-81764586D01*
X-9126094Y-81536344D01*
X-9126098Y-81536335D01*
X-9225964Y-81322171D01*
X-9225965Y-81322169D01*
X-9361500Y-81128604D01*
X-9361508Y-81128595D01*
X-9402424Y-81087678D01*
X-9435908Y-81026354D01*
X-9430922Y-80956663D01*
X-9402422Y-80912318D01*
X-9361506Y-80871402D01*
X-9361501Y-80871395D01*
X-9225967Y-80677834D01*
X-9225965Y-80677830D01*
X-9225965Y-80677829D01*
X-9126097Y-80463663D01*
X-9126096Y-80463659D01*
X-9126094Y-80463655D01*
X-9064938Y-80235413D01*
X-9064936Y-80235403D01*
X-9044341Y-80000000D01*
X-9044341Y-79999999D01*
X-9064936Y-79764596D01*
X-9064938Y-79764586D01*
X-9098849Y-79638027D01*
X-9097186Y-79568177D01*
X-9066755Y-79518253D01*
X-8586921Y-79038419D01*
X-8525598Y-79004934D01*
X-8499240Y-79002100D01*
X5059373Y-79002100D01*
X5067471Y-79002630D01*
X5084967Y-79004934D01*
X5102893Y-79007294D01*
X5102894Y-79007294D01*
X5102895Y-79007294D01*
X5138315Y-79002631D01*
X5140421Y-79002353D01*
X5140447Y-79002351D01*
X5142354Y-79002100D01*
X5260074Y-78986602D01*
X5406541Y-78925933D01*
X5500741Y-78853651D01*
X5500741Y-78853650D01*
X5508834Y-78847441D01*
X5508839Y-78847436D01*
X5511567Y-78845342D01*
X5532316Y-78829422D01*
X5554073Y-78801066D01*
X5559413Y-78794977D01*
X7386439Y-76967951D01*
X7447760Y-76934468D01*
X7517452Y-76939452D01*
X7573385Y-76981324D01*
X7593384Y-77021700D01*
X7625769Y-77135523D01*
X7625775Y-77135538D01*
X7724938Y-77334683D01*
X7724943Y-77334691D01*
X7859020Y-77512238D01*
X8023437Y-77662123D01*
X8023439Y-77662125D01*
X8212595Y-77779245D01*
X8212596Y-77779245D01*
X8212599Y-77779247D01*
X8420060Y-77859618D01*
X8638757Y-77900500D01*
X8638759Y-77900500D01*
X8861241Y-77900500D01*
X8861243Y-77900500D01*
X9079940Y-77859618D01*
X9229108Y-77801829D01*
X9298730Y-77795968D01*
X9360470Y-77828678D01*
X9394725Y-77889575D01*
X9397900Y-77917457D01*
X9397900Y-82082542D01*
X9378215Y-82149581D01*
X9325411Y-82195336D01*
X9256253Y-82205280D01*
X9229107Y-82198169D01*
X9103685Y-82149581D01*
X9079940Y-82140382D01*
X8861243Y-82099500D01*
X8638757Y-82099500D01*
X8420060Y-82140382D01*
X8288864Y-82191207D01*
X8212601Y-82220752D01*
X8212595Y-82220754D01*
X8023439Y-82337874D01*
X8023437Y-82337876D01*
X7859020Y-82487761D01*
X7724943Y-82665308D01*
X7724938Y-82665316D01*
X7625775Y-82864461D01*
X7625769Y-82864476D01*
X7564885Y-83078462D01*
X7564884Y-83078464D01*
X7544357Y-83299999D01*
X7544357Y-83300000D01*
X7564884Y-83521535D01*
X7564885Y-83521537D01*
X7625769Y-83735523D01*
X7625775Y-83735538D01*
X7724938Y-83934683D01*
X7724943Y-83934691D01*
X7859020Y-84112238D01*
X8023437Y-84262123D01*
X8023439Y-84262125D01*
X8212595Y-84379245D01*
X8212596Y-84379245D01*
X8212599Y-84379247D01*
X8420060Y-84459618D01*
X8638757Y-84500500D01*
X8638759Y-84500500D01*
X8861241Y-84500500D01*
X8861243Y-84500500D01*
X9079940Y-84459618D01*
X9227019Y-84402638D01*
X9296642Y-84396776D01*
X9358382Y-84429486D01*
X9392637Y-84490382D01*
X9394753Y-84534445D01*
X9392706Y-84549998D01*
X9397421Y-84585823D01*
X9397423Y-84585838D01*
X9413397Y-84707178D01*
X9413398Y-84707180D01*
X9474067Y-84853647D01*
X9499246Y-84886462D01*
X9546347Y-84947847D01*
X9546349Y-84947848D01*
X9570576Y-84979420D01*
X9570578Y-84979422D01*
X9598928Y-85001176D01*
X9605031Y-85006529D01*
X13488184Y-88889682D01*
X13521669Y-88951005D01*
X13519770Y-89011296D01*
X13514884Y-89028466D01*
X13494357Y-89249999D01*
X13494357Y-89250000D01*
X13514884Y-89471535D01*
X13514885Y-89471537D01*
X13575769Y-89685523D01*
X13575775Y-89685538D01*
X13674938Y-89884683D01*
X13674943Y-89884691D01*
X13809020Y-90062238D01*
X13948735Y-90189604D01*
X13971021Y-90209921D01*
X13973437Y-90212123D01*
X13973439Y-90212125D01*
X14162595Y-90329245D01*
X14162596Y-90329245D01*
X14162599Y-90329247D01*
X14370060Y-90409618D01*
X14588757Y-90450500D01*
X14588759Y-90450500D01*
X14811241Y-90450500D01*
X14811243Y-90450500D01*
X15029940Y-90409618D01*
X15237401Y-90329247D01*
X15426562Y-90212124D01*
X15590981Y-90062236D01*
X15725058Y-89884689D01*
X15824229Y-89685528D01*
X15885115Y-89471536D01*
X15905643Y-89250000D01*
X20094357Y-89250000D01*
X20114884Y-89471535D01*
X20114885Y-89471537D01*
X20175769Y-89685523D01*
X20175775Y-89685538D01*
X20274938Y-89884683D01*
X20274943Y-89884691D01*
X20409020Y-90062238D01*
X20548735Y-90189604D01*
X20571021Y-90209921D01*
X20573437Y-90212123D01*
X20573439Y-90212125D01*
X20762595Y-90329245D01*
X20762596Y-90329245D01*
X20762599Y-90329247D01*
X20970060Y-90409618D01*
X21188757Y-90450500D01*
X21188759Y-90450500D01*
X21411241Y-90450500D01*
X21411243Y-90450500D01*
X21629940Y-90409618D01*
X21837401Y-90329247D01*
X22026562Y-90212124D01*
X22190981Y-90062236D01*
X22325058Y-89884689D01*
X22424229Y-89685528D01*
X22485115Y-89471536D01*
X22505643Y-89250000D01*
X22485115Y-89028464D01*
X22424229Y-88814472D01*
X22424224Y-88814461D01*
X22325061Y-88615316D01*
X22325056Y-88615308D01*
X22190979Y-88437761D01*
X22026562Y-88287876D01*
X22026560Y-88287874D01*
X21837404Y-88170754D01*
X21837398Y-88170752D01*
X21629940Y-88090382D01*
X21411243Y-88049500D01*
X21188757Y-88049500D01*
X20970060Y-88090382D01*
X20838864Y-88141207D01*
X20762601Y-88170752D01*
X20762595Y-88170754D01*
X20573439Y-88287874D01*
X20573437Y-88287876D01*
X20409020Y-88437761D01*
X20274943Y-88615308D01*
X20274938Y-88615316D01*
X20175775Y-88814461D01*
X20175769Y-88814476D01*
X20114885Y-89028462D01*
X20114884Y-89028464D01*
X20094357Y-89249999D01*
X20094357Y-89250000D01*
X15905643Y-89250000D01*
X15885115Y-89028464D01*
X15824229Y-88814472D01*
X15824224Y-88814461D01*
X15725061Y-88615316D01*
X15725056Y-88615308D01*
X15590979Y-88437761D01*
X15426562Y-88287876D01*
X15426560Y-88287874D01*
X15237404Y-88170754D01*
X15237398Y-88170752D01*
X15029940Y-88090382D01*
X14811243Y-88049500D01*
X14588757Y-88049500D01*
X14452691Y-88074935D01*
X14383176Y-88067904D01*
X14342225Y-88040727D01*
X10638419Y-84336921D01*
X10604934Y-84275598D01*
X10602100Y-84249240D01*
X10602100Y-83300000D01*
X12044859Y-83300000D01*
X12065378Y-83521439D01*
X12126240Y-83735350D01*
X12225369Y-83934428D01*
X12241137Y-83955308D01*
X12241138Y-83955308D01*
X12852046Y-83344400D01*
X12864835Y-83425148D01*
X12922359Y-83538045D01*
X13011955Y-83627641D01*
X13124852Y-83685165D01*
X13205599Y-83697953D01*
X12596672Y-84306879D01*
X12596672Y-84306880D01*
X12712821Y-84378797D01*
X12712822Y-84378798D01*
X12920195Y-84459134D01*
X13138807Y-84500000D01*
X13361195Y-84500000D01*
X13366904Y-84499471D01*
X13367056Y-84501120D01*
X13428876Y-84507361D01*
X13483562Y-84550848D01*
X13506057Y-84616998D01*
X13505638Y-84633668D01*
X13494859Y-84749998D01*
X13494859Y-84750000D01*
X13515378Y-84971439D01*
X13576240Y-85185350D01*
X13675369Y-85384428D01*
X13691137Y-85405308D01*
X13691138Y-85405308D01*
X14302046Y-84794399D01*
X14314835Y-84875148D01*
X14372359Y-84988045D01*
X14461955Y-85077641D01*
X14574852Y-85135165D01*
X14655599Y-85147953D01*
X14046672Y-85756879D01*
X14046672Y-85756880D01*
X14162821Y-85828797D01*
X14162822Y-85828798D01*
X14370195Y-85909134D01*
X14588807Y-85950000D01*
X14811193Y-85950000D01*
X15029809Y-85909133D01*
X15237168Y-85828801D01*
X15237181Y-85828795D01*
X15353326Y-85756879D01*
X14744401Y-85147953D01*
X14825148Y-85135165D01*
X14938045Y-85077641D01*
X15027641Y-84988045D01*
X15085165Y-84875148D01*
X15097953Y-84794401D01*
X15708860Y-85405307D01*
X15724631Y-85384425D01*
X15724633Y-85384422D01*
X15823759Y-85185350D01*
X15884621Y-84971439D01*
X15905141Y-84750000D01*
X20094859Y-84750000D01*
X20115378Y-84971439D01*
X20176240Y-85185350D01*
X20275369Y-85384428D01*
X20291137Y-85405308D01*
X20291138Y-85405308D01*
X20902046Y-84794400D01*
X20914835Y-84875148D01*
X20972359Y-84988045D01*
X21061955Y-85077641D01*
X21174852Y-85135165D01*
X21255599Y-85147953D01*
X20646672Y-85756879D01*
X20646672Y-85756880D01*
X20762821Y-85828797D01*
X20762822Y-85828798D01*
X20970195Y-85909134D01*
X21188807Y-85950000D01*
X21411193Y-85950000D01*
X21629809Y-85909133D01*
X21837168Y-85828801D01*
X21837181Y-85828795D01*
X21953326Y-85756879D01*
X21344401Y-85147953D01*
X21425148Y-85135165D01*
X21538045Y-85077641D01*
X21627641Y-84988045D01*
X21685165Y-84875148D01*
X21697953Y-84794401D01*
X22308861Y-85405308D01*
X22324631Y-85384425D01*
X22324633Y-85384422D01*
X22423759Y-85185350D01*
X22484621Y-84971439D01*
X22505141Y-84750000D01*
X22494361Y-84633669D01*
X22507776Y-84565099D01*
X22556133Y-84514667D01*
X22624079Y-84498384D01*
X22633921Y-84499547D01*
X22638805Y-84500000D01*
X22861193Y-84500000D01*
X23079809Y-84459133D01*
X23287168Y-84378801D01*
X23287181Y-84378795D01*
X23403326Y-84306879D01*
X22794400Y-83697953D01*
X22875148Y-83685165D01*
X22988045Y-83627641D01*
X23077641Y-83538045D01*
X23135165Y-83425148D01*
X23147953Y-83344400D01*
X23758861Y-83955308D01*
X23774631Y-83934425D01*
X23774633Y-83934422D01*
X23873759Y-83735350D01*
X23934621Y-83521439D01*
X23955141Y-83300000D01*
X26044357Y-83300000D01*
X26064884Y-83521535D01*
X26064885Y-83521537D01*
X26125769Y-83735523D01*
X26125775Y-83735538D01*
X26224938Y-83934683D01*
X26224943Y-83934691D01*
X26359020Y-84112238D01*
X26523437Y-84262123D01*
X26523439Y-84262125D01*
X26712595Y-84379245D01*
X26712596Y-84379245D01*
X26712599Y-84379247D01*
X26920060Y-84459618D01*
X27138757Y-84500500D01*
X27138759Y-84500500D01*
X27361241Y-84500500D01*
X27361243Y-84500500D01*
X27579940Y-84459618D01*
X27787401Y-84379247D01*
X27976562Y-84262124D01*
X28137313Y-84115580D01*
X28140979Y-84112238D01*
X28275056Y-83934691D01*
X28275058Y-83934689D01*
X28374229Y-83735528D01*
X28435115Y-83521536D01*
X28455643Y-83300000D01*
X28435115Y-83078464D01*
X28374229Y-82864472D01*
X28275188Y-82665572D01*
X28275061Y-82665316D01*
X28275056Y-82665308D01*
X28140979Y-82487761D01*
X27976562Y-82337876D01*
X27976560Y-82337874D01*
X27787404Y-82220754D01*
X27787398Y-82220752D01*
X27579940Y-82140382D01*
X27361243Y-82099500D01*
X27138757Y-82099500D01*
X26920060Y-82140382D01*
X26788864Y-82191207D01*
X26712601Y-82220752D01*
X26712595Y-82220754D01*
X26523439Y-82337874D01*
X26523437Y-82337876D01*
X26359020Y-82487761D01*
X26224943Y-82665308D01*
X26224938Y-82665316D01*
X26125775Y-82864461D01*
X26125769Y-82864476D01*
X26064885Y-83078462D01*
X26064884Y-83078464D01*
X26044357Y-83299999D01*
X26044357Y-83300000D01*
X23955141Y-83300000D01*
X23955141Y-83299999D01*
X23934621Y-83078560D01*
X23873759Y-82864649D01*
X23774635Y-82665580D01*
X23774630Y-82665572D01*
X23758860Y-82644690D01*
X23147953Y-83255598D01*
X23135165Y-83174852D01*
X23077641Y-83061955D01*
X22988045Y-82972359D01*
X22875148Y-82914835D01*
X22794401Y-82902046D01*
X23403327Y-82293119D01*
X23287178Y-82221202D01*
X23287177Y-82221201D01*
X23079804Y-82140865D01*
X22861193Y-82100000D01*
X22638807Y-82100000D01*
X22420195Y-82140865D01*
X22212824Y-82221200D01*
X22212823Y-82221201D01*
X22096671Y-82293119D01*
X22705599Y-82902046D01*
X22624852Y-82914835D01*
X22511955Y-82972359D01*
X22422359Y-83061955D01*
X22364835Y-83174852D01*
X22352046Y-83255599D01*
X21741138Y-82644691D01*
X21741137Y-82644691D01*
X21725368Y-82665574D01*
X21626240Y-82864649D01*
X21565378Y-83078560D01*
X21544859Y-83299999D01*
X21544859Y-83300001D01*
X21555638Y-83416331D01*
X21542223Y-83484901D01*
X21493866Y-83535333D01*
X21425919Y-83551615D01*
X21416087Y-83550453D01*
X21411194Y-83550000D01*
X21188807Y-83550000D01*
X20970195Y-83590865D01*
X20762824Y-83671200D01*
X20762823Y-83671201D01*
X20646671Y-83743119D01*
X21255598Y-84352046D01*
X21174852Y-84364835D01*
X21061955Y-84422359D01*
X20972359Y-84511955D01*
X20914835Y-84624852D01*
X20902046Y-84705599D01*
X20291137Y-84094691D01*
X20275368Y-84115574D01*
X20176240Y-84314649D01*
X20115378Y-84528560D01*
X20094859Y-84749999D01*
X20094859Y-84750000D01*
X15905141Y-84750000D01*
X15905141Y-84749999D01*
X15884621Y-84528560D01*
X15823759Y-84314649D01*
X15724635Y-84115580D01*
X15724630Y-84115572D01*
X15708860Y-84094690D01*
X15097953Y-84705597D01*
X15085165Y-84624852D01*
X15027641Y-84511955D01*
X14938045Y-84422359D01*
X14825148Y-84364835D01*
X14744399Y-84352046D01*
X15353327Y-83743119D01*
X15237178Y-83671202D01*
X15237177Y-83671201D01*
X15029804Y-83590865D01*
X14811193Y-83550000D01*
X14588806Y-83550000D01*
X14583098Y-83550529D01*
X14582946Y-83548888D01*
X14521083Y-83542622D01*
X14466412Y-83499116D01*
X14443941Y-83432958D01*
X14444361Y-83416330D01*
X14455141Y-83299999D01*
X14434621Y-83078560D01*
X14373759Y-82864649D01*
X14274635Y-82665580D01*
X14274630Y-82665572D01*
X14258860Y-82644690D01*
X13647953Y-83255598D01*
X13635165Y-83174852D01*
X13577641Y-83061955D01*
X13488045Y-82972359D01*
X13375148Y-82914835D01*
X13294401Y-82902046D01*
X13903327Y-82293119D01*
X13787178Y-82221202D01*
X13787177Y-82221201D01*
X13579804Y-82140865D01*
X13361193Y-82100000D01*
X13138807Y-82100000D01*
X12920195Y-82140865D01*
X12712824Y-82221200D01*
X12712823Y-82221201D01*
X12596671Y-82293119D01*
X13205599Y-82902046D01*
X13124852Y-82914835D01*
X13011955Y-82972359D01*
X12922359Y-83061955D01*
X12864835Y-83174852D01*
X12852046Y-83255599D01*
X12241137Y-82644691D01*
X12225368Y-82665574D01*
X12126240Y-82864649D01*
X12065378Y-83078560D01*
X12044859Y-83299999D01*
X12044859Y-83300000D01*
X10602100Y-83300000D01*
X10602100Y-76700760D01*
X10602323Y-76700000D01*
X12044859Y-76700000D01*
X12065378Y-76921439D01*
X12126240Y-77135350D01*
X12225369Y-77334428D01*
X12241137Y-77355308D01*
X12241138Y-77355308D01*
X12852046Y-76744400D01*
X12864835Y-76825148D01*
X12922359Y-76938045D01*
X13011955Y-77027641D01*
X13124852Y-77085165D01*
X13205599Y-77097953D01*
X12596672Y-77706879D01*
X12596672Y-77706880D01*
X12712821Y-77778797D01*
X12712822Y-77778798D01*
X12920195Y-77859134D01*
X13138807Y-77900000D01*
X13361193Y-77900000D01*
X13579809Y-77859133D01*
X13787168Y-77778801D01*
X13787181Y-77778795D01*
X13903326Y-77706879D01*
X13294401Y-77097953D01*
X13375148Y-77085165D01*
X13488045Y-77027641D01*
X13577641Y-76938045D01*
X13635165Y-76825148D01*
X13647953Y-76744400D01*
X14258861Y-77355308D01*
X14274631Y-77334425D01*
X14274633Y-77334422D01*
X14373759Y-77135350D01*
X14434621Y-76921439D01*
X14455141Y-76700000D01*
X14444361Y-76583669D01*
X14457776Y-76515099D01*
X14506133Y-76464667D01*
X14574079Y-76448384D01*
X14583921Y-76449547D01*
X14588805Y-76450000D01*
X14811193Y-76450000D01*
X15029809Y-76409133D01*
X15237168Y-76328801D01*
X15237181Y-76328795D01*
X15353326Y-76256879D01*
X14744400Y-75647953D01*
X14825148Y-75635165D01*
X14938045Y-75577641D01*
X15027641Y-75488045D01*
X15085165Y-75375148D01*
X15097953Y-75294400D01*
X15708861Y-75905308D01*
X15724631Y-75884425D01*
X15724633Y-75884422D01*
X15823759Y-75685350D01*
X15884621Y-75471439D01*
X15905141Y-75250000D01*
X20094859Y-75250000D01*
X20115378Y-75471439D01*
X20176240Y-75685350D01*
X20275369Y-75884428D01*
X20291137Y-75905308D01*
X20291138Y-75905308D01*
X20902046Y-75294400D01*
X20914835Y-75375148D01*
X20972359Y-75488045D01*
X21061955Y-75577641D01*
X21174852Y-75635165D01*
X21255599Y-75647953D01*
X20646672Y-76256879D01*
X20646672Y-76256880D01*
X20762821Y-76328797D01*
X20762822Y-76328798D01*
X20970195Y-76409134D01*
X21188807Y-76450000D01*
X21411195Y-76450000D01*
X21416904Y-76449471D01*
X21417056Y-76451120D01*
X21478876Y-76457361D01*
X21533562Y-76500848D01*
X21556057Y-76566998D01*
X21555638Y-76583668D01*
X21544859Y-76699998D01*
X21544859Y-76700000D01*
X21565378Y-76921439D01*
X21626240Y-77135350D01*
X21725369Y-77334428D01*
X21741137Y-77355308D01*
X21741138Y-77355308D01*
X22352046Y-76744400D01*
X22364835Y-76825148D01*
X22422359Y-76938045D01*
X22511955Y-77027641D01*
X22624852Y-77085165D01*
X22705599Y-77097953D01*
X22096672Y-77706879D01*
X22096672Y-77706880D01*
X22212821Y-77778797D01*
X22212822Y-77778798D01*
X22420195Y-77859134D01*
X22638807Y-77900000D01*
X22861193Y-77900000D01*
X23079809Y-77859133D01*
X23287168Y-77778801D01*
X23287181Y-77778795D01*
X23403326Y-77706879D01*
X22794401Y-77097953D01*
X22875148Y-77085165D01*
X22988045Y-77027641D01*
X23077641Y-76938045D01*
X23135165Y-76825148D01*
X23147953Y-76744400D01*
X23758861Y-77355308D01*
X23774631Y-77334425D01*
X23774633Y-77334422D01*
X23873759Y-77135350D01*
X23934621Y-76921439D01*
X23955141Y-76700000D01*
X26044357Y-76700000D01*
X26064884Y-76921535D01*
X26064885Y-76921537D01*
X26125769Y-77135523D01*
X26125775Y-77135538D01*
X26224938Y-77334683D01*
X26224943Y-77334691D01*
X26359020Y-77512238D01*
X26523437Y-77662123D01*
X26523439Y-77662125D01*
X26712595Y-77779245D01*
X26712596Y-77779245D01*
X26712599Y-77779247D01*
X26920060Y-77859618D01*
X27138757Y-77900500D01*
X27138759Y-77900500D01*
X27361241Y-77900500D01*
X27361243Y-77900500D01*
X27579940Y-77859618D01*
X27787401Y-77779247D01*
X27976562Y-77662124D01*
X28140981Y-77512236D01*
X28275058Y-77334689D01*
X28374229Y-77135528D01*
X28435115Y-76921536D01*
X28455643Y-76700000D01*
X28449501Y-76633721D01*
X28435115Y-76478464D01*
X28435114Y-76478462D01*
X28430417Y-76461955D01*
X28374229Y-76264472D01*
X28370449Y-76256880D01*
X28275061Y-76065316D01*
X28275056Y-76065308D01*
X28140979Y-75887761D01*
X27976562Y-75737876D01*
X27976560Y-75737874D01*
X27787404Y-75620754D01*
X27787398Y-75620752D01*
X27579940Y-75540382D01*
X27361243Y-75499500D01*
X27138757Y-75499500D01*
X26920060Y-75540382D01*
X26823884Y-75577641D01*
X26712601Y-75620752D01*
X26712595Y-75620754D01*
X26523439Y-75737874D01*
X26523437Y-75737876D01*
X26359020Y-75887761D01*
X26224943Y-76065308D01*
X26224938Y-76065316D01*
X26125775Y-76264461D01*
X26125769Y-76264476D01*
X26064885Y-76478462D01*
X26064884Y-76478464D01*
X26044357Y-76699999D01*
X26044357Y-76700000D01*
X23955141Y-76700000D01*
X23955141Y-76699999D01*
X23934621Y-76478560D01*
X23873759Y-76264649D01*
X23774635Y-76065580D01*
X23774630Y-76065572D01*
X23758860Y-76044690D01*
X23147953Y-76655598D01*
X23135165Y-76574852D01*
X23077641Y-76461955D01*
X22988045Y-76372359D01*
X22875148Y-76314835D01*
X22794401Y-76302046D01*
X23403327Y-75693119D01*
X23287178Y-75621202D01*
X23287177Y-75621201D01*
X23079804Y-75540865D01*
X22861193Y-75500000D01*
X22638806Y-75500000D01*
X22633098Y-75500529D01*
X22632946Y-75498888D01*
X22571083Y-75492622D01*
X22516412Y-75449116D01*
X22493941Y-75382958D01*
X22494361Y-75366330D01*
X22505141Y-75249999D01*
X22484621Y-75028560D01*
X22423759Y-74814649D01*
X22324635Y-74615580D01*
X22324630Y-74615572D01*
X22308860Y-74594690D01*
X21697953Y-75205598D01*
X21685165Y-75124852D01*
X21627641Y-75011955D01*
X21538045Y-74922359D01*
X21425148Y-74864835D01*
X21344401Y-74852046D01*
X21953327Y-74243119D01*
X21837178Y-74171202D01*
X21837177Y-74171201D01*
X21629804Y-74090865D01*
X21411193Y-74050000D01*
X21188807Y-74050000D01*
X20970195Y-74090865D01*
X20762824Y-74171200D01*
X20762823Y-74171201D01*
X20646671Y-74243119D01*
X21255599Y-74852046D01*
X21174852Y-74864835D01*
X21061955Y-74922359D01*
X20972359Y-75011955D01*
X20914835Y-75124852D01*
X20902046Y-75205599D01*
X20291138Y-74594691D01*
X20291137Y-74594691D01*
X20275368Y-74615574D01*
X20176240Y-74814649D01*
X20115378Y-75028560D01*
X20094859Y-75249999D01*
X20094859Y-75250000D01*
X15905141Y-75250000D01*
X15905141Y-75249999D01*
X15884621Y-75028560D01*
X15823759Y-74814649D01*
X15724635Y-74615580D01*
X15724630Y-74615572D01*
X15708860Y-74594690D01*
X15097953Y-75205598D01*
X15085165Y-75124852D01*
X15027641Y-75011955D01*
X14938045Y-74922359D01*
X14825148Y-74864835D01*
X14744401Y-74852046D01*
X15353327Y-74243119D01*
X15237178Y-74171202D01*
X15237177Y-74171201D01*
X15029804Y-74090865D01*
X14811193Y-74050000D01*
X14588807Y-74050000D01*
X14370195Y-74090865D01*
X14162824Y-74171200D01*
X14162823Y-74171201D01*
X14046671Y-74243119D01*
X14655599Y-74852046D01*
X14574852Y-74864835D01*
X14461955Y-74922359D01*
X14372359Y-75011955D01*
X14314835Y-75124852D01*
X14302046Y-75205599D01*
X13691138Y-74594691D01*
X13691137Y-74594691D01*
X13675368Y-74615574D01*
X13576240Y-74814649D01*
X13515378Y-75028560D01*
X13494859Y-75249999D01*
X13494859Y-75250001D01*
X13505638Y-75366331D01*
X13492223Y-75434901D01*
X13443866Y-75485333D01*
X13375919Y-75501615D01*
X13366087Y-75500453D01*
X13361194Y-75500000D01*
X13138807Y-75500000D01*
X12920195Y-75540865D01*
X12712824Y-75621200D01*
X12712823Y-75621201D01*
X12596671Y-75693119D01*
X13205598Y-76302046D01*
X13124852Y-76314835D01*
X13011955Y-76372359D01*
X12922359Y-76461955D01*
X12864835Y-76574852D01*
X12852046Y-76655599D01*
X12241137Y-76044691D01*
X12225368Y-76065574D01*
X12126240Y-76264649D01*
X12065378Y-76478560D01*
X12044859Y-76699999D01*
X12044859Y-76700000D01*
X10602323Y-76700000D01*
X10621785Y-76633721D01*
X10638419Y-76613079D01*
X13613079Y-73638419D01*
X13674402Y-73604934D01*
X13700760Y-73602100D01*
X22411871Y-73602100D01*
X22478910Y-73621785D01*
X22488849Y-73629794D01*
X22489283Y-73629252D01*
X22494731Y-73633597D01*
X22648374Y-73730138D01*
X22648377Y-73730140D01*
X22648381Y-73730141D01*
X22648382Y-73730142D01*
X22819670Y-73790078D01*
X22819675Y-73790079D01*
X22999996Y-73810396D01*
X23000000Y-73810396D01*
X23000004Y-73810396D01*
X23180324Y-73790079D01*
X23180327Y-73790078D01*
X23180330Y-73790078D01*
X23351618Y-73730142D01*
X23351620Y-73730140D01*
X23351622Y-73730140D01*
X23351625Y-73730138D01*
X23505268Y-73633597D01*
X23505269Y-73633596D01*
X23505274Y-73633593D01*
X23633593Y-73505274D01*
X23692908Y-73410875D01*
X23730138Y-73351625D01*
X23730141Y-73351619D01*
X23730142Y-73351618D01*
X23767828Y-73243915D01*
X23808550Y-73187140D01*
X23843914Y-73167828D01*
X23951618Y-73130142D01*
X23951621Y-73130139D01*
X23951625Y-73130138D01*
X24105268Y-73033597D01*
X24105269Y-73033596D01*
X24105274Y-73033593D01*
X24233593Y-72905274D01*
X24327603Y-72755659D01*
X24330138Y-72751625D01*
X24330141Y-72751619D01*
X24330142Y-72751618D01*
X24367828Y-72643915D01*
X24408550Y-72587140D01*
X24443914Y-72567828D01*
X24551618Y-72530142D01*
X24551621Y-72530139D01*
X24551625Y-72530138D01*
X24705268Y-72433597D01*
X24705269Y-72433596D01*
X24705274Y-72433593D01*
X24833593Y-72305274D01*
X24834162Y-72304369D01*
X24930138Y-72151625D01*
X24930141Y-72151619D01*
X24930142Y-72151618D01*
X24967828Y-72043915D01*
X25008550Y-71987140D01*
X25043914Y-71967828D01*
X25151618Y-71930142D01*
X25151621Y-71930139D01*
X25151625Y-71930138D01*
X25305268Y-71833597D01*
X25305269Y-71833595D01*
X25305274Y-71833593D01*
X25305277Y-71833589D01*
X25310717Y-71829252D01*
X25312694Y-71831731D01*
X25361771Y-71804934D01*
X25388129Y-71802100D01*
X25546742Y-71802100D01*
X25554840Y-71802630D01*
X25572336Y-71804934D01*
X25590262Y-71807294D01*
X25590263Y-71807294D01*
X25590264Y-71807294D01*
X25625684Y-71802631D01*
X25627790Y-71802353D01*
X25627816Y-71802351D01*
X25629723Y-71802100D01*
X25747443Y-71786602D01*
X25893910Y-71725933D01*
X25959978Y-71675237D01*
X25988110Y-71653651D01*
X25988110Y-71653650D01*
X25996203Y-71647441D01*
X25996208Y-71647436D01*
X25998936Y-71645342D01*
X26019685Y-71629422D01*
X26041442Y-71601066D01*
X26046782Y-71594977D01*
X26353777Y-71287982D01*
X26359868Y-71282640D01*
X26388222Y-71260885D01*
X26412448Y-71229312D01*
X26412451Y-71229310D01*
X26484733Y-71135110D01*
X26545402Y-70988643D01*
X26552288Y-70936337D01*
X26560900Y-70870923D01*
X26560900Y-70870917D01*
X26566094Y-70831463D01*
X26561430Y-70796040D01*
X26560900Y-70787942D01*
X26560900Y-70412064D01*
X26561431Y-70403962D01*
X26566095Y-70368536D01*
X26566095Y-70368535D01*
X26545402Y-70211358D01*
X26545402Y-70211357D01*
X26499376Y-70100240D01*
X26484733Y-70064889D01*
X26411761Y-69969790D01*
X26411746Y-69969772D01*
X26388222Y-69939115D01*
X26388220Y-69939114D01*
X26388220Y-69939113D01*
X26375361Y-69929246D01*
X26359868Y-69917358D01*
X26353778Y-69912017D01*
X25246780Y-68805019D01*
X25241436Y-68798924D01*
X25234988Y-68790522D01*
X25219685Y-68770578D01*
X25219682Y-68770576D01*
X25219681Y-68770574D01*
X25188113Y-68746351D01*
X25167367Y-68730432D01*
X25093910Y-68674067D01*
X25093906Y-68674065D01*
X25093907Y-68674065D01*
X24947445Y-68613398D01*
X24945443Y-68613000D01*
X24943410Y-68612867D01*
X24874809Y-68603835D01*
X24826101Y-68597423D01*
X24826086Y-68597421D01*
X24798581Y-68593801D01*
X24790263Y-68592706D01*
X24790262Y-68592706D01*
X24790261Y-68592706D01*
X24754843Y-68597369D01*
X24746742Y-68597900D01*
X13843520Y-68597900D01*
X13835421Y-68597369D01*
X13813687Y-68594507D01*
X13800001Y-68592706D01*
X13799996Y-68592706D01*
X13763732Y-68597480D01*
X13763717Y-68597482D01*
X13760542Y-68597900D01*
X13760540Y-68597900D01*
X13732502Y-68601591D01*
X13642822Y-68613397D01*
X13539251Y-68656297D01*
X13496352Y-68674066D01*
X13403786Y-68745096D01*
X13370577Y-68770578D01*
X13348821Y-68798929D01*
X13343470Y-68805030D01*
X4742521Y-77405981D01*
X4681198Y-77439466D01*
X4654840Y-77442300D01*
X-8154840Y-77442300D01*
X-8221879Y-77422615D01*
X-8242521Y-77405981D01*
X-14297758Y-71350743D01*
X-2000500Y-71350743D01*
X-1985074Y-71502439D01*
X-1939581Y-71647436D01*
X-1924159Y-71696588D01*
X-1825409Y-71874502D01*
X-1692866Y-72028895D01*
X-1531958Y-72153448D01*
X-1349271Y-72243060D01*
X-1152285Y-72294063D01*
X-949064Y-72304369D01*
X-747929Y-72273556D01*
X-557113Y-72202886D01*
X-384429Y-72095252D01*
X-236947Y-71955059D01*
X-130854Y-71802631D01*
X-120704Y-71788048D01*
X-116786Y-71778918D01*
X-112559Y-71769068D01*
X-68036Y-71715225D01*
X-1468Y-71694000D01*
X66007Y-71712134D01*
X109810Y-71757789D01*
X122648Y-71780918D01*
X174589Y-71874499D01*
X174592Y-71874503D01*
X174592Y-71874504D01*
X307132Y-72028893D01*
X307134Y-72028895D01*
X468037Y-72153445D01*
X468038Y-72153445D01*
X468042Y-72153448D01*
X650729Y-72243060D01*
X847715Y-72294063D01*
X1050936Y-72304369D01*
X1252071Y-72273556D01*
X1442887Y-72202886D01*
X1615571Y-72095252D01*
X1763053Y-71955059D01*
X1879295Y-71788049D01*
X1959540Y-71601058D01*
X2000500Y-71401741D01*
X2000500Y-70649258D01*
X1992075Y-70566403D01*
X1985074Y-70497560D01*
X1924162Y-70303420D01*
X1924160Y-70303416D01*
X1924159Y-70303412D01*
X1825409Y-70125498D01*
X1825408Y-70125497D01*
X1825407Y-70125495D01*
X1692867Y-69971106D01*
X1692865Y-69971104D01*
X1531962Y-69846554D01*
X1531959Y-69846553D01*
X1531958Y-69846552D01*
X1349271Y-69756940D01*
X1152285Y-69705937D01*
X1152287Y-69705937D01*
X1013978Y-69698923D01*
X949064Y-69695631D01*
X949063Y-69695631D01*
X949061Y-69695631D01*
X747936Y-69726442D01*
X747924Y-69726445D01*
X557118Y-69797111D01*
X557111Y-69797115D01*
X384432Y-69904745D01*
X384427Y-69904749D01*
X236949Y-70044938D01*
X236947Y-70044940D01*
X236947Y-70044941D01*
X223029Y-70064938D01*
X120703Y-70211952D01*
X112560Y-70230931D01*
X68034Y-70284775D01*
X1466Y-70305999D01*
X-66009Y-70287864D01*
X-109810Y-70242210D01*
X-174591Y-70125496D01*
X-174592Y-70125495D01*
X-307132Y-69971106D01*
X-307134Y-69971104D01*
X-468037Y-69846554D01*
X-468040Y-69846553D01*
X-650728Y-69756940D01*
X-847715Y-69705937D01*
X-847712Y-69705937D01*
X-1050936Y-69695631D01*
X-1050938Y-69695631D01*
X-1252063Y-69726442D01*
X-1252075Y-69726445D01*
X-1442881Y-69797111D01*
X-1442884Y-69797113D01*
X-1442887Y-69797114D01*
X-1516513Y-69843005D01*
X-1615567Y-69904745D01*
X-1615569Y-69904747D01*
X-1615571Y-69904748D01*
X-1763053Y-70044941D01*
X-1819865Y-70126566D01*
X-1878882Y-70211358D01*
X-1879295Y-70211951D01*
X-1959540Y-70398942D01*
X-1966501Y-70432817D01*
X-2000500Y-70598258D01*
X-2000500Y-71350743D01*
X-14297758Y-71350743D01*
X-15943475Y-69705026D01*
X-15948827Y-69698923D01*
X-15970577Y-69670578D01*
X-16005561Y-69643734D01*
X-16005583Y-69643715D01*
X-16096356Y-69574065D01*
X-16169276Y-69543861D01*
X-16223679Y-69500020D01*
X-16245744Y-69433726D01*
X-16228465Y-69366027D01*
X-16177328Y-69318416D01*
X-16121823Y-69305300D01*
X-12344274Y-69305300D01*
X-12344270Y-69305300D01*
X-12177578Y-69289854D01*
X-11962730Y-69228724D01*
X-11962723Y-69228720D01*
X-11962719Y-69228719D01*
X-11865266Y-69180192D01*
X-11762773Y-69129157D01*
X-11584516Y-68994544D01*
X-11584513Y-68994541D01*
X-11584509Y-68994537D01*
X-11434029Y-68829468D01*
X-11434027Y-68829466D01*
X-11316438Y-68639553D01*
X-11316435Y-68639547D01*
X-11262376Y-68500003D01*
X-9310396Y-68500003D01*
X-9292786Y-68656297D01*
X-9290078Y-68680330D01*
X-9230142Y-68851618D01*
X-9230140Y-68851620D01*
X-9230140Y-68851622D01*
X-9230138Y-68851625D01*
X-9133593Y-69005274D01*
X-9005274Y-69133593D01*
X-9005269Y-69133596D01*
X-9005268Y-69133597D01*
X-8851625Y-69230138D01*
X-8851622Y-69230140D01*
X-8851620Y-69230140D01*
X-8851618Y-69230142D01*
X-8680330Y-69290078D01*
X-8680327Y-69290078D01*
X-8680324Y-69290079D01*
X-8612779Y-69297688D01*
X-8545233Y-69305299D01*
X-8545232Y-69305300D01*
X-8545229Y-69305300D01*
X8545232Y-69305300D01*
X8545233Y-69305299D01*
X8612779Y-69297688D01*
X8680324Y-69290079D01*
X8680327Y-69290078D01*
X8680330Y-69290078D01*
X8851618Y-69230142D01*
X8851620Y-69230140D01*
X8851622Y-69230140D01*
X8851625Y-69230138D01*
X9005268Y-69133597D01*
X9005269Y-69133596D01*
X9005274Y-69133593D01*
X9133593Y-69005274D01*
X9230138Y-68851625D01*
X9230140Y-68851622D01*
X9230140Y-68851620D01*
X9230142Y-68851618D01*
X9290078Y-68680330D01*
X9292786Y-68656297D01*
X9310396Y-68500003D01*
X9310396Y-68499996D01*
X9290079Y-68319675D01*
X9290078Y-68319670D01*
X9290078Y-68319669D01*
X9230142Y-68148382D01*
X9230141Y-68148381D01*
X9230140Y-68148377D01*
X9230138Y-68148374D01*
X9133597Y-67994731D01*
X9133592Y-67994725D01*
X9005274Y-67866407D01*
X9005268Y-67866402D01*
X8851625Y-67769861D01*
X8851622Y-67769859D01*
X8680329Y-67709921D01*
X8680324Y-67709920D01*
X8545235Y-67694700D01*
X8545229Y-67694700D01*
X-8545229Y-67694700D01*
X-8545235Y-67694700D01*
X-8680324Y-67709920D01*
X-8680329Y-67709921D01*
X-8851622Y-67769859D01*
X-8851625Y-67769861D01*
X-9005268Y-67866402D01*
X-9005274Y-67866407D01*
X-9133592Y-67994725D01*
X-9133597Y-67994731D01*
X-9230138Y-68148374D01*
X-9230140Y-68148377D01*
X-9230141Y-68148381D01*
X-9230142Y-68148382D01*
X-9290078Y-68319669D01*
X-9290078Y-68319670D01*
X-9290079Y-68319675D01*
X-9310396Y-68499996D01*
X-9310396Y-68500003D01*
X-11262376Y-68500003D01*
X-11235746Y-68431261D01*
X-11235745Y-68431259D01*
X-11194700Y-68211688D01*
X-11194700Y-67988312D01*
X-11235745Y-67768741D01*
X-11258531Y-67709922D01*
X-11316435Y-67560452D01*
X-11316438Y-67560446D01*
X-11434027Y-67370533D01*
X-11434029Y-67370531D01*
X-11584509Y-67205462D01*
X-11584513Y-67205458D01*
X-11762772Y-67070843D01*
X-11962719Y-66971280D01*
X-11962732Y-66971275D01*
X-12177579Y-66910145D01*
X-12177578Y-66910145D01*
X-12299196Y-66898876D01*
X-12344270Y-66894700D01*
X-21655730Y-66894700D01*
X-21704071Y-66899179D01*
X-21822421Y-66910145D01*
X-22037267Y-66971275D01*
X-22037280Y-66971280D01*
X-22237226Y-67070843D01*
X-22237227Y-67070843D01*
X-22415484Y-67205456D01*
X-22415485Y-67205457D01*
X-22415486Y-67205458D01*
X-22415490Y-67205462D01*
X-22544472Y-67346949D01*
X-22565971Y-67370532D01*
X-22683563Y-67560450D01*
X-22764255Y-67768741D01*
X-22805300Y-67988312D01*
X-22805300Y-68211688D01*
X-29694700Y-68211688D01*
X-29694700Y-52500003D01*
X10689604Y-52500003D01*
X10709920Y-52680324D01*
X10709921Y-52680329D01*
X10769859Y-52851622D01*
X10769861Y-52851625D01*
X10866402Y-53005268D01*
X10866407Y-53005274D01*
X10994725Y-53133592D01*
X10994731Y-53133597D01*
X11148374Y-53230138D01*
X11148377Y-53230140D01*
X11148381Y-53230141D01*
X11148382Y-53230142D01*
X11319670Y-53290077D01*
X11319670Y-53290078D01*
X11319675Y-53290079D01*
X11499996Y-53310396D01*
X11500000Y-53310396D01*
X11500004Y-53310396D01*
X11680324Y-53290079D01*
X11680326Y-53290078D01*
X11680330Y-53290078D01*
X11851618Y-53230142D01*
X11934028Y-53178359D01*
X12001262Y-53159359D01*
X12065971Y-53178359D01*
X12148382Y-53230142D01*
X12319670Y-53290078D01*
X12319671Y-53290078D01*
X12319675Y-53290079D01*
X12499996Y-53310396D01*
X12500000Y-53310396D01*
X12500004Y-53310396D01*
X12680324Y-53290079D01*
X12680327Y-53290078D01*
X12680330Y-53290078D01*
X12851618Y-53230142D01*
X12851620Y-53230140D01*
X12851622Y-53230140D01*
X12851625Y-53230138D01*
X13005268Y-53133597D01*
X13005269Y-53133596D01*
X13005274Y-53133593D01*
X13133593Y-53005274D01*
X13230138Y-52851625D01*
X13230140Y-52851622D01*
X13230140Y-52851620D01*
X13230142Y-52851618D01*
X13290078Y-52680330D01*
X13310396Y-52500000D01*
X13290078Y-52319670D01*
X13230142Y-52148382D01*
X13230141Y-52148381D01*
X13230140Y-52148377D01*
X13230138Y-52148374D01*
X13133597Y-51994731D01*
X13129252Y-51989283D01*
X13131731Y-51987305D01*
X13104934Y-51938229D01*
X13102100Y-51911871D01*
X13102100Y-51088128D01*
X13121785Y-51021089D01*
X13129820Y-51011169D01*
X13129252Y-51010717D01*
X13133589Y-51005277D01*
X13133593Y-51005274D01*
X13230138Y-50851625D01*
X13230140Y-50851622D01*
X13230140Y-50851620D01*
X13230142Y-50851618D01*
X13290078Y-50680330D01*
X13310396Y-50500000D01*
X13290078Y-50319670D01*
X13230142Y-50148382D01*
X13230141Y-50148381D01*
X13230140Y-50148377D01*
X13230138Y-50148374D01*
X13133597Y-49994731D01*
X13133592Y-49994725D01*
X13005274Y-49866407D01*
X13005268Y-49866402D01*
X12851625Y-49769861D01*
X12851622Y-49769859D01*
X12680329Y-49709921D01*
X12680324Y-49709920D01*
X12500004Y-49689604D01*
X12499996Y-49689604D01*
X12319675Y-49709920D01*
X12319670Y-49709921D01*
X12148377Y-49769859D01*
X12148376Y-49769860D01*
X12065970Y-49821639D01*
X11998733Y-49840639D01*
X11934027Y-49821639D01*
X11851617Y-49769857D01*
X11680332Y-49709922D01*
X11680324Y-49709920D01*
X11500004Y-49689604D01*
X11499996Y-49689604D01*
X11319675Y-49709920D01*
X11319670Y-49709921D01*
X11148377Y-49769859D01*
X11148374Y-49769861D01*
X10994731Y-49866402D01*
X10994725Y-49866407D01*
X10866407Y-49994725D01*
X10866402Y-49994731D01*
X10769861Y-50148374D01*
X10769859Y-50148377D01*
X10709921Y-50319670D01*
X10709920Y-50319675D01*
X10689604Y-50499996D01*
X10689604Y-50500003D01*
X10709920Y-50680324D01*
X10709921Y-50680329D01*
X10769859Y-50851622D01*
X10769861Y-50851625D01*
X10866402Y-51005268D01*
X10870748Y-51010717D01*
X10868184Y-51012761D01*
X10894929Y-51061149D01*
X10897900Y-51088128D01*
X10897900Y-51911871D01*
X10878215Y-51978910D01*
X10870205Y-51988849D01*
X10870748Y-51989283D01*
X10866402Y-51994731D01*
X10769861Y-52148374D01*
X10769859Y-52148377D01*
X10709921Y-52319670D01*
X10709920Y-52319675D01*
X10689604Y-52499996D01*
X10689604Y-52500003D01*
X-29694700Y-52500003D01*
X-29694700Y-45300003D01*
X5639604Y-45300003D01*
X5659920Y-45480324D01*
X5659921Y-45480329D01*
X5719859Y-45651622D01*
X5719861Y-45651625D01*
X5816402Y-45805268D01*
X5816407Y-45805274D01*
X5944725Y-45933592D01*
X5944731Y-45933597D01*
X6098374Y-46030138D01*
X6098377Y-46030140D01*
X6098381Y-46030141D01*
X6098382Y-46030142D01*
X6269670Y-46090077D01*
X6269670Y-46090078D01*
X6269675Y-46090079D01*
X6449996Y-46110396D01*
X6450000Y-46110396D01*
X6450004Y-46110396D01*
X6630324Y-46090079D01*
X6630327Y-46090078D01*
X6630330Y-46090078D01*
X6801618Y-46030142D01*
X6801620Y-46030140D01*
X6801622Y-46030140D01*
X6801625Y-46030138D01*
X6955268Y-45933597D01*
X6955269Y-45933596D01*
X6955274Y-45933593D01*
X7083593Y-45805274D01*
X7180140Y-45651622D01*
X7180141Y-45651619D01*
X7180142Y-45651618D01*
X7240078Y-45480330D01*
X7250318Y-45389435D01*
X7277383Y-45325024D01*
X7285847Y-45315649D01*
X7815641Y-44785855D01*
X7876962Y-44752372D01*
X7889416Y-44750320D01*
X7980330Y-44740078D01*
X8151618Y-44680142D01*
X8151621Y-44680139D01*
X8151625Y-44680138D01*
X8305268Y-44583597D01*
X8305269Y-44583596D01*
X8305274Y-44583593D01*
X8433593Y-44455274D01*
X8530138Y-44301625D01*
X8530140Y-44301622D01*
X8530140Y-44301620D01*
X8530142Y-44301618D01*
X8590078Y-44130330D01*
X8610396Y-43950000D01*
X8592377Y-43790078D01*
X8590079Y-43769675D01*
X8590078Y-43769670D01*
X8530140Y-43598377D01*
X8530138Y-43598374D01*
X8433597Y-43444731D01*
X8433592Y-43444725D01*
X8305274Y-43316407D01*
X8305268Y-43316402D01*
X8151625Y-43219861D01*
X8151622Y-43219859D01*
X7980329Y-43159921D01*
X7980324Y-43159920D01*
X7800004Y-43139604D01*
X7799996Y-43139604D01*
X7619675Y-43159920D01*
X7619670Y-43159921D01*
X7448377Y-43219859D01*
X7448374Y-43219861D01*
X7294731Y-43316402D01*
X7294725Y-43316407D01*
X7166407Y-43444725D01*
X7166402Y-43444731D01*
X7069861Y-43598374D01*
X7069859Y-43598377D01*
X7009921Y-43769670D01*
X7009920Y-43769674D01*
X6999680Y-43860562D01*
X6972613Y-43924976D01*
X6964141Y-43934359D01*
X6434359Y-44464141D01*
X6373036Y-44497626D01*
X6360562Y-44499680D01*
X6269674Y-44509920D01*
X6269670Y-44509921D01*
X6098377Y-44569859D01*
X6098374Y-44569861D01*
X5944731Y-44666402D01*
X5944725Y-44666407D01*
X5816407Y-44794725D01*
X5816402Y-44794731D01*
X5719861Y-44948374D01*
X5719859Y-44948377D01*
X5659921Y-45119670D01*
X5659920Y-45119675D01*
X5639604Y-45299996D01*
X5639604Y-45300003D01*
X-29694700Y-45300003D01*
X-29694700Y-43000003D01*
X3289604Y-43000003D01*
X3309920Y-43180324D01*
X3309921Y-43180329D01*
X3369859Y-43351622D01*
X3369861Y-43351625D01*
X3466402Y-43505268D01*
X3466407Y-43505274D01*
X3594725Y-43633592D01*
X3594731Y-43633597D01*
X3748374Y-43730138D01*
X3748377Y-43730140D01*
X3748381Y-43730141D01*
X3748382Y-43730142D01*
X3919670Y-43790077D01*
X3919670Y-43790078D01*
X3919675Y-43790079D01*
X4099996Y-43810396D01*
X4100000Y-43810396D01*
X4100004Y-43810396D01*
X4280324Y-43790079D01*
X4280327Y-43790078D01*
X4280330Y-43790078D01*
X4451618Y-43730142D01*
X4451620Y-43730140D01*
X4451622Y-43730140D01*
X4451625Y-43730138D01*
X4605268Y-43633597D01*
X4605269Y-43633596D01*
X4605274Y-43633593D01*
X4733593Y-43505274D01*
X4830138Y-43351625D01*
X4830140Y-43351622D01*
X4830140Y-43351620D01*
X4830142Y-43351618D01*
X4890078Y-43180330D01*
X4890079Y-43180324D01*
X4910396Y-43000003D01*
X4910396Y-42999996D01*
X4890079Y-42819675D01*
X4890078Y-42819670D01*
X4830140Y-42648377D01*
X4830138Y-42648374D01*
X4733597Y-42494732D01*
X4733595Y-42494730D01*
X4733593Y-42494726D01*
X4733589Y-42494722D01*
X4729252Y-42489283D01*
X4731646Y-42487373D01*
X4704803Y-42437619D01*
X4702100Y-42411870D01*
X4702100Y-41338129D01*
X4721785Y-41271090D01*
X4729794Y-41261150D01*
X4729252Y-41260717D01*
X4733589Y-41255277D01*
X4733593Y-41255274D01*
X4830138Y-41101625D01*
X4830140Y-41101622D01*
X4830140Y-41101620D01*
X4830142Y-41101618D01*
X4890078Y-40930330D01*
X4910396Y-40750000D01*
X4890078Y-40569670D01*
X4830142Y-40398382D01*
X4830141Y-40398381D01*
X4830140Y-40398377D01*
X4830138Y-40398374D01*
X4733597Y-40244731D01*
X4733592Y-40244725D01*
X4605274Y-40116407D01*
X4605268Y-40116402D01*
X4451625Y-40019861D01*
X4451622Y-40019859D01*
X4280329Y-39959921D01*
X4280324Y-39959920D01*
X4100004Y-39939604D01*
X4099996Y-39939604D01*
X3919675Y-39959920D01*
X3919670Y-39959921D01*
X3748377Y-40019859D01*
X3748374Y-40019861D01*
X3594731Y-40116402D01*
X3594725Y-40116407D01*
X3466407Y-40244725D01*
X3466402Y-40244731D01*
X3369861Y-40398374D01*
X3369859Y-40398377D01*
X3309921Y-40569670D01*
X3309920Y-40569675D01*
X3289604Y-40749996D01*
X3289604Y-40750003D01*
X3309920Y-40930324D01*
X3309921Y-40930329D01*
X3369859Y-41101621D01*
X3466406Y-41255273D01*
X3470749Y-41260718D01*
X3468268Y-41262695D01*
X3495066Y-41311771D01*
X3497900Y-41338129D01*
X3497900Y-42411870D01*
X3478215Y-42478909D01*
X3470229Y-42488869D01*
X3470748Y-42489283D01*
X3466402Y-42494731D01*
X3369861Y-42648374D01*
X3369859Y-42648377D01*
X3309921Y-42819670D01*
X3309920Y-42819675D01*
X3289604Y-42999996D01*
X3289604Y-43000003D01*
X-29694700Y-43000003D01*
X-29694700Y-36250000D01*
X-23910396Y-36250000D01*
X-23890078Y-36430330D01*
X-23830142Y-36601618D01*
X-23830140Y-36601620D01*
X-23830140Y-36601622D01*
X-23830138Y-36601625D01*
X-23733593Y-36755274D01*
X-23605274Y-36883593D01*
X-23605269Y-36883596D01*
X-23605268Y-36883597D01*
X-23451625Y-36980138D01*
X-23451622Y-36980140D01*
X-23451620Y-36980140D01*
X-23451618Y-36980142D01*
X-23280330Y-37040078D01*
X-23280327Y-37040078D01*
X-23280324Y-37040079D01*
X-23100004Y-37060396D01*
X-23100000Y-37060396D01*
X-23099996Y-37060396D01*
X-22919675Y-37040079D01*
X-22919670Y-37040078D01*
X-22882155Y-37026951D01*
X-22748382Y-36980142D01*
X-22748379Y-36980140D01*
X-22748378Y-36980140D01*
X-22655702Y-36921907D01*
X-22589729Y-36902900D01*
X-21632480Y-36902900D01*
X-20426900Y-36902900D01*
X-20359861Y-36922585D01*
X-20314106Y-36975389D01*
X-20302900Y-37026900D01*
X-20302900Y-37864232D01*
X-20304671Y-37880279D01*
X-20304434Y-37880302D01*
X-20305166Y-37888062D01*
X-20305168Y-37888069D01*
X-20302900Y-37960245D01*
X-20302900Y-37991075D01*
X-20301977Y-37998377D01*
X-20301518Y-38004194D01*
X-20299987Y-38052948D01*
X-20294030Y-38073449D01*
X-20290089Y-38092476D01*
X-20287414Y-38113660D01*
X-20269463Y-38158997D01*
X-20267570Y-38164528D01*
X-20253965Y-38211359D01*
X-20243100Y-38229730D01*
X-20234543Y-38247196D01*
X-20226688Y-38267037D01*
X-20198016Y-38306497D01*
X-20194820Y-38311363D01*
X-20169992Y-38353348D01*
X-20154895Y-38368443D01*
X-20142272Y-38383224D01*
X-20129726Y-38400493D01*
X-20092138Y-38431587D01*
X-20087849Y-38435489D01*
X-19935517Y-38587821D01*
X-19902034Y-38649142D01*
X-19907018Y-38718834D01*
X-19948890Y-38774767D01*
X-20014354Y-38799184D01*
X-20023200Y-38799500D01*
X-21097870Y-38799500D01*
X-21097876Y-38799501D01*
X-21157483Y-38805908D01*
X-21292328Y-38856202D01*
X-21292335Y-38856206D01*
X-21407544Y-38942452D01*
X-21407547Y-38942455D01*
X-21493793Y-39057664D01*
X-21493797Y-39057671D01*
X-21528233Y-39150000D01*
X-21544091Y-39192517D01*
X-21550500Y-39252127D01*
X-21550499Y-41547872D01*
X-21544091Y-41607483D01*
X-21493796Y-41742331D01*
X-21407546Y-41857546D01*
X-21292331Y-41943796D01*
X-21157483Y-41994091D01*
X-21097873Y-42000500D01*
X-19202128Y-42000499D01*
X-19153757Y-41995299D01*
X-19142516Y-41994091D01*
X-19007671Y-41943797D01*
X-19007664Y-41943793D01*
X-18892455Y-41857547D01*
X-18892452Y-41857544D01*
X-18806206Y-41742335D01*
X-18806202Y-41742328D01*
X-18755908Y-41607482D01*
X-18749501Y-41547883D01*
X-18749500Y-41547881D01*
X-18749500Y-41547873D01*
X-18749500Y-39826900D01*
X-18729815Y-39759861D01*
X-18677011Y-39714106D01*
X-18625500Y-39702900D01*
X-18611139Y-39702900D01*
X-18591741Y-39704426D01*
X-18570671Y-39707764D01*
X-18522123Y-39703174D01*
X-18516287Y-39702900D01*
X-15685768Y-39702900D01*
X-15669720Y-39704671D01*
X-15669698Y-39704434D01*
X-15661938Y-39705166D01*
X-15661931Y-39705168D01*
X-15589755Y-39702900D01*
X-15558925Y-39702900D01*
X-15554867Y-39702387D01*
X-15551618Y-39701977D01*
X-15545791Y-39701518D01*
X-15497052Y-39699987D01*
X-15476549Y-39694030D01*
X-15457506Y-39690087D01*
X-15436340Y-39687414D01*
X-15420147Y-39681002D01*
X-15350571Y-39674624D01*
X-15288590Y-39706875D01*
X-15253885Y-39767516D01*
X-15250499Y-39796293D01*
X-15250499Y-41547872D01*
X-15244091Y-41607483D01*
X-15193796Y-41742331D01*
X-15107546Y-41857546D01*
X-14992331Y-41943796D01*
X-14857483Y-41994091D01*
X-14797873Y-42000500D01*
X-12902128Y-42000499D01*
X-12853757Y-41995299D01*
X-12842516Y-41994091D01*
X-12707671Y-41943797D01*
X-12707664Y-41943793D01*
X-12592455Y-41857547D01*
X-12592452Y-41857544D01*
X-12506206Y-41742335D01*
X-12506202Y-41742328D01*
X-12455908Y-41607482D01*
X-12449501Y-41547883D01*
X-12449500Y-41547881D01*
X-12449500Y-41547873D01*
X-12449500Y-40569670D01*
X-12449500Y-39252129D01*
X-12449501Y-39252123D01*
X-12455908Y-39192516D01*
X-12506202Y-39057671D01*
X-12506206Y-39057664D01*
X-12592452Y-38942455D01*
X-12592455Y-38942452D01*
X-12707664Y-38856206D01*
X-12707671Y-38856202D01*
X-12842517Y-38805908D01*
X-12842516Y-38805908D01*
X-12902116Y-38799501D01*
X-12902119Y-38799500D01*
X-12902127Y-38799500D01*
X-12902135Y-38799500D01*
X-14126798Y-38799500D01*
X-14193837Y-38779815D01*
X-14239592Y-38727011D01*
X-14249536Y-38657853D01*
X-14220511Y-38594297D01*
X-14214479Y-38587819D01*
X-13315879Y-37689219D01*
X-13254556Y-37655734D01*
X-13228198Y-37652900D01*
X-9349459Y-37652900D01*
X-9282420Y-37672585D01*
X-9277948Y-37677744D01*
X-9233646Y-37655072D01*
X-9210541Y-37652900D01*
X-8079459Y-37652900D01*
X-8012420Y-37672585D01*
X-8007948Y-37677744D01*
X-7963646Y-37655072D01*
X-7940541Y-37652900D01*
X-7621802Y-37652900D01*
X-7554763Y-37672585D01*
X-7534121Y-37689219D01*
X-7429219Y-37794121D01*
X-7395734Y-37855444D01*
X-7392900Y-37881802D01*
X-7392900Y-37888510D01*
X-7412585Y-37955549D01*
X-7465389Y-38001304D01*
X-7534547Y-38011248D01*
X-7575353Y-37997868D01*
X-7625266Y-37971188D01*
X-7813870Y-37913975D01*
X-7952695Y-37900303D01*
X-8013319Y-37875822D01*
X-8044524Y-37895877D01*
X-8067305Y-37900303D01*
X-8206129Y-37913975D01*
X-8206132Y-37913976D01*
X-8394727Y-37971186D01*
X-8394733Y-37971188D01*
X-8568532Y-38064086D01*
X-8573601Y-38067473D01*
X-8574694Y-38065836D01*
X-8630663Y-38089596D01*
X-8699529Y-38077795D01*
X-8716156Y-38067109D01*
X-8716399Y-38067473D01*
X-8721467Y-38064086D01*
X-8895266Y-37971188D01*
X-9083870Y-37913975D01*
X-9222695Y-37900303D01*
X-9283319Y-37875822D01*
X-9314524Y-37895877D01*
X-9337305Y-37900303D01*
X-9476129Y-37913975D01*
X-9476132Y-37913976D01*
X-9664727Y-37971186D01*
X-9664733Y-37971188D01*
X-9838532Y-38064086D01*
X-9838539Y-38064090D01*
X-9990883Y-38189116D01*
X-10115909Y-38341460D01*
X-10115913Y-38341467D01*
X-10208811Y-38515266D01*
X-10208811Y-38515269D01*
X-10208814Y-38515273D01*
X-10266024Y-38703868D01*
X-10285341Y-38900000D01*
X-10266024Y-39096132D01*
X-10208814Y-39284727D01*
X-10115910Y-39458538D01*
X-9990883Y-39610883D01*
X-9838538Y-39735910D01*
X-9798726Y-39757190D01*
X-9668561Y-39826765D01*
X-9664727Y-39828814D01*
X-9476132Y-39886024D01*
X-9280000Y-39905341D01*
X-9083868Y-39886024D01*
X-8895273Y-39828814D01*
X-8895269Y-39828811D01*
X-8895266Y-39828811D01*
X-8721467Y-39735913D01*
X-8721464Y-39735911D01*
X-8721462Y-39735910D01*
X-8721458Y-39735907D01*
X-8716399Y-39732527D01*
X-8715305Y-39734164D01*
X-8659341Y-39710403D01*
X-8590475Y-39722202D01*
X-8573851Y-39732889D01*
X-8573607Y-39732523D01*
X-8568544Y-39735904D01*
X-8568538Y-39735910D01*
X-8394727Y-39828814D01*
X-8206132Y-39886024D01*
X-8010000Y-39905341D01*
X-7813868Y-39886024D01*
X-7625273Y-39828814D01*
X-7621439Y-39826765D01*
X-7596013Y-39813174D01*
X-7451462Y-39735910D01*
X-7451458Y-39735907D01*
X-7446393Y-39732523D01*
X-7445296Y-39734164D01*
X-7389361Y-39710405D01*
X-7320493Y-39722194D01*
X-7303851Y-39732888D01*
X-7303607Y-39732523D01*
X-7298544Y-39735904D01*
X-7298538Y-39735910D01*
X-7124727Y-39828814D01*
X-6936132Y-39886024D01*
X-6740000Y-39905341D01*
X-6543868Y-39886024D01*
X-6355273Y-39828814D01*
X-6351439Y-39826765D01*
X-6326013Y-39813174D01*
X-6181462Y-39735910D01*
X-6181458Y-39735907D01*
X-6176393Y-39732523D01*
X-6175296Y-39734164D01*
X-6119361Y-39710405D01*
X-6050493Y-39722194D01*
X-6033851Y-39732888D01*
X-6033607Y-39732523D01*
X-6028544Y-39735904D01*
X-6028538Y-39735910D01*
X-5854727Y-39828814D01*
X-5666132Y-39886024D01*
X-5470000Y-39905341D01*
X-5273868Y-39886024D01*
X-5085273Y-39828814D01*
X-5082663Y-39827419D01*
X-5081135Y-39827100D01*
X-5079641Y-39826482D01*
X-5079523Y-39826765D01*
X-5014261Y-39813174D01*
X-4949890Y-39837512D01*
X-4942089Y-39843351D01*
X-4807376Y-39893597D01*
X-4807372Y-39893598D01*
X-4747844Y-39899999D01*
X-4747828Y-39900000D01*
X-4450000Y-39900000D01*
X-4450000Y-39148938D01*
X-4368885Y-39212072D01*
X-4258405Y-39250000D01*
X-4170995Y-39250000D01*
X-4084784Y-39235614D01*
X-3982053Y-39180019D01*
X-3954419Y-39150000D01*
X-3950000Y-39150000D01*
X-3950000Y-39900000D01*
X-3652172Y-39900000D01*
X-3652155Y-39899999D01*
X-3592627Y-39893598D01*
X-3592620Y-39893596D01*
X-3457913Y-39843354D01*
X-3457906Y-39843350D01*
X-3342812Y-39757190D01*
X-3342809Y-39757187D01*
X-3256649Y-39642093D01*
X-3256645Y-39642086D01*
X-3206403Y-39507379D01*
X-3206401Y-39507372D01*
X-3200000Y-39447844D01*
X-3200000Y-39150000D01*
X-3950000Y-39150000D01*
X-3954419Y-39150000D01*
X-3902940Y-39094079D01*
X-3856018Y-38987108D01*
X-3846372Y-38870698D01*
X-3875047Y-38757462D01*
X-3938936Y-38659673D01*
X-3951364Y-38650000D01*
X-3200000Y-38650000D01*
X-3200000Y-38586500D01*
X-3180315Y-38519461D01*
X-3127511Y-38473706D01*
X-3076000Y-38462500D01*
X3704632Y-38462500D01*
X3720679Y-38464271D01*
X3720702Y-38464034D01*
X3728462Y-38464766D01*
X3728469Y-38464768D01*
X3800645Y-38462500D01*
X3831475Y-38462500D01*
X3838777Y-38461577D01*
X3844594Y-38461118D01*
X3893348Y-38459587D01*
X3913849Y-38453630D01*
X3932876Y-38449689D01*
X3954060Y-38447014D01*
X3999400Y-38429061D01*
X4004928Y-38427170D01*
X4013675Y-38424628D01*
X4051759Y-38413565D01*
X4070130Y-38402700D01*
X4087596Y-38394143D01*
X4107437Y-38386288D01*
X4146897Y-38357616D01*
X4151763Y-38354420D01*
X4193748Y-38329592D01*
X4208843Y-38314495D01*
X4223624Y-38301872D01*
X4240893Y-38289326D01*
X4271987Y-38251738D01*
X4275889Y-38247449D01*
X4446604Y-38076734D01*
X4507925Y-38043251D01*
X4520392Y-38041197D01*
X4530330Y-38040078D01*
X4701618Y-37980142D01*
X4701621Y-37980139D01*
X4701625Y-37980138D01*
X4855268Y-37883597D01*
X4855269Y-37883596D01*
X4855274Y-37883593D01*
X4983593Y-37755274D01*
X4983597Y-37755268D01*
X5080138Y-37601625D01*
X5080140Y-37601622D01*
X5080140Y-37601620D01*
X5080142Y-37601618D01*
X5140078Y-37430330D01*
X5160396Y-37250000D01*
X5145696Y-37119533D01*
X5140079Y-37069675D01*
X5140078Y-37069670D01*
X5125112Y-37026900D01*
X5080142Y-36898382D01*
X5051061Y-36852100D01*
X5021906Y-36805699D01*
X5002900Y-36739727D01*
X5002900Y-34000000D01*
X7894785Y-34000000D01*
X7913602Y-34203082D01*
X7969417Y-34399247D01*
X7969422Y-34399260D01*
X8060327Y-34581821D01*
X8183237Y-34744581D01*
X8333958Y-34881980D01*
X8333960Y-34881982D01*
X8433141Y-34943392D01*
X8507363Y-34989348D01*
X8697544Y-35063024D01*
X8898024Y-35100500D01*
X8898026Y-35100500D01*
X9101974Y-35100500D01*
X9101976Y-35100500D01*
X9302456Y-35063024D01*
X9492637Y-34989348D01*
X9666041Y-34881981D01*
X9816764Y-34744579D01*
X9939673Y-34581821D01*
X10030582Y-34399250D01*
X10086397Y-34203083D01*
X10105215Y-34000000D01*
X10086397Y-33796917D01*
X10030582Y-33600750D01*
X9939673Y-33418179D01*
X9816764Y-33255421D01*
X9816762Y-33255418D01*
X9666041Y-33118019D01*
X9666039Y-33118017D01*
X9492642Y-33010655D01*
X9492635Y-33010651D01*
X9397546Y-32973813D01*
X9302456Y-32936976D01*
X9101976Y-32899500D01*
X8898024Y-32899500D01*
X8697544Y-32936976D01*
X8697541Y-32936976D01*
X8697541Y-32936977D01*
X8507364Y-33010651D01*
X8507357Y-33010655D01*
X8333960Y-33118017D01*
X8333958Y-33118019D01*
X8183237Y-33255418D01*
X8060327Y-33418178D01*
X7969422Y-33600739D01*
X7969417Y-33600752D01*
X7913602Y-33796917D01*
X7894785Y-33999999D01*
X7894785Y-34000000D01*
X5002900Y-34000000D01*
X5002900Y-31371802D01*
X5022585Y-31304763D01*
X5039219Y-31284121D01*
X5124521Y-31198819D01*
X5185844Y-31165334D01*
X5212202Y-31162500D01*
X8754632Y-31162500D01*
X8770679Y-31164271D01*
X8770702Y-31164034D01*
X8778462Y-31164766D01*
X8778469Y-31164768D01*
X8850645Y-31162500D01*
X8881475Y-31162500D01*
X8888777Y-31161577D01*
X8894594Y-31161118D01*
X8943348Y-31159587D01*
X8963849Y-31153630D01*
X8982876Y-31149689D01*
X9004060Y-31147014D01*
X9049400Y-31129061D01*
X9054928Y-31127170D01*
X9063675Y-31124628D01*
X9101759Y-31113565D01*
X9120130Y-31102700D01*
X9137596Y-31094143D01*
X9157437Y-31086288D01*
X9196897Y-31057616D01*
X9201763Y-31054420D01*
X9243748Y-31029592D01*
X9258842Y-31014496D01*
X9273632Y-31001866D01*
X9290893Y-30989326D01*
X9321985Y-30951740D01*
X9325889Y-30947449D01*
X9651024Y-30622315D01*
X9663619Y-30612226D01*
X9663467Y-30612042D01*
X9669479Y-30607068D01*
X9669479Y-30607067D01*
X9669482Y-30607066D01*
X9718901Y-30554439D01*
X9740715Y-30532626D01*
X9745241Y-30526788D01*
X9749022Y-30522362D01*
X9782405Y-30486815D01*
X9792685Y-30468114D01*
X9803363Y-30451859D01*
X9816445Y-30434995D01*
X9835812Y-30390240D01*
X9838384Y-30384989D01*
X9839149Y-30383597D01*
X9861876Y-30342259D01*
X9867182Y-30321593D01*
X9873487Y-30303177D01*
X9881959Y-30283601D01*
X9889589Y-30235418D01*
X9890766Y-30229731D01*
X9902900Y-30182480D01*
X9902900Y-30161138D01*
X9904427Y-30141737D01*
X9907764Y-30120671D01*
X9903175Y-30072123D01*
X9902900Y-30066285D01*
X9902900Y-28585765D01*
X9904671Y-28569716D01*
X9904434Y-28569694D01*
X9905168Y-28561932D01*
X9902900Y-28489754D01*
X9902900Y-28458929D01*
X9902899Y-28458921D01*
X9901977Y-28451618D01*
X9901518Y-28445790D01*
X9899987Y-28397054D01*
X9899987Y-28397052D01*
X9894030Y-28376549D01*
X9890087Y-28357502D01*
X9887414Y-28336341D01*
X9887413Y-28336338D01*
X9869461Y-28290998D01*
X9867572Y-28285478D01*
X9864781Y-28275872D01*
X9853965Y-28238641D01*
X9843097Y-28220265D01*
X9834542Y-28202801D01*
X9826688Y-28182963D01*
X9798022Y-28143508D01*
X9794813Y-28138623D01*
X9769995Y-28096657D01*
X9769994Y-28096656D01*
X9769992Y-28096652D01*
X9754906Y-28081566D01*
X9742271Y-28066774D01*
X9729726Y-28049507D01*
X9729723Y-28049505D01*
X9729723Y-28049504D01*
X9729722Y-28049503D01*
X9692151Y-28018422D01*
X9687839Y-28014499D01*
X8222319Y-26548979D01*
X8212227Y-26536381D01*
X8212043Y-26536534D01*
X8207066Y-26530518D01*
X8154423Y-26481082D01*
X8132630Y-26459289D01*
X8126804Y-26454770D01*
X8122361Y-26450975D01*
X8086813Y-26417593D01*
X8068115Y-26407314D01*
X8051852Y-26396631D01*
X8034996Y-26383556D01*
X8034994Y-26383554D01*
X8011300Y-26373301D01*
X7990229Y-26364182D01*
X7985007Y-26361625D01*
X7942259Y-26338124D01*
X7942256Y-26338123D01*
X7921587Y-26332816D01*
X7903184Y-26326515D01*
X7883601Y-26318041D01*
X7883595Y-26318039D01*
X7835434Y-26310412D01*
X7829714Y-26309227D01*
X7821593Y-26307142D01*
X7782483Y-26297100D01*
X7782480Y-26297100D01*
X7761139Y-26297100D01*
X7741741Y-26295573D01*
X7733717Y-26294302D01*
X7720672Y-26292236D01*
X7720671Y-26292236D01*
X7672123Y-26296825D01*
X7666287Y-26297100D01*
X5426900Y-26297100D01*
X5359861Y-26277415D01*
X5314106Y-26224611D01*
X5302900Y-26173100D01*
X5302900Y-24560271D01*
X5321907Y-24494298D01*
X5380140Y-24401621D01*
X5380139Y-24401621D01*
X5380142Y-24401618D01*
X5440078Y-24230330D01*
X5460396Y-24050000D01*
X5440078Y-23869670D01*
X5380142Y-23698382D01*
X5380141Y-23698381D01*
X5380140Y-23698377D01*
X5380138Y-23698374D01*
X5283597Y-23544731D01*
X5283592Y-23544725D01*
X5155274Y-23416407D01*
X5155268Y-23416402D01*
X5001625Y-23319861D01*
X5001622Y-23319859D01*
X4830329Y-23259921D01*
X4830324Y-23259920D01*
X4650004Y-23239604D01*
X4649996Y-23239604D01*
X4489983Y-23257632D01*
X4421161Y-23245577D01*
X4369782Y-23198228D01*
X4352100Y-23134412D01*
X4352100Y-21547870D01*
X4749500Y-21547870D01*
X4749501Y-21547876D01*
X4755908Y-21607483D01*
X4806202Y-21742328D01*
X4806206Y-21742335D01*
X4892452Y-21857544D01*
X4892455Y-21857547D01*
X5007664Y-21943793D01*
X5007671Y-21943797D01*
X5142517Y-21994091D01*
X5142516Y-21994091D01*
X5149444Y-21994835D01*
X5202127Y-22000500D01*
X7097872Y-22000499D01*
X7157483Y-21994091D01*
X7292331Y-21943796D01*
X7407546Y-21857546D01*
X7493796Y-21742331D01*
X7544091Y-21607483D01*
X7550500Y-21547873D01*
X7550499Y-19252128D01*
X7544091Y-19192517D01*
X7493796Y-19057669D01*
X7493795Y-19057668D01*
X7493793Y-19057664D01*
X7407547Y-18942455D01*
X7407544Y-18942452D01*
X7292335Y-18856206D01*
X7292328Y-18856202D01*
X7157482Y-18805908D01*
X7157483Y-18805908D01*
X7097883Y-18799501D01*
X7097881Y-18799500D01*
X7097873Y-18799500D01*
X7097864Y-18799500D01*
X5202129Y-18799500D01*
X5202123Y-18799501D01*
X5142516Y-18805908D01*
X5007671Y-18856202D01*
X5007664Y-18856206D01*
X4892455Y-18942452D01*
X4892452Y-18942455D01*
X4806206Y-19057664D01*
X4806202Y-19057671D01*
X4755908Y-19192517D01*
X4749501Y-19252116D01*
X4749501Y-19252123D01*
X4749500Y-19252135D01*
X4749500Y-21547870D01*
X4352100Y-21547870D01*
X4352100Y-18409634D01*
X4371785Y-18342595D01*
X4424589Y-18296840D01*
X4432767Y-18293452D01*
X4567086Y-18243354D01*
X4567093Y-18243350D01*
X4682187Y-18157190D01*
X4682190Y-18157187D01*
X4768350Y-18042093D01*
X4768354Y-18042086D01*
X4818596Y-17907379D01*
X4818598Y-17907372D01*
X4824999Y-17847844D01*
X4825000Y-17847827D01*
X4825000Y-16452172D01*
X4824999Y-16452155D01*
X4818598Y-16392627D01*
X4818596Y-16392620D01*
X4768354Y-16257913D01*
X4768350Y-16257906D01*
X4682190Y-16142812D01*
X4682187Y-16142809D01*
X4567093Y-16056649D01*
X4567086Y-16056645D01*
X4432379Y-16006403D01*
X4432372Y-16006401D01*
X4372844Y-16000000D01*
X4127155Y-16000000D01*
X4067624Y-16006401D01*
X4067623Y-16006402D01*
X4044044Y-16015196D01*
X3974353Y-16020178D01*
X3957381Y-16015195D01*
X3932486Y-16005910D01*
X3932485Y-16005909D01*
X3932483Y-16005909D01*
X3872873Y-15999500D01*
X3872863Y-15999500D01*
X3627130Y-15999500D01*
X3627123Y-15999501D01*
X3567515Y-16005909D01*
X3543330Y-16014929D01*
X3473639Y-16019911D01*
X3456670Y-16014929D01*
X3432487Y-16005910D01*
X3432485Y-16005909D01*
X3432483Y-16005909D01*
X3372873Y-15999500D01*
X3372863Y-15999500D01*
X3127130Y-15999500D01*
X3127123Y-15999501D01*
X3067515Y-16005909D01*
X3043330Y-16014929D01*
X2973639Y-16019911D01*
X2956670Y-16014929D01*
X2932487Y-16005910D01*
X2932485Y-16005909D01*
X2932483Y-16005909D01*
X2872873Y-15999500D01*
X2872863Y-15999500D01*
X2627130Y-15999500D01*
X2627123Y-15999501D01*
X2567515Y-16005909D01*
X2543330Y-16014929D01*
X2473639Y-16019911D01*
X2456670Y-16014929D01*
X2432487Y-16005910D01*
X2432485Y-16005909D01*
X2432483Y-16005909D01*
X2372873Y-15999500D01*
X2372863Y-15999500D01*
X2127130Y-15999500D01*
X2127123Y-15999501D01*
X2067515Y-16005909D01*
X2043330Y-16014929D01*
X1973639Y-16019911D01*
X1956670Y-16014929D01*
X1932487Y-16005910D01*
X1932485Y-16005909D01*
X1932483Y-16005909D01*
X1872873Y-15999500D01*
X1872863Y-15999500D01*
X1627130Y-15999500D01*
X1627123Y-15999501D01*
X1567515Y-16005909D01*
X1543330Y-16014929D01*
X1473639Y-16019911D01*
X1456670Y-16014929D01*
X1432487Y-16005910D01*
X1432485Y-16005909D01*
X1432483Y-16005909D01*
X1372873Y-15999500D01*
X1372863Y-15999500D01*
X1127130Y-15999500D01*
X1127123Y-15999501D01*
X1067516Y-16005908D01*
X1042615Y-16015196D01*
X972923Y-16020178D01*
X955949Y-16015194D01*
X932764Y-16006546D01*
X876832Y-15964674D01*
X852416Y-15899209D01*
X852100Y-15890365D01*
X852100Y-15877584D01*
X861539Y-15830131D01*
X870545Y-15808389D01*
X895402Y-15748380D01*
X916095Y-15591200D01*
X911430Y-15555769D01*
X910900Y-15547672D01*
X910900Y-14602327D01*
X911431Y-14594225D01*
X916095Y-14558799D01*
X916095Y-14558798D01*
X895402Y-14401621D01*
X895400Y-14401616D01*
X834735Y-14255154D01*
X834733Y-14255151D01*
X806552Y-14218426D01*
X762452Y-14160954D01*
X762448Y-14160950D01*
X738222Y-14129378D01*
X738220Y-14129377D01*
X738220Y-14129376D01*
X725361Y-14119509D01*
X709868Y-14107621D01*
X703778Y-14102280D01*
X585857Y-13984359D01*
X552372Y-13923036D01*
X550320Y-13910581D01*
X540078Y-13819670D01*
X480142Y-13648382D01*
X480141Y-13648380D01*
X480138Y-13648374D01*
X383597Y-13494731D01*
X383592Y-13494725D01*
X255274Y-13366407D01*
X255268Y-13366402D01*
X101625Y-13269861D01*
X101622Y-13269859D01*
X-69670Y-13209921D01*
X-69675Y-13209920D01*
X-249996Y-13189604D01*
X-250004Y-13189604D01*
X-430324Y-13209920D01*
X-430329Y-13209921D01*
X-601621Y-13269859D01*
X-694298Y-13328093D01*
X-760271Y-13347100D01*
X-2348825Y-13347100D01*
X-2364875Y-13345328D01*
X-2364898Y-13345565D01*
X-2372665Y-13344830D01*
X-2444862Y-13347100D01*
X-2475678Y-13347100D01*
X-2482976Y-13348022D01*
X-2488800Y-13348480D01*
X-2537544Y-13350012D01*
X-2537545Y-13350012D01*
X-2558039Y-13355966D01*
X-2577082Y-13359910D01*
X-2598261Y-13362586D01*
X-2598262Y-13362586D01*
X-2643603Y-13380538D01*
X-2649131Y-13382430D01*
X-2695956Y-13396033D01*
X-2714326Y-13406897D01*
X-2731793Y-13415454D01*
X-2751636Y-13423311D01*
X-2791091Y-13451977D01*
X-2795974Y-13455185D01*
X-2837948Y-13480008D01*
X-2837952Y-13480012D01*
X-2853034Y-13495094D01*
X-2867830Y-13507731D01*
X-2871859Y-13510659D01*
X-2885094Y-13520274D01*
X-2885094Y-13520275D01*
X-2916181Y-13557852D01*
X-2920115Y-13562175D01*
X-5030821Y-15672881D01*
X-5043425Y-15682979D01*
X-5043274Y-15683163D01*
X-5049279Y-15688131D01*
X-5098715Y-15740775D01*
X-5120513Y-15762573D01*
X-5125029Y-15768394D01*
X-5128822Y-15772836D01*
X-5162205Y-15808385D01*
X-5162208Y-15808389D01*
X-5172480Y-15827075D01*
X-5183165Y-15843342D01*
X-5196245Y-15860205D01*
X-5203765Y-15877584D01*
X-5215612Y-15904960D01*
X-5218183Y-15910207D01*
X-5227421Y-15927011D01*
X-5241676Y-15952941D01*
X-5241677Y-15952946D01*
X-5246983Y-15973611D01*
X-5253282Y-15992012D01*
X-5261759Y-16011599D01*
X-5267111Y-16045400D01*
X-5269387Y-16059764D01*
X-5270570Y-16065479D01*
X-5282700Y-16112720D01*
X-5282700Y-16112723D01*
X-5282700Y-16134061D01*
X-5284226Y-16153458D01*
X-5287564Y-16174529D01*
X-5282975Y-16223075D01*
X-5282700Y-16228913D01*
X-5282700Y-18234432D01*
X-5284471Y-18250479D01*
X-5284234Y-18250502D01*
X-5284966Y-18258262D01*
X-5284968Y-18258269D01*
X-5282700Y-18330445D01*
X-5282700Y-18361275D01*
X-5281777Y-18368577D01*
X-5281318Y-18374394D01*
X-5279787Y-18423148D01*
X-5273830Y-18443649D01*
X-5269889Y-18462676D01*
X-5267214Y-18483860D01*
X-5261465Y-18498379D01*
X-5249263Y-18529197D01*
X-5247370Y-18534728D01*
X-5233765Y-18581559D01*
X-5222900Y-18599930D01*
X-5214342Y-18617400D01*
X-5209411Y-18629855D01*
X-5203036Y-18699433D01*
X-5235289Y-18761413D01*
X-5295931Y-18796116D01*
X-5324704Y-18799500D01*
X-7097870Y-18799500D01*
X-7097876Y-18799501D01*
X-7157483Y-18805908D01*
X-7292328Y-18856202D01*
X-7292335Y-18856206D01*
X-7407544Y-18942452D01*
X-7407547Y-18942455D01*
X-7493793Y-19057664D01*
X-7493795Y-19057668D01*
X-7493796Y-19057669D01*
X-7544091Y-19192517D01*
X-7550500Y-19252127D01*
X-7550499Y-21547872D01*
X-7544091Y-21607483D01*
X-7493796Y-21742331D01*
X-7407546Y-21857546D01*
X-7292331Y-21943796D01*
X-7157483Y-21994091D01*
X-7097873Y-22000500D01*
X-5202128Y-22000499D01*
X-5153757Y-21995299D01*
X-5142516Y-21994091D01*
X-5007671Y-21943797D01*
X-5007664Y-21943793D01*
X-4892455Y-21857547D01*
X-4892452Y-21857544D01*
X-4806206Y-21742335D01*
X-4806202Y-21742328D01*
X-4755908Y-21607482D01*
X-4749501Y-21547883D01*
X-4749500Y-21547881D01*
X-4749500Y-21547873D01*
X-4749500Y-19617330D01*
X-4729815Y-19550292D01*
X-4677011Y-19504537D01*
X-4607853Y-19494593D01*
X-4559526Y-19512338D01*
X-4451621Y-19580140D01*
X-4451620Y-19580140D01*
X-4451618Y-19580142D01*
X-4280330Y-19640078D01*
X-4280327Y-19640078D01*
X-4280324Y-19640079D01*
X-4100004Y-19660396D01*
X-4100000Y-19660396D01*
X-4099996Y-19660396D01*
X-3919675Y-19640079D01*
X-3919670Y-19640078D01*
X-3854663Y-19617331D01*
X-3748382Y-19580142D01*
X-3748381Y-19580141D01*
X-3748377Y-19580140D01*
X-3748374Y-19580138D01*
X-3594731Y-19483597D01*
X-3594725Y-19483592D01*
X-3466407Y-19355274D01*
X-3466402Y-19355268D01*
X-3369861Y-19201625D01*
X-3369859Y-19201622D01*
X-3309921Y-19030329D01*
X-3309920Y-19030324D01*
X-3289604Y-18850003D01*
X-3289604Y-18849996D01*
X-3309920Y-18669675D01*
X-3309921Y-18669670D01*
X-3369859Y-18498379D01*
X-3374830Y-18490468D01*
X-3393828Y-18423231D01*
X-3373458Y-18356396D01*
X-3320189Y-18311184D01*
X-3269836Y-18300499D01*
X-3127128Y-18300499D01*
X-3067517Y-18294091D01*
X-3043333Y-18285070D01*
X-2973644Y-18280085D01*
X-2956677Y-18285066D01*
X-2932483Y-18294091D01*
X-2872873Y-18300500D01*
X-2627128Y-18300499D01*
X-2567517Y-18294091D01*
X-2543333Y-18285070D01*
X-2473644Y-18280085D01*
X-2456677Y-18285066D01*
X-2432483Y-18294091D01*
X-2372873Y-18300500D01*
X-2127128Y-18300499D01*
X-2067517Y-18294091D01*
X-2043333Y-18285070D01*
X-1973644Y-18280085D01*
X-1956677Y-18285066D01*
X-1932483Y-18294091D01*
X-1872873Y-18300500D01*
X-1627128Y-18300499D01*
X-1567517Y-18294091D01*
X-1543333Y-18285070D01*
X-1473644Y-18280085D01*
X-1456677Y-18285066D01*
X-1432483Y-18294091D01*
X-1372873Y-18300500D01*
X-1127128Y-18300499D01*
X-1067517Y-18294091D01*
X-1043333Y-18285070D01*
X-973644Y-18280085D01*
X-956677Y-18285066D01*
X-932483Y-18294091D01*
X-872873Y-18300500D01*
X-627128Y-18300499D01*
X-567517Y-18294091D01*
X-543333Y-18285070D01*
X-473644Y-18280085D01*
X-456677Y-18285066D01*
X-432483Y-18294091D01*
X-372873Y-18300500D01*
X-127128Y-18300499D01*
X-78757Y-18295299D01*
X-67516Y-18294091D01*
X-57575Y-18290382D01*
X-43336Y-18285071D01*
X26353Y-18280085D01*
X43329Y-18285069D01*
X67517Y-18294091D01*
X127127Y-18300500D01*
X372872Y-18300499D01*
X432483Y-18294091D01*
X457380Y-18284804D01*
X527070Y-18279819D01*
X544049Y-18284805D01*
X567619Y-18293596D01*
X567627Y-18293598D01*
X627155Y-18299999D01*
X627172Y-18300000D01*
X872828Y-18300000D01*
X872844Y-18299999D01*
X932372Y-18293598D01*
X932375Y-18293597D01*
X955949Y-18284805D01*
X1025640Y-18279819D01*
X1042616Y-18284804D01*
X1067232Y-18293985D01*
X1123166Y-18335856D01*
X1147584Y-18401320D01*
X1147900Y-18410167D01*
X1147899Y-22212061D01*
X1128214Y-22279100D01*
X1075410Y-22324855D01*
X1064854Y-22329103D01*
X948377Y-22369859D01*
X948374Y-22369861D01*
X794731Y-22466402D01*
X794725Y-22466407D01*
X666407Y-22594725D01*
X666402Y-22594731D01*
X569862Y-22748372D01*
X569857Y-22748382D01*
X546598Y-22814855D01*
X505877Y-22871631D01*
X440924Y-22897378D01*
X429557Y-22897900D01*
X-2096743Y-22897900D01*
X-2104841Y-22897369D01*
X-2126575Y-22894507D01*
X-2140262Y-22892706D01*
X-2140267Y-22892706D01*
X-2176926Y-22897532D01*
X-2176943Y-22897534D01*
X-2297441Y-22913397D01*
X-2297443Y-22913398D01*
X-2394612Y-22953647D01*
X-2443909Y-22974066D01*
X-2443912Y-22974067D01*
X-2538111Y-23046350D01*
X-2538113Y-23046351D01*
X-2569683Y-23070576D01*
X-2569685Y-23070578D01*
X-2591439Y-23098928D01*
X-2596792Y-23105031D01*
X-4994967Y-25503206D01*
X-5001070Y-25508559D01*
X-5029420Y-25530313D01*
X-5029420Y-25530314D01*
X-5029422Y-25530315D01*
X-5052944Y-25560970D01*
X-5052953Y-25560980D01*
X-5053651Y-25561890D01*
X-5067800Y-25580330D01*
X-5125933Y-25656090D01*
X-5186602Y-25802557D01*
X-5202100Y-25920277D01*
X-5202100Y-25920282D01*
X-5207294Y-25959737D01*
X-5202765Y-25994142D01*
X-5202631Y-25995155D01*
X-5202100Y-26003257D01*
X-5202100Y-29161871D01*
X-5221785Y-29228910D01*
X-5229794Y-29238849D01*
X-5229252Y-29239283D01*
X-5233597Y-29244731D01*
X-5330138Y-29398374D01*
X-5330140Y-29398377D01*
X-5330141Y-29398381D01*
X-5330142Y-29398382D01*
X-5383761Y-29551618D01*
X-5390078Y-29569670D01*
X-5390079Y-29569675D01*
X-5410396Y-29749996D01*
X-5410396Y-29750003D01*
X-5390079Y-29930324D01*
X-5390078Y-29930330D01*
X-5330142Y-30101618D01*
X-5330140Y-30101620D01*
X-5330140Y-30101622D01*
X-5330138Y-30101625D01*
X-5246056Y-30235439D01*
X-5233593Y-30255274D01*
X-5105274Y-30383593D01*
X-5105269Y-30383596D01*
X-5105268Y-30383597D01*
X-4951625Y-30480138D01*
X-4951622Y-30480140D01*
X-4951620Y-30480140D01*
X-4951618Y-30480142D01*
X-4780330Y-30540078D01*
X-4780327Y-30540078D01*
X-4780324Y-30540079D01*
X-4600004Y-30560396D01*
X-4600000Y-30560396D01*
X-4599996Y-30560396D01*
X-4419675Y-30540079D01*
X-4419670Y-30540078D01*
X-4398356Y-30532620D01*
X-4248382Y-30480142D01*
X-4248381Y-30480141D01*
X-4248377Y-30480140D01*
X-4248374Y-30480138D01*
X-4094731Y-30383597D01*
X-4094725Y-30383592D01*
X-3966407Y-30255274D01*
X-3966402Y-30255268D01*
X-3869861Y-30101625D01*
X-3869859Y-30101622D01*
X-3809921Y-29930329D01*
X-3809920Y-29930324D01*
X-3789604Y-29750003D01*
X-3789604Y-29749996D01*
X-3809920Y-29569675D01*
X-3809921Y-29569670D01*
X-3869859Y-29398377D01*
X-3869861Y-29398374D01*
X-3966402Y-29244731D01*
X-3970748Y-29239283D01*
X-3968354Y-29237374D01*
X-3995199Y-29187607D01*
X-3997899Y-29161871D01*
X-3997900Y-27070972D01*
X-3978215Y-27003933D01*
X-3925412Y-26958178D01*
X-3887788Y-26947752D01*
X-3819670Y-26940078D01*
X-3648382Y-26880142D01*
X-3648380Y-26880141D01*
X-3648374Y-26880138D01*
X-3494731Y-26783597D01*
X-3494725Y-26783592D01*
X-3366407Y-26655274D01*
X-3366402Y-26655268D01*
X-3269861Y-26501625D01*
X-3269858Y-26501619D01*
X-3209920Y-26330325D01*
X-3208802Y-26320397D01*
X-3181733Y-26255984D01*
X-3173263Y-26246603D01*
X-2965878Y-26039219D01*
X-2904555Y-26005734D01*
X-2878197Y-26002900D01*
X-2060271Y-26002900D01*
X-1994297Y-26021907D01*
X-1901621Y-26080140D01*
X-1901620Y-26080140D01*
X-1901618Y-26080142D01*
X-1730330Y-26140078D01*
X-1730327Y-26140078D01*
X-1730324Y-26140079D01*
X-1550004Y-26160396D01*
X-1550000Y-26160396D01*
X-1549996Y-26160396D01*
X-1369675Y-26140079D01*
X-1369670Y-26140078D01*
X-1358404Y-26136136D01*
X-1198382Y-26080142D01*
X-1198381Y-26080141D01*
X-1198377Y-26080140D01*
X-1198374Y-26080138D01*
X-1044731Y-25983597D01*
X-1044725Y-25983592D01*
X-1012681Y-25951548D01*
X-951358Y-25918063D01*
X-881666Y-25923047D01*
X-837318Y-25951548D01*
X-755274Y-26033593D01*
X-755269Y-26033596D01*
X-755268Y-26033597D01*
X-601625Y-26130138D01*
X-601621Y-26130139D01*
X-601618Y-26130142D01*
X-430330Y-26190078D01*
X-339436Y-26200318D01*
X-275025Y-26227383D01*
X-265639Y-26235858D01*
X-229618Y-26271880D01*
X-196133Y-26333204D01*
X-193300Y-26359560D01*
X-193300Y-33933668D01*
X-212985Y-34000707D01*
X-265789Y-34046462D01*
X-303413Y-34056888D01*
X-330325Y-34059920D01*
X-501619Y-34119858D01*
X-501625Y-34119861D01*
X-655268Y-34216402D01*
X-655274Y-34216407D01*
X-783593Y-34344726D01*
X-827104Y-34413973D01*
X-879439Y-34460264D01*
X-932098Y-34472001D01*
X-1421428Y-34472001D01*
X-1488467Y-34452316D01*
X-1534222Y-34399512D01*
X-1544648Y-34361884D01*
X-1547679Y-34334973D01*
X-1607617Y-34163681D01*
X-1607620Y-34163675D01*
X-1704161Y-34010032D01*
X-1704166Y-34010026D01*
X-1832484Y-33881708D01*
X-1832490Y-33881703D01*
X-1986133Y-33785162D01*
X-1986136Y-33785160D01*
X-2157429Y-33725222D01*
X-2157434Y-33725221D01*
X-2337755Y-33704905D01*
X-2337763Y-33704905D01*
X-2518083Y-33725221D01*
X-2518088Y-33725222D01*
X-2689381Y-33785160D01*
X-2689384Y-33785162D01*
X-2843027Y-33881703D01*
X-2843033Y-33881708D01*
X-2971352Y-34010027D01*
X-2992643Y-34043912D01*
X-3001730Y-34058373D01*
X-3054065Y-34104664D01*
X-3106724Y-34116401D01*
X-15273900Y-34116401D01*
X-15340939Y-34096716D01*
X-15386694Y-34043912D01*
X-15397900Y-33992401D01*
X-15397900Y-29788129D01*
X-15378215Y-29721090D01*
X-15370205Y-29711151D01*
X-15370749Y-29710718D01*
X-15366406Y-29705273D01*
X-15269859Y-29551621D01*
X-15209921Y-29380329D01*
X-15209920Y-29380324D01*
X-15189604Y-29200003D01*
X-15189604Y-29199996D01*
X-15209920Y-29019675D01*
X-15209921Y-29019670D01*
X-15269859Y-28848377D01*
X-15269861Y-28848374D01*
X-15366402Y-28694731D01*
X-15366407Y-28694725D01*
X-15494725Y-28566407D01*
X-15494731Y-28566402D01*
X-15648374Y-28469861D01*
X-15648377Y-28469859D01*
X-15819670Y-28409921D01*
X-15819675Y-28409920D01*
X-15999996Y-28389604D01*
X-16000004Y-28389604D01*
X-16180324Y-28409920D01*
X-16180329Y-28409921D01*
X-16351622Y-28469859D01*
X-16351625Y-28469861D01*
X-16505268Y-28566402D01*
X-16505274Y-28566407D01*
X-16633592Y-28694725D01*
X-16633597Y-28694731D01*
X-16730138Y-28848374D01*
X-16730140Y-28848377D01*
X-16790078Y-29019670D01*
X-16790079Y-29019675D01*
X-16810396Y-29199996D01*
X-16810396Y-29200003D01*
X-16790784Y-29374066D01*
X-16790078Y-29380330D01*
X-16730142Y-29551618D01*
X-16730140Y-29551620D01*
X-16730140Y-29551622D01*
X-16730138Y-29551625D01*
X-16633593Y-29705274D01*
X-16633589Y-29705277D01*
X-16629252Y-29710717D01*
X-16631814Y-29712760D01*
X-16605068Y-29761156D01*
X-16602099Y-29788120D01*
X-16602099Y-32899500D01*
X-16602099Y-34348001D01*
X-16621784Y-34415040D01*
X-16674588Y-34460795D01*
X-16726099Y-34472001D01*
X-17130580Y-34472001D01*
X-17138678Y-34471470D01*
X-17159238Y-34468763D01*
X-17174100Y-34466807D01*
X-17174103Y-34466807D01*
X-17211354Y-34471711D01*
X-17211380Y-34471713D01*
X-17345087Y-34489315D01*
X-17357993Y-34498563D01*
X-17477745Y-34548166D01*
X-17571950Y-34620451D01*
X-17603521Y-34644677D01*
X-17603523Y-34644679D01*
X-17625277Y-34673029D01*
X-17630630Y-34679132D01*
X-18144967Y-35193469D01*
X-18151070Y-35198822D01*
X-18179420Y-35220576D01*
X-18179420Y-35220577D01*
X-18179422Y-35220578D01*
X-18202831Y-35251085D01*
X-18202845Y-35251102D01*
X-18203651Y-35252153D01*
X-18250646Y-35313398D01*
X-18275933Y-35346353D01*
X-18336602Y-35492820D01*
X-18340162Y-35519861D01*
X-18342825Y-35540087D01*
X-18371092Y-35603983D01*
X-18429417Y-35642453D01*
X-18465764Y-35647900D01*
X-19061871Y-35647900D01*
X-19128910Y-35628215D01*
X-19138849Y-35620205D01*
X-19139283Y-35620748D01*
X-19144731Y-35616402D01*
X-19298374Y-35519861D01*
X-19298377Y-35519859D01*
X-19469670Y-35459921D01*
X-19469675Y-35459920D01*
X-19649996Y-35439604D01*
X-19650004Y-35439604D01*
X-19830324Y-35459920D01*
X-19830329Y-35459921D01*
X-20001621Y-35519859D01*
X-20094298Y-35578093D01*
X-20160271Y-35597100D01*
X-22589729Y-35597100D01*
X-22655702Y-35578093D01*
X-22748379Y-35519859D01*
X-22748377Y-35519859D01*
X-22919670Y-35459921D01*
X-22919675Y-35459920D01*
X-23099996Y-35439604D01*
X-23100004Y-35439604D01*
X-23280324Y-35459920D01*
X-23280329Y-35459921D01*
X-23451622Y-35519859D01*
X-23451625Y-35519861D01*
X-23605268Y-35616402D01*
X-23605274Y-35616407D01*
X-23733592Y-35744725D01*
X-23733597Y-35744731D01*
X-23830138Y-35898374D01*
X-23830140Y-35898377D01*
X-23830141Y-35898381D01*
X-23830142Y-35898382D01*
X-23890078Y-36069669D01*
X-23890078Y-36069670D01*
X-23890079Y-36069675D01*
X-23895896Y-36121310D01*
X-23910396Y-36250000D01*
X-29694700Y-36250000D01*
X-29694700Y-13052844D01*
X11840000Y-13052844D01*
X11846401Y-13112372D01*
X11846403Y-13112379D01*
X11896645Y-13247086D01*
X11896649Y-13247093D01*
X11982809Y-13362187D01*
X11982812Y-13362190D01*
X12097906Y-13448350D01*
X12097913Y-13448354D01*
X12232620Y-13498596D01*
X12232627Y-13498598D01*
X12292155Y-13504999D01*
X12292172Y-13505000D01*
X12940000Y-13505000D01*
X12940000Y-12590501D01*
X13047685Y-12639680D01*
X13154237Y-12655000D01*
X13225763Y-12655000D01*
X13332315Y-12639680D01*
X13440000Y-12590501D01*
X13440000Y-13505000D01*
X14087828Y-13505000D01*
X14087844Y-13504999D01*
X14147372Y-13498598D01*
X14147379Y-13498596D01*
X14282086Y-13448354D01*
X14282093Y-13448350D01*
X14397187Y-13362190D01*
X14397190Y-13362187D01*
X14483350Y-13247093D01*
X14483354Y-13247086D01*
X14532422Y-13115529D01*
X14574293Y-13059595D01*
X14639757Y-13035178D01*
X14708030Y-13050030D01*
X14736285Y-13071181D01*
X14858599Y-13193495D01*
X14935135Y-13247086D01*
X15052165Y-13329032D01*
X15052167Y-13329033D01*
X15052170Y-13329035D01*
X15266337Y-13428903D01*
X15494592Y-13490063D01*
X15665319Y-13505000D01*
X15729999Y-13510659D01*
X15730000Y-13510659D01*
X15730001Y-13510659D01*
X15794681Y-13505000D01*
X15965408Y-13490063D01*
X16193663Y-13428903D01*
X16407830Y-13329035D01*
X16601401Y-13193495D01*
X16768495Y-13026401D01*
X16898424Y-12840842D01*
X16953002Y-12797217D01*
X17022500Y-12790023D01*
X17084855Y-12821546D01*
X17101575Y-12840842D01*
X17231500Y-13026395D01*
X17231505Y-13026401D01*
X17398599Y-13193495D01*
X17475135Y-13247086D01*
X17592165Y-13329032D01*
X17592167Y-13329033D01*
X17592170Y-13329035D01*
X17806337Y-13428903D01*
X18034592Y-13490063D01*
X18205319Y-13505000D01*
X18269999Y-13510659D01*
X18270000Y-13510659D01*
X18270001Y-13510659D01*
X18334681Y-13505000D01*
X18505408Y-13490063D01*
X18733663Y-13428903D01*
X18947830Y-13329035D01*
X19141401Y-13193495D01*
X19308495Y-13026401D01*
X19438424Y-12840842D01*
X19493002Y-12797217D01*
X19562500Y-12790023D01*
X19624855Y-12821546D01*
X19641575Y-12840842D01*
X19771500Y-13026395D01*
X19771505Y-13026401D01*
X19938599Y-13193495D01*
X20015135Y-13247086D01*
X20132165Y-13329032D01*
X20132167Y-13329033D01*
X20132170Y-13329035D01*
X20346337Y-13428903D01*
X20574592Y-13490063D01*
X20745319Y-13505000D01*
X20809999Y-13510659D01*
X20810000Y-13510659D01*
X20810001Y-13510659D01*
X20874681Y-13505000D01*
X21045408Y-13490063D01*
X21273663Y-13428903D01*
X21487830Y-13329035D01*
X21681401Y-13193495D01*
X21848495Y-13026401D01*
X21984035Y-12832830D01*
X22083903Y-12618663D01*
X22145063Y-12390408D01*
X22165659Y-12155000D01*
X22145063Y-11919592D01*
X22083903Y-11691337D01*
X21984035Y-11477171D01*
X21978425Y-11469158D01*
X21848494Y-11283597D01*
X21681402Y-11116506D01*
X21681395Y-11116501D01*
X21487834Y-10980967D01*
X21487830Y-10980965D01*
X21416727Y-10947809D01*
X21273663Y-10881097D01*
X21273659Y-10881096D01*
X21273655Y-10881094D01*
X21045413Y-10819938D01*
X21045403Y-10819936D01*
X20810001Y-10799341D01*
X20809999Y-10799341D01*
X20574596Y-10819936D01*
X20574586Y-10819938D01*
X20346344Y-10881094D01*
X20346335Y-10881098D01*
X20132171Y-10980964D01*
X20132169Y-10980965D01*
X19938597Y-11116505D01*
X19771505Y-11283597D01*
X19641575Y-11469158D01*
X19586998Y-11512783D01*
X19517500Y-11519977D01*
X19455145Y-11488454D01*
X19438425Y-11469158D01*
X19308494Y-11283597D01*
X19141402Y-11116506D01*
X19141395Y-11116501D01*
X18947834Y-10980967D01*
X18947830Y-10980965D01*
X18876727Y-10947809D01*
X18733663Y-10881097D01*
X18733659Y-10881096D01*
X18733655Y-10881094D01*
X18505413Y-10819938D01*
X18505403Y-10819936D01*
X18270001Y-10799341D01*
X18269999Y-10799341D01*
X18034596Y-10819936D01*
X18034586Y-10819938D01*
X17806344Y-10881094D01*
X17806335Y-10881098D01*
X17592171Y-10980964D01*
X17592169Y-10980965D01*
X17398597Y-11116505D01*
X17231505Y-11283597D01*
X17101575Y-11469158D01*
X17046998Y-11512783D01*
X16977500Y-11519977D01*
X16915145Y-11488454D01*
X16898425Y-11469158D01*
X16768494Y-11283597D01*
X16601402Y-11116506D01*
X16601395Y-11116501D01*
X16407834Y-10980967D01*
X16407830Y-10980965D01*
X16336727Y-10947809D01*
X16193663Y-10881097D01*
X16193659Y-10881096D01*
X16193655Y-10881094D01*
X15965413Y-10819938D01*
X15965403Y-10819936D01*
X15730001Y-10799341D01*
X15729999Y-10799341D01*
X15494596Y-10819936D01*
X15494586Y-10819938D01*
X15266344Y-10881094D01*
X15266335Y-10881098D01*
X15052171Y-10980964D01*
X15052169Y-10980965D01*
X14858600Y-11116503D01*
X14736284Y-11238819D01*
X14674961Y-11272303D01*
X14605269Y-11267319D01*
X14549336Y-11225447D01*
X14532421Y-11194470D01*
X14483354Y-11062913D01*
X14483350Y-11062906D01*
X14397190Y-10947812D01*
X14397187Y-10947809D01*
X14282093Y-10861649D01*
X14282086Y-10861645D01*
X14147379Y-10811403D01*
X14147372Y-10811401D01*
X14087844Y-10805000D01*
X13440000Y-10805000D01*
X13440000Y-11719498D01*
X13332315Y-11670320D01*
X13225763Y-11655000D01*
X13154237Y-11655000D01*
X13047685Y-11670320D01*
X12940000Y-11719498D01*
X12940000Y-10805000D01*
X12292155Y-10805000D01*
X12232627Y-10811401D01*
X12232620Y-10811403D01*
X12097913Y-10861645D01*
X12097906Y-10861649D01*
X11982812Y-10947809D01*
X11982809Y-10947812D01*
X11896649Y-11062906D01*
X11896645Y-11062913D01*
X11846403Y-11197620D01*
X11846401Y-11197627D01*
X11840000Y-11257155D01*
X11840000Y-11905000D01*
X12756314Y-11905000D01*
X12730507Y-11945156D01*
X12690000Y-12083111D01*
X12690000Y-12226889D01*
X12730507Y-12364844D01*
X12756314Y-12405000D01*
X11840000Y-12405000D01*
X11840000Y-13052844D01*
X-29694700Y-13052844D01*
X-29694700Y-9495151D01*
X-17405300Y-9495151D01*
X-17365734Y-9681294D01*
X-17288332Y-9855143D01*
X-17176475Y-10009101D01*
X-17176470Y-10009104D01*
X-17176470Y-10009106D01*
X-17145834Y-10036689D01*
X-17035053Y-10136438D01*
X-16870247Y-10231589D01*
X-16689259Y-10290395D01*
X-16547448Y-10305300D01*
X-16547443Y-10305300D01*
X-16452557Y-10305300D01*
X-16452552Y-10305300D01*
X-16310741Y-10290395D01*
X-16129753Y-10231589D01*
X-15964947Y-10136438D01*
X-15909556Y-10086563D01*
X-15823529Y-10009106D01*
X-15823527Y-10009103D01*
X-15823526Y-10009102D01*
X-15823525Y-10009101D01*
X-15767596Y-9932122D01*
X-15711666Y-9855142D01*
X-15634265Y-9681293D01*
X-15634265Y-9681292D01*
X-15594700Y-9495150D01*
X-15594700Y-9304849D01*
X-15634265Y-9118708D01*
X-15711666Y-8944858D01*
X-15823527Y-8790896D01*
X-15823529Y-8790893D01*
X-15964948Y-8663561D01*
X-16129754Y-8568410D01*
X-16310737Y-8509606D01*
X-16310739Y-8509605D01*
X-16351258Y-8505346D01*
X-16452552Y-8494700D01*
X-16547448Y-8494700D01*
X-16665623Y-8507120D01*
X-16689260Y-8509605D01*
X-16689262Y-8509606D01*
X-16870245Y-8568410D01*
X-16870246Y-8568410D01*
X-16870247Y-8568411D01*
X-17035053Y-8663562D01*
X-17084315Y-8707918D01*
X-17176470Y-8790893D01*
X-17176472Y-8790896D01*
X-17176475Y-8790899D01*
X-17260367Y-8906366D01*
X-17288333Y-8944857D01*
X-17288333Y-8944858D01*
X-17365734Y-9118706D01*
X-17405300Y-9304849D01*
X-17405300Y-9495151D01*
X-29694700Y-9495151D01*
X-29694700Y-3753422D01*
X-3359081Y-3753422D01*
X-3349009Y-3939188D01*
X-3299239Y-4118446D01*
X-3212096Y-4282813D01*
X-3091657Y-4424605D01*
X-2943553Y-4537191D01*
X-2774709Y-4615307D01*
X-2774705Y-4615307D01*
X-2774705Y-4615308D01*
X-2755306Y-4619577D01*
X-2593019Y-4655300D01*
X-2593016Y-4655300D01*
X-2453636Y-4655300D01*
X-2453630Y-4655300D01*
X-2315052Y-4640229D01*
X-2138751Y-4580826D01*
X-1979343Y-4484913D01*
X-1844279Y-4356974D01*
X-1844278Y-4356973D01*
X-1844275Y-4356970D01*
X-1739875Y-4202989D01*
X-1739874Y-4202987D01*
X-1671018Y-4030171D01*
X-1671015Y-4030159D01*
X-1640919Y-3846578D01*
X-1640918Y-3846577D01*
X-1645969Y-3753422D01*
X1640918Y-3753422D01*
X1650990Y-3939187D01*
X1650991Y-3939192D01*
X1700758Y-4118438D01*
X1700761Y-4118447D01*
X1787902Y-4282811D01*
X1908343Y-4424605D01*
X1987676Y-4484913D01*
X2056447Y-4537191D01*
X2225291Y-4615307D01*
X2225292Y-4615307D01*
X2225294Y-4615308D01*
X2280414Y-4627440D01*
X2406981Y-4655300D01*
X2406984Y-4655300D01*
X2546364Y-4655300D01*
X2546370Y-4655300D01*
X2684948Y-4640229D01*
X2861249Y-4580826D01*
X3020657Y-4484913D01*
X3155721Y-4356974D01*
X3260123Y-4202992D01*
X3328983Y-4030166D01*
X3359081Y-3846578D01*
X3349009Y-3660812D01*
X3323749Y-3569834D01*
X3299241Y-3481561D01*
X3299238Y-3481552D01*
X3212097Y-3317188D01*
X3149103Y-3243026D01*
X3091657Y-3175395D01*
X3091656Y-3175394D01*
X2943559Y-3062813D01*
X2943551Y-3062808D01*
X2774709Y-2984693D01*
X2774705Y-2984691D01*
X2593019Y-2944700D01*
X2453630Y-2944700D01*
X2453626Y-2944700D01*
X2315051Y-2959771D01*
X2138750Y-3019174D01*
X1979343Y-3115086D01*
X1844275Y-3243029D01*
X1739875Y-3397010D01*
X1739874Y-3397012D01*
X1671018Y-3569828D01*
X1671015Y-3569840D01*
X1640919Y-3753418D01*
X1640918Y-3753422D01*
X-1645969Y-3753422D01*
X-1650990Y-3660812D01*
X-1650991Y-3660807D01*
X-1700758Y-3481561D01*
X-1700761Y-3481552D01*
X-1787902Y-3317188D01*
X-1908343Y-3175394D01*
X-2056440Y-3062813D01*
X-2056448Y-3062808D01*
X-2225290Y-2984693D01*
X-2225294Y-2984691D01*
X-2406980Y-2944700D01*
X-2406981Y-2944700D01*
X-2546370Y-2944700D01*
X-2546373Y-2944700D01*
X-2684948Y-2959771D01*
X-2861249Y-3019174D01*
X-3020656Y-3115086D01*
X-3020657Y-3115087D01*
X-3084322Y-3175394D01*
X-3155724Y-3243029D01*
X-3260124Y-3397010D01*
X-3260125Y-3397012D01*
X-3293812Y-3481561D01*
X-3328983Y-3569834D01*
X-3359081Y-3753422D01*
X-29694700Y-3753422D01*
X-29694700Y-3001740D01*
X-29694602Y-2998264D01*
X-29677951Y-2701766D01*
X-29677172Y-2694851D01*
X-29674868Y-2681294D01*
X-29643242Y-2495151D01*
X-17405300Y-2495151D01*
X-17365734Y-2681294D01*
X-17288332Y-2855143D01*
X-17176475Y-3009101D01*
X-17176470Y-3009104D01*
X-17176470Y-3009106D01*
X-17165288Y-3019174D01*
X-17035053Y-3136438D01*
X-16870247Y-3231589D01*
X-16689259Y-3290395D01*
X-16547448Y-3305300D01*
X-16547443Y-3305300D01*
X-16452557Y-3305300D01*
X-16452552Y-3305300D01*
X-16310741Y-3290395D01*
X-16129753Y-3231589D01*
X-15964947Y-3136438D01*
X-15883178Y-3062813D01*
X-15823529Y-3009106D01*
X-15823527Y-3009103D01*
X-15823526Y-3009102D01*
X-15823525Y-3009101D01*
X-15767596Y-2932122D01*
X-15711666Y-2855142D01*
X-15634265Y-2681293D01*
X-15634265Y-2681292D01*
X-15594700Y-2495150D01*
X-15594700Y-2304849D01*
X-15634265Y-2118708D01*
X-15711666Y-1944858D01*
X-15823527Y-1790896D01*
X-15823529Y-1790893D01*
X-15964948Y-1663561D01*
X-16129754Y-1568410D01*
X-16310737Y-1509606D01*
X-16310739Y-1509605D01*
X-16351258Y-1505346D01*
X-16452552Y-1494700D01*
X-16547448Y-1494700D01*
X-16665623Y-1507120D01*
X-16689260Y-1509605D01*
X-16689262Y-1509606D01*
X-16870245Y-1568410D01*
X-16870246Y-1568410D01*
X-16870247Y-1568411D01*
X-17035053Y-1663562D01*
X-17084315Y-1707918D01*
X-17176470Y-1790893D01*
X-17176472Y-1790896D01*
X-17176475Y-1790899D01*
X-17207816Y-1834036D01*
X-17288333Y-1944857D01*
X-17363346Y-2113342D01*
X-17365734Y-2118706D01*
X-17405300Y-2304849D01*
X-17405300Y-2495151D01*
X-29643242Y-2495151D01*
X-29627723Y-2403813D01*
X-29626175Y-2397028D01*
X-29544446Y-2113342D01*
X-29542147Y-2106775D01*
X-29429175Y-1834033D01*
X-29426156Y-1827764D01*
X-29283353Y-1569383D01*
X-29279651Y-1563491D01*
X-29108814Y-1322718D01*
X-29104484Y-1317288D01*
X-28986486Y-1185248D01*
X-28907762Y-1097157D01*
X-28902842Y-1092237D01*
X-28827659Y-1025048D01*
X-28682709Y-895513D01*
X-28677281Y-891185D01*
X-28436508Y-720348D01*
X-28430616Y-716646D01*
X-28327385Y-659592D01*
X-28172226Y-573839D01*
X-28165978Y-570829D01*
X-28029594Y-514338D01*
X-27893224Y-457852D01*
X-27886657Y-455553D01*
X-27602964Y-373822D01*
X-27596192Y-372277D01*
X-27305133Y-322825D01*
X-27298244Y-322049D01*
X-27136392Y-312959D01*
X-27001735Y-305398D01*
X-26998258Y-305300D01*
X-26951645Y-305300D01*
X26951645Y-305300D01*
X26998258Y-305300D01*
X27001735Y-305398D01*
G37*
G04 #@! TD.AperFunction*
M02*
