G04 #@! TF.GenerationSoftware,KiCad,Pcbnew,7.0.6*
G04 #@! TF.CreationDate,2023-07-24T20:40:51+09:00*
G04 #@! TF.ProjectId,SmaCon,536d6143-6f6e-42e6-9b69-6361645f7063,V1.0*
G04 #@! TF.SameCoordinates,Original*
G04 #@! TF.FileFunction,Legend,Top*
G04 #@! TF.FilePolarity,Positive*
%FSLAX46Y46*%
G04 Gerber Fmt 4.6, Leading zero omitted, Abs format (unit mm)*
G04 Created by KiCad (PCBNEW 7.0.6) date 2023-07-24 20:40:51*
%MOMM*%
%LPD*%
G01*
G04 APERTURE LIST*
%ADD10C,0.300000*%
%ADD11C,0.150000*%
%ADD12C,0.120000*%
%ADD13C,0.200000*%
%ADD14C,0.100000*%
G04 APERTURE END LIST*
D10*
X-23019047Y-93314400D02*
X-22745238Y-93409638D01*
X-22745238Y-93409638D02*
X-22269047Y-93409638D01*
X-22269047Y-93409638D02*
X-22066666Y-93314400D01*
X-22066666Y-93314400D02*
X-21959523Y-93219161D01*
X-21959523Y-93219161D02*
X-21840476Y-93028685D01*
X-21840476Y-93028685D02*
X-21816666Y-92838209D01*
X-21816666Y-92838209D02*
X-21888095Y-92647733D01*
X-21888095Y-92647733D02*
X-21971428Y-92552495D01*
X-21971428Y-92552495D02*
X-22150000Y-92457257D01*
X-22150000Y-92457257D02*
X-22519047Y-92362019D01*
X-22519047Y-92362019D02*
X-22697619Y-92266780D01*
X-22697619Y-92266780D02*
X-22780952Y-92171542D01*
X-22780952Y-92171542D02*
X-22852380Y-91981066D01*
X-22852380Y-91981066D02*
X-22828571Y-91790590D01*
X-22828571Y-91790590D02*
X-22709523Y-91600114D01*
X-22709523Y-91600114D02*
X-22602380Y-91504876D01*
X-22602380Y-91504876D02*
X-22400000Y-91409638D01*
X-22400000Y-91409638D02*
X-21923809Y-91409638D01*
X-21923809Y-91409638D02*
X-21650000Y-91504876D01*
X-21030952Y-93409638D02*
X-20864285Y-92076304D01*
X-20888095Y-92266780D02*
X-20780952Y-92171542D01*
X-20780952Y-92171542D02*
X-20578571Y-92076304D01*
X-20578571Y-92076304D02*
X-20292857Y-92076304D01*
X-20292857Y-92076304D02*
X-20114285Y-92171542D01*
X-20114285Y-92171542D02*
X-20042857Y-92362019D01*
X-20042857Y-92362019D02*
X-20173809Y-93409638D01*
X-20042857Y-92362019D02*
X-19923809Y-92171542D01*
X-19923809Y-92171542D02*
X-19721428Y-92076304D01*
X-19721428Y-92076304D02*
X-19435714Y-92076304D01*
X-19435714Y-92076304D02*
X-19257142Y-92171542D01*
X-19257142Y-92171542D02*
X-19185714Y-92362019D01*
X-19185714Y-92362019D02*
X-19316666Y-93409638D01*
X-17507142Y-93409638D02*
X-17376190Y-92362019D01*
X-17376190Y-92362019D02*
X-17447618Y-92171542D01*
X-17447618Y-92171542D02*
X-17626190Y-92076304D01*
X-17626190Y-92076304D02*
X-18007142Y-92076304D01*
X-18007142Y-92076304D02*
X-18209523Y-92171542D01*
X-17495237Y-93314400D02*
X-17697618Y-93409638D01*
X-17697618Y-93409638D02*
X-18173809Y-93409638D01*
X-18173809Y-93409638D02*
X-18352380Y-93314400D01*
X-18352380Y-93314400D02*
X-18423809Y-93123923D01*
X-18423809Y-93123923D02*
X-18399999Y-92933447D01*
X-18399999Y-92933447D02*
X-18280951Y-92742971D01*
X-18280951Y-92742971D02*
X-18078571Y-92647733D01*
X-18078571Y-92647733D02*
X-17602380Y-92647733D01*
X-17602380Y-92647733D02*
X-17399999Y-92552495D01*
X-15388094Y-93219161D02*
X-15495237Y-93314400D01*
X-15495237Y-93314400D02*
X-15792856Y-93409638D01*
X-15792856Y-93409638D02*
X-15983332Y-93409638D01*
X-15983332Y-93409638D02*
X-16257142Y-93314400D01*
X-16257142Y-93314400D02*
X-16423808Y-93123923D01*
X-16423808Y-93123923D02*
X-16495237Y-92933447D01*
X-16495237Y-92933447D02*
X-16542856Y-92552495D01*
X-16542856Y-92552495D02*
X-16507142Y-92266780D01*
X-16507142Y-92266780D02*
X-16364285Y-91885828D01*
X-16364285Y-91885828D02*
X-16245237Y-91695352D01*
X-16245237Y-91695352D02*
X-16030951Y-91504876D01*
X-16030951Y-91504876D02*
X-15733332Y-91409638D01*
X-15733332Y-91409638D02*
X-15542856Y-91409638D01*
X-15542856Y-91409638D02*
X-15269047Y-91504876D01*
X-15269047Y-91504876D02*
X-15185713Y-91600114D01*
X-14269047Y-93409638D02*
X-14447618Y-93314400D01*
X-14447618Y-93314400D02*
X-14530951Y-93219161D01*
X-14530951Y-93219161D02*
X-14602380Y-93028685D01*
X-14602380Y-93028685D02*
X-14530951Y-92457257D01*
X-14530951Y-92457257D02*
X-14411904Y-92266780D01*
X-14411904Y-92266780D02*
X-14304761Y-92171542D01*
X-14304761Y-92171542D02*
X-14102380Y-92076304D01*
X-14102380Y-92076304D02*
X-13816666Y-92076304D01*
X-13816666Y-92076304D02*
X-13638094Y-92171542D01*
X-13638094Y-92171542D02*
X-13554761Y-92266780D01*
X-13554761Y-92266780D02*
X-13483332Y-92457257D01*
X-13483332Y-92457257D02*
X-13554761Y-93028685D01*
X-13554761Y-93028685D02*
X-13673808Y-93219161D01*
X-13673808Y-93219161D02*
X-13780951Y-93314400D01*
X-13780951Y-93314400D02*
X-13983332Y-93409638D01*
X-13983332Y-93409638D02*
X-14269047Y-93409638D01*
X-12578570Y-92076304D02*
X-12745237Y-93409638D01*
X-12602380Y-92266780D02*
X-12495237Y-92171542D01*
X-12495237Y-92171542D02*
X-12292856Y-92076304D01*
X-12292856Y-92076304D02*
X-12007142Y-92076304D01*
X-12007142Y-92076304D02*
X-11828570Y-92171542D01*
X-11828570Y-92171542D02*
X-11757142Y-92362019D01*
X-11757142Y-92362019D02*
X-11888094Y-93409638D01*
D11*
X-18904761Y-94454819D02*
X-18696427Y-95454819D01*
X-18696427Y-95454819D02*
X-18238094Y-94454819D01*
X-17505951Y-95454819D02*
X-18077380Y-95454819D01*
X-17791665Y-95454819D02*
X-17666665Y-94454819D01*
X-17666665Y-94454819D02*
X-17779761Y-94597676D01*
X-17779761Y-94597676D02*
X-17886904Y-94692914D01*
X-17886904Y-94692914D02*
X-17988094Y-94740533D01*
X-17065475Y-95359580D02*
X-17023808Y-95407200D01*
X-17023808Y-95407200D02*
X-17077380Y-95454819D01*
X-17077380Y-95454819D02*
X-17119046Y-95407200D01*
X-17119046Y-95407200D02*
X-17065475Y-95359580D01*
X-17065475Y-95359580D02*
X-17077380Y-95454819D01*
X-16285713Y-94454819D02*
X-16190475Y-94454819D01*
X-16190475Y-94454819D02*
X-16101190Y-94502438D01*
X-16101190Y-94502438D02*
X-16059523Y-94550057D01*
X-16059523Y-94550057D02*
X-16023809Y-94645295D01*
X-16023809Y-94645295D02*
X-15999999Y-94835771D01*
X-15999999Y-94835771D02*
X-16029761Y-95073866D01*
X-16029761Y-95073866D02*
X-16101190Y-95264342D01*
X-16101190Y-95264342D02*
X-16160713Y-95359580D01*
X-16160713Y-95359580D02*
X-16214285Y-95407200D01*
X-16214285Y-95407200D02*
X-16315475Y-95454819D01*
X-16315475Y-95454819D02*
X-16410713Y-95454819D01*
X-16410713Y-95454819D02*
X-16499999Y-95407200D01*
X-16499999Y-95407200D02*
X-16541666Y-95359580D01*
X-16541666Y-95359580D02*
X-16577380Y-95264342D01*
X-16577380Y-95264342D02*
X-16601190Y-95073866D01*
X-16601190Y-95073866D02*
X-16571428Y-94835771D01*
X-16571428Y-94835771D02*
X-16499999Y-94645295D01*
X-16499999Y-94645295D02*
X-16440475Y-94550057D01*
X-16440475Y-94550057D02*
X-16386904Y-94502438D01*
X-16386904Y-94502438D02*
X-16285713Y-94454819D01*
X-18142857Y-55359580D02*
X-18190476Y-55407200D01*
X-18190476Y-55407200D02*
X-18333333Y-55454819D01*
X-18333333Y-55454819D02*
X-18428571Y-55454819D01*
X-18428571Y-55454819D02*
X-18571428Y-55407200D01*
X-18571428Y-55407200D02*
X-18666666Y-55311961D01*
X-18666666Y-55311961D02*
X-18714285Y-55216723D01*
X-18714285Y-55216723D02*
X-18761904Y-55026247D01*
X-18761904Y-55026247D02*
X-18761904Y-54883390D01*
X-18761904Y-54883390D02*
X-18714285Y-54692914D01*
X-18714285Y-54692914D02*
X-18666666Y-54597676D01*
X-18666666Y-54597676D02*
X-18571428Y-54502438D01*
X-18571428Y-54502438D02*
X-18428571Y-54454819D01*
X-18428571Y-54454819D02*
X-18333333Y-54454819D01*
X-18333333Y-54454819D02*
X-18190476Y-54502438D01*
X-18190476Y-54502438D02*
X-18142857Y-54550057D01*
X-17190476Y-55454819D02*
X-17761904Y-55454819D01*
X-17476190Y-55454819D02*
X-17476190Y-54454819D01*
X-17476190Y-54454819D02*
X-17571428Y-54597676D01*
X-17571428Y-54597676D02*
X-17666666Y-54692914D01*
X-17666666Y-54692914D02*
X-17761904Y-54740533D01*
X-16333333Y-54454819D02*
X-16523809Y-54454819D01*
X-16523809Y-54454819D02*
X-16619047Y-54502438D01*
X-16619047Y-54502438D02*
X-16666666Y-54550057D01*
X-16666666Y-54550057D02*
X-16761904Y-54692914D01*
X-16761904Y-54692914D02*
X-16809523Y-54883390D01*
X-16809523Y-54883390D02*
X-16809523Y-55264342D01*
X-16809523Y-55264342D02*
X-16761904Y-55359580D01*
X-16761904Y-55359580D02*
X-16714285Y-55407200D01*
X-16714285Y-55407200D02*
X-16619047Y-55454819D01*
X-16619047Y-55454819D02*
X-16428571Y-55454819D01*
X-16428571Y-55454819D02*
X-16333333Y-55407200D01*
X-16333333Y-55407200D02*
X-16285714Y-55359580D01*
X-16285714Y-55359580D02*
X-16238095Y-55264342D01*
X-16238095Y-55264342D02*
X-16238095Y-55026247D01*
X-16238095Y-55026247D02*
X-16285714Y-54931009D01*
X-16285714Y-54931009D02*
X-16333333Y-54883390D01*
X-16333333Y-54883390D02*
X-16428571Y-54835771D01*
X-16428571Y-54835771D02*
X-16619047Y-54835771D01*
X-16619047Y-54835771D02*
X-16714285Y-54883390D01*
X-16714285Y-54883390D02*
X-16761904Y-54931009D01*
X-16761904Y-54931009D02*
X-16809523Y-55026247D01*
X19233333Y-55659580D02*
X19185714Y-55707200D01*
X19185714Y-55707200D02*
X19042857Y-55754819D01*
X19042857Y-55754819D02*
X18947619Y-55754819D01*
X18947619Y-55754819D02*
X18804762Y-55707200D01*
X18804762Y-55707200D02*
X18709524Y-55611961D01*
X18709524Y-55611961D02*
X18661905Y-55516723D01*
X18661905Y-55516723D02*
X18614286Y-55326247D01*
X18614286Y-55326247D02*
X18614286Y-55183390D01*
X18614286Y-55183390D02*
X18661905Y-54992914D01*
X18661905Y-54992914D02*
X18709524Y-54897676D01*
X18709524Y-54897676D02*
X18804762Y-54802438D01*
X18804762Y-54802438D02*
X18947619Y-54754819D01*
X18947619Y-54754819D02*
X19042857Y-54754819D01*
X19042857Y-54754819D02*
X19185714Y-54802438D01*
X19185714Y-54802438D02*
X19233333Y-54850057D01*
X19566667Y-54754819D02*
X20185714Y-54754819D01*
X20185714Y-54754819D02*
X19852381Y-55135771D01*
X19852381Y-55135771D02*
X19995238Y-55135771D01*
X19995238Y-55135771D02*
X20090476Y-55183390D01*
X20090476Y-55183390D02*
X20138095Y-55231009D01*
X20138095Y-55231009D02*
X20185714Y-55326247D01*
X20185714Y-55326247D02*
X20185714Y-55564342D01*
X20185714Y-55564342D02*
X20138095Y-55659580D01*
X20138095Y-55659580D02*
X20090476Y-55707200D01*
X20090476Y-55707200D02*
X19995238Y-55754819D01*
X19995238Y-55754819D02*
X19709524Y-55754819D01*
X19709524Y-55754819D02*
X19614286Y-55707200D01*
X19614286Y-55707200D02*
X19566667Y-55659580D01*
X2104761Y-15450057D02*
X2009523Y-15402438D01*
X2009523Y-15402438D02*
X1914285Y-15307200D01*
X1914285Y-15307200D02*
X1771428Y-15164342D01*
X1771428Y-15164342D02*
X1676190Y-15116723D01*
X1676190Y-15116723D02*
X1580952Y-15116723D01*
X1628571Y-15354819D02*
X1533333Y-15307200D01*
X1533333Y-15307200D02*
X1438095Y-15211961D01*
X1438095Y-15211961D02*
X1390476Y-15021485D01*
X1390476Y-15021485D02*
X1390476Y-14688152D01*
X1390476Y-14688152D02*
X1438095Y-14497676D01*
X1438095Y-14497676D02*
X1533333Y-14402438D01*
X1533333Y-14402438D02*
X1628571Y-14354819D01*
X1628571Y-14354819D02*
X1819047Y-14354819D01*
X1819047Y-14354819D02*
X1914285Y-14402438D01*
X1914285Y-14402438D02*
X2009523Y-14497676D01*
X2009523Y-14497676D02*
X2057142Y-14688152D01*
X2057142Y-14688152D02*
X2057142Y-15021485D01*
X2057142Y-15021485D02*
X2009523Y-15211961D01*
X2009523Y-15211961D02*
X1914285Y-15307200D01*
X1914285Y-15307200D02*
X1819047Y-15354819D01*
X1819047Y-15354819D02*
X1628571Y-15354819D01*
X3009523Y-15354819D02*
X2438095Y-15354819D01*
X2723809Y-15354819D02*
X2723809Y-14354819D01*
X2723809Y-14354819D02*
X2628571Y-14497676D01*
X2628571Y-14497676D02*
X2533333Y-14592914D01*
X2533333Y-14592914D02*
X2438095Y-14640533D01*
X4338095Y-29454819D02*
X4338095Y-30264342D01*
X4338095Y-30264342D02*
X4385714Y-30359580D01*
X4385714Y-30359580D02*
X4433333Y-30407200D01*
X4433333Y-30407200D02*
X4528571Y-30454819D01*
X4528571Y-30454819D02*
X4719047Y-30454819D01*
X4719047Y-30454819D02*
X4814285Y-30407200D01*
X4814285Y-30407200D02*
X4861904Y-30359580D01*
X4861904Y-30359580D02*
X4909523Y-30264342D01*
X4909523Y-30264342D02*
X4909523Y-29454819D01*
X5814285Y-29788152D02*
X5814285Y-30454819D01*
X5576190Y-29407200D02*
X5338095Y-30121485D01*
X5338095Y-30121485D02*
X5957142Y-30121485D01*
X-18142857Y-27054819D02*
X-18476190Y-26578628D01*
X-18714285Y-27054819D02*
X-18714285Y-26054819D01*
X-18714285Y-26054819D02*
X-18333333Y-26054819D01*
X-18333333Y-26054819D02*
X-18238095Y-26102438D01*
X-18238095Y-26102438D02*
X-18190476Y-26150057D01*
X-18190476Y-26150057D02*
X-18142857Y-26245295D01*
X-18142857Y-26245295D02*
X-18142857Y-26388152D01*
X-18142857Y-26388152D02*
X-18190476Y-26483390D01*
X-18190476Y-26483390D02*
X-18238095Y-26531009D01*
X-18238095Y-26531009D02*
X-18333333Y-26578628D01*
X-18333333Y-26578628D02*
X-18714285Y-26578628D01*
X-17190476Y-27054819D02*
X-17761904Y-27054819D01*
X-17476190Y-27054819D02*
X-17476190Y-26054819D01*
X-17476190Y-26054819D02*
X-17571428Y-26197676D01*
X-17571428Y-26197676D02*
X-17666666Y-26292914D01*
X-17666666Y-26292914D02*
X-17761904Y-26340533D01*
X-16238095Y-27054819D02*
X-16809523Y-27054819D01*
X-16523809Y-27054819D02*
X-16523809Y-26054819D01*
X-16523809Y-26054819D02*
X-16619047Y-26197676D01*
X-16619047Y-26197676D02*
X-16714285Y-26292914D01*
X-16714285Y-26292914D02*
X-16809523Y-26340533D01*
X16333333Y-41059580D02*
X16285714Y-41107200D01*
X16285714Y-41107200D02*
X16142857Y-41154819D01*
X16142857Y-41154819D02*
X16047619Y-41154819D01*
X16047619Y-41154819D02*
X15904762Y-41107200D01*
X15904762Y-41107200D02*
X15809524Y-41011961D01*
X15809524Y-41011961D02*
X15761905Y-40916723D01*
X15761905Y-40916723D02*
X15714286Y-40726247D01*
X15714286Y-40726247D02*
X15714286Y-40583390D01*
X15714286Y-40583390D02*
X15761905Y-40392914D01*
X15761905Y-40392914D02*
X15809524Y-40297676D01*
X15809524Y-40297676D02*
X15904762Y-40202438D01*
X15904762Y-40202438D02*
X16047619Y-40154819D01*
X16047619Y-40154819D02*
X16142857Y-40154819D01*
X16142857Y-40154819D02*
X16285714Y-40202438D01*
X16285714Y-40202438D02*
X16333333Y-40250057D01*
X17190476Y-40488152D02*
X17190476Y-41154819D01*
X16952381Y-40107200D02*
X16714286Y-40821485D01*
X16714286Y-40821485D02*
X17333333Y-40821485D01*
X12833333Y-62154819D02*
X12500000Y-61678628D01*
X12261905Y-62154819D02*
X12261905Y-61154819D01*
X12261905Y-61154819D02*
X12642857Y-61154819D01*
X12642857Y-61154819D02*
X12738095Y-61202438D01*
X12738095Y-61202438D02*
X12785714Y-61250057D01*
X12785714Y-61250057D02*
X12833333Y-61345295D01*
X12833333Y-61345295D02*
X12833333Y-61488152D01*
X12833333Y-61488152D02*
X12785714Y-61583390D01*
X12785714Y-61583390D02*
X12738095Y-61631009D01*
X12738095Y-61631009D02*
X12642857Y-61678628D01*
X12642857Y-61678628D02*
X12261905Y-61678628D01*
X13214286Y-61250057D02*
X13261905Y-61202438D01*
X13261905Y-61202438D02*
X13357143Y-61154819D01*
X13357143Y-61154819D02*
X13595238Y-61154819D01*
X13595238Y-61154819D02*
X13690476Y-61202438D01*
X13690476Y-61202438D02*
X13738095Y-61250057D01*
X13738095Y-61250057D02*
X13785714Y-61345295D01*
X13785714Y-61345295D02*
X13785714Y-61440533D01*
X13785714Y-61440533D02*
X13738095Y-61583390D01*
X13738095Y-61583390D02*
X13166667Y-62154819D01*
X13166667Y-62154819D02*
X13785714Y-62154819D01*
X-12476190Y-51878628D02*
X-12476190Y-52354819D01*
X-12809523Y-51354819D02*
X-12476190Y-51878628D01*
X-12476190Y-51878628D02*
X-12142857Y-51354819D01*
X-11285714Y-52354819D02*
X-11857142Y-52354819D01*
X-11571428Y-52354819D02*
X-11571428Y-51354819D01*
X-11571428Y-51354819D02*
X-11666666Y-51497676D01*
X-11666666Y-51497676D02*
X-11761904Y-51592914D01*
X-11761904Y-51592914D02*
X-11857142Y-51640533D01*
X-12642857Y-43159580D02*
X-12690476Y-43207200D01*
X-12690476Y-43207200D02*
X-12833333Y-43254819D01*
X-12833333Y-43254819D02*
X-12928571Y-43254819D01*
X-12928571Y-43254819D02*
X-13071428Y-43207200D01*
X-13071428Y-43207200D02*
X-13166666Y-43111961D01*
X-13166666Y-43111961D02*
X-13214285Y-43016723D01*
X-13214285Y-43016723D02*
X-13261904Y-42826247D01*
X-13261904Y-42826247D02*
X-13261904Y-42683390D01*
X-13261904Y-42683390D02*
X-13214285Y-42492914D01*
X-13214285Y-42492914D02*
X-13166666Y-42397676D01*
X-13166666Y-42397676D02*
X-13071428Y-42302438D01*
X-13071428Y-42302438D02*
X-12928571Y-42254819D01*
X-12928571Y-42254819D02*
X-12833333Y-42254819D01*
X-12833333Y-42254819D02*
X-12690476Y-42302438D01*
X-12690476Y-42302438D02*
X-12642857Y-42350057D01*
X-11690476Y-43254819D02*
X-12261904Y-43254819D01*
X-11976190Y-43254819D02*
X-11976190Y-42254819D01*
X-11976190Y-42254819D02*
X-12071428Y-42397676D01*
X-12071428Y-42397676D02*
X-12166666Y-42492914D01*
X-12166666Y-42492914D02*
X-12261904Y-42540533D01*
X-11309523Y-42350057D02*
X-11261904Y-42302438D01*
X-11261904Y-42302438D02*
X-11166666Y-42254819D01*
X-11166666Y-42254819D02*
X-10928571Y-42254819D01*
X-10928571Y-42254819D02*
X-10833333Y-42302438D01*
X-10833333Y-42302438D02*
X-10785714Y-42350057D01*
X-10785714Y-42350057D02*
X-10738095Y-42445295D01*
X-10738095Y-42445295D02*
X-10738095Y-42540533D01*
X-10738095Y-42540533D02*
X-10785714Y-42683390D01*
X-10785714Y-42683390D02*
X-11357142Y-43254819D01*
X-11357142Y-43254819D02*
X-10738095Y-43254819D01*
X-22942857Y-59359580D02*
X-22990476Y-59407200D01*
X-22990476Y-59407200D02*
X-23133333Y-59454819D01*
X-23133333Y-59454819D02*
X-23228571Y-59454819D01*
X-23228571Y-59454819D02*
X-23371428Y-59407200D01*
X-23371428Y-59407200D02*
X-23466666Y-59311961D01*
X-23466666Y-59311961D02*
X-23514285Y-59216723D01*
X-23514285Y-59216723D02*
X-23561904Y-59026247D01*
X-23561904Y-59026247D02*
X-23561904Y-58883390D01*
X-23561904Y-58883390D02*
X-23514285Y-58692914D01*
X-23514285Y-58692914D02*
X-23466666Y-58597676D01*
X-23466666Y-58597676D02*
X-23371428Y-58502438D01*
X-23371428Y-58502438D02*
X-23228571Y-58454819D01*
X-23228571Y-58454819D02*
X-23133333Y-58454819D01*
X-23133333Y-58454819D02*
X-22990476Y-58502438D01*
X-22990476Y-58502438D02*
X-22942857Y-58550057D01*
X-21990476Y-59454819D02*
X-22561904Y-59454819D01*
X-22276190Y-59454819D02*
X-22276190Y-58454819D01*
X-22276190Y-58454819D02*
X-22371428Y-58597676D01*
X-22371428Y-58597676D02*
X-22466666Y-58692914D01*
X-22466666Y-58692914D02*
X-22561904Y-58740533D01*
X-21133333Y-58788152D02*
X-21133333Y-59454819D01*
X-21371428Y-58407200D02*
X-21609523Y-59121485D01*
X-21609523Y-59121485D02*
X-20990476Y-59121485D01*
X14733333Y-50859580D02*
X14685714Y-50907200D01*
X14685714Y-50907200D02*
X14542857Y-50954819D01*
X14542857Y-50954819D02*
X14447619Y-50954819D01*
X14447619Y-50954819D02*
X14304762Y-50907200D01*
X14304762Y-50907200D02*
X14209524Y-50811961D01*
X14209524Y-50811961D02*
X14161905Y-50716723D01*
X14161905Y-50716723D02*
X14114286Y-50526247D01*
X14114286Y-50526247D02*
X14114286Y-50383390D01*
X14114286Y-50383390D02*
X14161905Y-50192914D01*
X14161905Y-50192914D02*
X14209524Y-50097676D01*
X14209524Y-50097676D02*
X14304762Y-50002438D01*
X14304762Y-50002438D02*
X14447619Y-49954819D01*
X14447619Y-49954819D02*
X14542857Y-49954819D01*
X14542857Y-49954819D02*
X14685714Y-50002438D01*
X14685714Y-50002438D02*
X14733333Y-50050057D01*
X15685714Y-50954819D02*
X15114286Y-50954819D01*
X15400000Y-50954819D02*
X15400000Y-49954819D01*
X15400000Y-49954819D02*
X15304762Y-50097676D01*
X15304762Y-50097676D02*
X15209524Y-50192914D01*
X15209524Y-50192914D02*
X15114286Y-50240533D01*
X-18142857Y-60359580D02*
X-18190476Y-60407200D01*
X-18190476Y-60407200D02*
X-18333333Y-60454819D01*
X-18333333Y-60454819D02*
X-18428571Y-60454819D01*
X-18428571Y-60454819D02*
X-18571428Y-60407200D01*
X-18571428Y-60407200D02*
X-18666666Y-60311961D01*
X-18666666Y-60311961D02*
X-18714285Y-60216723D01*
X-18714285Y-60216723D02*
X-18761904Y-60026247D01*
X-18761904Y-60026247D02*
X-18761904Y-59883390D01*
X-18761904Y-59883390D02*
X-18714285Y-59692914D01*
X-18714285Y-59692914D02*
X-18666666Y-59597676D01*
X-18666666Y-59597676D02*
X-18571428Y-59502438D01*
X-18571428Y-59502438D02*
X-18428571Y-59454819D01*
X-18428571Y-59454819D02*
X-18333333Y-59454819D01*
X-18333333Y-59454819D02*
X-18190476Y-59502438D01*
X-18190476Y-59502438D02*
X-18142857Y-59550057D01*
X-17190476Y-60454819D02*
X-17761904Y-60454819D01*
X-17476190Y-60454819D02*
X-17476190Y-59454819D01*
X-17476190Y-59454819D02*
X-17571428Y-59597676D01*
X-17571428Y-59597676D02*
X-17666666Y-59692914D01*
X-17666666Y-59692914D02*
X-17761904Y-59740533D01*
X-16285714Y-59454819D02*
X-16761904Y-59454819D01*
X-16761904Y-59454819D02*
X-16809523Y-59931009D01*
X-16809523Y-59931009D02*
X-16761904Y-59883390D01*
X-16761904Y-59883390D02*
X-16666666Y-59835771D01*
X-16666666Y-59835771D02*
X-16428571Y-59835771D01*
X-16428571Y-59835771D02*
X-16333333Y-59883390D01*
X-16333333Y-59883390D02*
X-16285714Y-59931009D01*
X-16285714Y-59931009D02*
X-16238095Y-60026247D01*
X-16238095Y-60026247D02*
X-16238095Y-60264342D01*
X-16238095Y-60264342D02*
X-16285714Y-60359580D01*
X-16285714Y-60359580D02*
X-16333333Y-60407200D01*
X-16333333Y-60407200D02*
X-16428571Y-60454819D01*
X-16428571Y-60454819D02*
X-16666666Y-60454819D01*
X-16666666Y-60454819D02*
X-16761904Y-60407200D01*
X-16761904Y-60407200D02*
X-16809523Y-60359580D01*
X-21816666Y-63559580D02*
X-21864285Y-63607200D01*
X-21864285Y-63607200D02*
X-22007142Y-63654819D01*
X-22007142Y-63654819D02*
X-22102380Y-63654819D01*
X-22102380Y-63654819D02*
X-22245237Y-63607200D01*
X-22245237Y-63607200D02*
X-22340475Y-63511961D01*
X-22340475Y-63511961D02*
X-22388094Y-63416723D01*
X-22388094Y-63416723D02*
X-22435713Y-63226247D01*
X-22435713Y-63226247D02*
X-22435713Y-63083390D01*
X-22435713Y-63083390D02*
X-22388094Y-62892914D01*
X-22388094Y-62892914D02*
X-22340475Y-62797676D01*
X-22340475Y-62797676D02*
X-22245237Y-62702438D01*
X-22245237Y-62702438D02*
X-22102380Y-62654819D01*
X-22102380Y-62654819D02*
X-22007142Y-62654819D01*
X-22007142Y-62654819D02*
X-21864285Y-62702438D01*
X-21864285Y-62702438D02*
X-21816666Y-62750057D01*
X-21483332Y-62654819D02*
X-20816666Y-62654819D01*
X-20816666Y-62654819D02*
X-21245237Y-63654819D01*
X-10466666Y-27359580D02*
X-10514285Y-27407200D01*
X-10514285Y-27407200D02*
X-10657142Y-27454819D01*
X-10657142Y-27454819D02*
X-10752380Y-27454819D01*
X-10752380Y-27454819D02*
X-10895237Y-27407200D01*
X-10895237Y-27407200D02*
X-10990475Y-27311961D01*
X-10990475Y-27311961D02*
X-11038094Y-27216723D01*
X-11038094Y-27216723D02*
X-11085713Y-27026247D01*
X-11085713Y-27026247D02*
X-11085713Y-26883390D01*
X-11085713Y-26883390D02*
X-11038094Y-26692914D01*
X-11038094Y-26692914D02*
X-10990475Y-26597676D01*
X-10990475Y-26597676D02*
X-10895237Y-26502438D01*
X-10895237Y-26502438D02*
X-10752380Y-26454819D01*
X-10752380Y-26454819D02*
X-10657142Y-26454819D01*
X-10657142Y-26454819D02*
X-10514285Y-26502438D01*
X-10514285Y-26502438D02*
X-10466666Y-26550057D01*
X-9561904Y-26454819D02*
X-10038094Y-26454819D01*
X-10038094Y-26454819D02*
X-10085713Y-26931009D01*
X-10085713Y-26931009D02*
X-10038094Y-26883390D01*
X-10038094Y-26883390D02*
X-9942856Y-26835771D01*
X-9942856Y-26835771D02*
X-9704761Y-26835771D01*
X-9704761Y-26835771D02*
X-9609523Y-26883390D01*
X-9609523Y-26883390D02*
X-9561904Y-26931009D01*
X-9561904Y-26931009D02*
X-9514285Y-27026247D01*
X-9514285Y-27026247D02*
X-9514285Y-27264342D01*
X-9514285Y-27264342D02*
X-9561904Y-27359580D01*
X-9561904Y-27359580D02*
X-9609523Y-27407200D01*
X-9609523Y-27407200D02*
X-9704761Y-27454819D01*
X-9704761Y-27454819D02*
X-9942856Y-27454819D01*
X-9942856Y-27454819D02*
X-10038094Y-27407200D01*
X-10038094Y-27407200D02*
X-10085713Y-27359580D01*
X457142Y-42859580D02*
X409523Y-42907200D01*
X409523Y-42907200D02*
X266666Y-42954819D01*
X266666Y-42954819D02*
X171428Y-42954819D01*
X171428Y-42954819D02*
X28571Y-42907200D01*
X28571Y-42907200D02*
X-66666Y-42811961D01*
X-66666Y-42811961D02*
X-114285Y-42716723D01*
X-114285Y-42716723D02*
X-161904Y-42526247D01*
X-161904Y-42526247D02*
X-161904Y-42383390D01*
X-161904Y-42383390D02*
X-114285Y-42192914D01*
X-114285Y-42192914D02*
X-66666Y-42097676D01*
X-66666Y-42097676D02*
X28571Y-42002438D01*
X28571Y-42002438D02*
X171428Y-41954819D01*
X171428Y-41954819D02*
X266666Y-41954819D01*
X266666Y-41954819D02*
X409523Y-42002438D01*
X409523Y-42002438D02*
X457142Y-42050057D01*
X1409523Y-42954819D02*
X838095Y-42954819D01*
X1123809Y-42954819D02*
X1123809Y-41954819D01*
X1123809Y-41954819D02*
X1028571Y-42097676D01*
X1028571Y-42097676D02*
X933333Y-42192914D01*
X933333Y-42192914D02*
X838095Y-42240533D01*
X1742857Y-41954819D02*
X2409523Y-41954819D01*
X2409523Y-41954819D02*
X1980952Y-42954819D01*
X9707142Y-41154819D02*
X9373809Y-40678628D01*
X9135714Y-41154819D02*
X9135714Y-40154819D01*
X9135714Y-40154819D02*
X9516666Y-40154819D01*
X9516666Y-40154819D02*
X9611904Y-40202438D01*
X9611904Y-40202438D02*
X9659523Y-40250057D01*
X9659523Y-40250057D02*
X9707142Y-40345295D01*
X9707142Y-40345295D02*
X9707142Y-40488152D01*
X9707142Y-40488152D02*
X9659523Y-40583390D01*
X9659523Y-40583390D02*
X9611904Y-40631009D01*
X9611904Y-40631009D02*
X9516666Y-40678628D01*
X9516666Y-40678628D02*
X9135714Y-40678628D01*
X10659523Y-41154819D02*
X10088095Y-41154819D01*
X10373809Y-41154819D02*
X10373809Y-40154819D01*
X10373809Y-40154819D02*
X10278571Y-40297676D01*
X10278571Y-40297676D02*
X10183333Y-40392914D01*
X10183333Y-40392914D02*
X10088095Y-40440533D01*
X11564285Y-40154819D02*
X11088095Y-40154819D01*
X11088095Y-40154819D02*
X11040476Y-40631009D01*
X11040476Y-40631009D02*
X11088095Y-40583390D01*
X11088095Y-40583390D02*
X11183333Y-40535771D01*
X11183333Y-40535771D02*
X11421428Y-40535771D01*
X11421428Y-40535771D02*
X11516666Y-40583390D01*
X11516666Y-40583390D02*
X11564285Y-40631009D01*
X11564285Y-40631009D02*
X11611904Y-40726247D01*
X11611904Y-40726247D02*
X11611904Y-40964342D01*
X11611904Y-40964342D02*
X11564285Y-41059580D01*
X11564285Y-41059580D02*
X11516666Y-41107200D01*
X11516666Y-41107200D02*
X11421428Y-41154819D01*
X11421428Y-41154819D02*
X11183333Y-41154819D01*
X11183333Y-41154819D02*
X11088095Y-41107200D01*
X11088095Y-41107200D02*
X11040476Y-41059580D01*
X1083333Y-22854819D02*
X750000Y-22378628D01*
X511905Y-22854819D02*
X511905Y-21854819D01*
X511905Y-21854819D02*
X892857Y-21854819D01*
X892857Y-21854819D02*
X988095Y-21902438D01*
X988095Y-21902438D02*
X1035714Y-21950057D01*
X1035714Y-21950057D02*
X1083333Y-22045295D01*
X1083333Y-22045295D02*
X1083333Y-22188152D01*
X1083333Y-22188152D02*
X1035714Y-22283390D01*
X1035714Y-22283390D02*
X988095Y-22331009D01*
X988095Y-22331009D02*
X892857Y-22378628D01*
X892857Y-22378628D02*
X511905Y-22378628D01*
X1940476Y-22188152D02*
X1940476Y-22854819D01*
X1702381Y-21807200D02*
X1464286Y-22521485D01*
X1464286Y-22521485D02*
X2083333Y-22521485D01*
X-3342857Y-17459580D02*
X-3390476Y-17507200D01*
X-3390476Y-17507200D02*
X-3533333Y-17554819D01*
X-3533333Y-17554819D02*
X-3628571Y-17554819D01*
X-3628571Y-17554819D02*
X-3771428Y-17507200D01*
X-3771428Y-17507200D02*
X-3866666Y-17411961D01*
X-3866666Y-17411961D02*
X-3914285Y-17316723D01*
X-3914285Y-17316723D02*
X-3961904Y-17126247D01*
X-3961904Y-17126247D02*
X-3961904Y-16983390D01*
X-3961904Y-16983390D02*
X-3914285Y-16792914D01*
X-3914285Y-16792914D02*
X-3866666Y-16697676D01*
X-3866666Y-16697676D02*
X-3771428Y-16602438D01*
X-3771428Y-16602438D02*
X-3628571Y-16554819D01*
X-3628571Y-16554819D02*
X-3533333Y-16554819D01*
X-3533333Y-16554819D02*
X-3390476Y-16602438D01*
X-3390476Y-16602438D02*
X-3342857Y-16650057D01*
X-2390476Y-17554819D02*
X-2961904Y-17554819D01*
X-2676190Y-17554819D02*
X-2676190Y-16554819D01*
X-2676190Y-16554819D02*
X-2771428Y-16697676D01*
X-2771428Y-16697676D02*
X-2866666Y-16792914D01*
X-2866666Y-16792914D02*
X-2961904Y-16840533D01*
X-1771428Y-16554819D02*
X-1676190Y-16554819D01*
X-1676190Y-16554819D02*
X-1580952Y-16602438D01*
X-1580952Y-16602438D02*
X-1533333Y-16650057D01*
X-1533333Y-16650057D02*
X-1485714Y-16745295D01*
X-1485714Y-16745295D02*
X-1438095Y-16935771D01*
X-1438095Y-16935771D02*
X-1438095Y-17173866D01*
X-1438095Y-17173866D02*
X-1485714Y-17364342D01*
X-1485714Y-17364342D02*
X-1533333Y-17459580D01*
X-1533333Y-17459580D02*
X-1580952Y-17507200D01*
X-1580952Y-17507200D02*
X-1676190Y-17554819D01*
X-1676190Y-17554819D02*
X-1771428Y-17554819D01*
X-1771428Y-17554819D02*
X-1866666Y-17507200D01*
X-1866666Y-17507200D02*
X-1914285Y-17459580D01*
X-1914285Y-17459580D02*
X-1961904Y-17364342D01*
X-1961904Y-17364342D02*
X-2009523Y-17173866D01*
X-2009523Y-17173866D02*
X-2009523Y-16935771D01*
X-2009523Y-16935771D02*
X-1961904Y-16745295D01*
X-1961904Y-16745295D02*
X-1914285Y-16650057D01*
X-1914285Y-16650057D02*
X-1866666Y-16602438D01*
X-1866666Y-16602438D02*
X-1771428Y-16554819D01*
X2357142Y-10154819D02*
X2023809Y-9678628D01*
X1785714Y-10154819D02*
X1785714Y-9154819D01*
X1785714Y-9154819D02*
X2166666Y-9154819D01*
X2166666Y-9154819D02*
X2261904Y-9202438D01*
X2261904Y-9202438D02*
X2309523Y-9250057D01*
X2309523Y-9250057D02*
X2357142Y-9345295D01*
X2357142Y-9345295D02*
X2357142Y-9488152D01*
X2357142Y-9488152D02*
X2309523Y-9583390D01*
X2309523Y-9583390D02*
X2261904Y-9631009D01*
X2261904Y-9631009D02*
X2166666Y-9678628D01*
X2166666Y-9678628D02*
X1785714Y-9678628D01*
X3309523Y-10154819D02*
X2738095Y-10154819D01*
X3023809Y-10154819D02*
X3023809Y-9154819D01*
X3023809Y-9154819D02*
X2928571Y-9297676D01*
X2928571Y-9297676D02*
X2833333Y-9392914D01*
X2833333Y-9392914D02*
X2738095Y-9440533D01*
X4166666Y-9488152D02*
X4166666Y-10154819D01*
X3928571Y-9107200D02*
X3690476Y-9821485D01*
X3690476Y-9821485D02*
X4309523Y-9821485D01*
X-966666Y-22854819D02*
X-1442856Y-22854819D01*
X-1442856Y-22854819D02*
X-1442856Y-21854819D01*
X-680951Y-21950057D02*
X-633332Y-21902438D01*
X-633332Y-21902438D02*
X-538094Y-21854819D01*
X-538094Y-21854819D02*
X-299999Y-21854819D01*
X-299999Y-21854819D02*
X-204761Y-21902438D01*
X-204761Y-21902438D02*
X-157142Y-21950057D01*
X-157142Y-21950057D02*
X-109523Y-22045295D01*
X-109523Y-22045295D02*
X-109523Y-22140533D01*
X-109523Y-22140533D02*
X-157142Y-22283390D01*
X-157142Y-22283390D02*
X-728570Y-22854819D01*
X-728570Y-22854819D02*
X-109523Y-22854819D01*
X9833333Y-53054819D02*
X9357143Y-53054819D01*
X9357143Y-53054819D02*
X9357143Y-52054819D01*
X10690476Y-53054819D02*
X10119048Y-53054819D01*
X10404762Y-53054819D02*
X10404762Y-52054819D01*
X10404762Y-52054819D02*
X10309524Y-52197676D01*
X10309524Y-52197676D02*
X10214286Y-52292914D01*
X10214286Y-52292914D02*
X10119048Y-52340533D01*
X15238095Y-58954819D02*
X15238095Y-59764342D01*
X15238095Y-59764342D02*
X15285714Y-59859580D01*
X15285714Y-59859580D02*
X15333333Y-59907200D01*
X15333333Y-59907200D02*
X15428571Y-59954819D01*
X15428571Y-59954819D02*
X15619047Y-59954819D01*
X15619047Y-59954819D02*
X15714285Y-59907200D01*
X15714285Y-59907200D02*
X15761904Y-59859580D01*
X15761904Y-59859580D02*
X15809523Y-59764342D01*
X15809523Y-59764342D02*
X15809523Y-58954819D01*
X16238095Y-59050057D02*
X16285714Y-59002438D01*
X16285714Y-59002438D02*
X16380952Y-58954819D01*
X16380952Y-58954819D02*
X16619047Y-58954819D01*
X16619047Y-58954819D02*
X16714285Y-59002438D01*
X16714285Y-59002438D02*
X16761904Y-59050057D01*
X16761904Y-59050057D02*
X16809523Y-59145295D01*
X16809523Y-59145295D02*
X16809523Y-59240533D01*
X16809523Y-59240533D02*
X16761904Y-59383390D01*
X16761904Y-59383390D02*
X16190476Y-59954819D01*
X16190476Y-59954819D02*
X16809523Y-59954819D01*
X13333333Y-41154819D02*
X13000000Y-40678628D01*
X12761905Y-41154819D02*
X12761905Y-40154819D01*
X12761905Y-40154819D02*
X13142857Y-40154819D01*
X13142857Y-40154819D02*
X13238095Y-40202438D01*
X13238095Y-40202438D02*
X13285714Y-40250057D01*
X13285714Y-40250057D02*
X13333333Y-40345295D01*
X13333333Y-40345295D02*
X13333333Y-40488152D01*
X13333333Y-40488152D02*
X13285714Y-40583390D01*
X13285714Y-40583390D02*
X13238095Y-40631009D01*
X13238095Y-40631009D02*
X13142857Y-40678628D01*
X13142857Y-40678628D02*
X12761905Y-40678628D01*
X13666667Y-40154819D02*
X14285714Y-40154819D01*
X14285714Y-40154819D02*
X13952381Y-40535771D01*
X13952381Y-40535771D02*
X14095238Y-40535771D01*
X14095238Y-40535771D02*
X14190476Y-40583390D01*
X14190476Y-40583390D02*
X14238095Y-40631009D01*
X14238095Y-40631009D02*
X14285714Y-40726247D01*
X14285714Y-40726247D02*
X14285714Y-40964342D01*
X14285714Y-40964342D02*
X14238095Y-41059580D01*
X14238095Y-41059580D02*
X14190476Y-41107200D01*
X14190476Y-41107200D02*
X14095238Y-41154819D01*
X14095238Y-41154819D02*
X13809524Y-41154819D01*
X13809524Y-41154819D02*
X13714286Y-41107200D01*
X13714286Y-41107200D02*
X13666667Y-41059580D01*
X14238095Y-47454819D02*
X14238095Y-48264342D01*
X14238095Y-48264342D02*
X14285714Y-48359580D01*
X14285714Y-48359580D02*
X14333333Y-48407200D01*
X14333333Y-48407200D02*
X14428571Y-48454819D01*
X14428571Y-48454819D02*
X14619047Y-48454819D01*
X14619047Y-48454819D02*
X14714285Y-48407200D01*
X14714285Y-48407200D02*
X14761904Y-48359580D01*
X14761904Y-48359580D02*
X14809523Y-48264342D01*
X14809523Y-48264342D02*
X14809523Y-47454819D01*
X15190476Y-47454819D02*
X15809523Y-47454819D01*
X15809523Y-47454819D02*
X15476190Y-47835771D01*
X15476190Y-47835771D02*
X15619047Y-47835771D01*
X15619047Y-47835771D02*
X15714285Y-47883390D01*
X15714285Y-47883390D02*
X15761904Y-47931009D01*
X15761904Y-47931009D02*
X15809523Y-48026247D01*
X15809523Y-48026247D02*
X15809523Y-48264342D01*
X15809523Y-48264342D02*
X15761904Y-48359580D01*
X15761904Y-48359580D02*
X15714285Y-48407200D01*
X15714285Y-48407200D02*
X15619047Y-48454819D01*
X15619047Y-48454819D02*
X15333333Y-48454819D01*
X15333333Y-48454819D02*
X15238095Y-48407200D01*
X15238095Y-48407200D02*
X15190476Y-48359580D01*
X6783333Y-39859580D02*
X6735714Y-39907200D01*
X6735714Y-39907200D02*
X6592857Y-39954819D01*
X6592857Y-39954819D02*
X6497619Y-39954819D01*
X6497619Y-39954819D02*
X6354762Y-39907200D01*
X6354762Y-39907200D02*
X6259524Y-39811961D01*
X6259524Y-39811961D02*
X6211905Y-39716723D01*
X6211905Y-39716723D02*
X6164286Y-39526247D01*
X6164286Y-39526247D02*
X6164286Y-39383390D01*
X6164286Y-39383390D02*
X6211905Y-39192914D01*
X6211905Y-39192914D02*
X6259524Y-39097676D01*
X6259524Y-39097676D02*
X6354762Y-39002438D01*
X6354762Y-39002438D02*
X6497619Y-38954819D01*
X6497619Y-38954819D02*
X6592857Y-38954819D01*
X6592857Y-38954819D02*
X6735714Y-39002438D01*
X6735714Y-39002438D02*
X6783333Y-39050057D01*
X7259524Y-39954819D02*
X7450000Y-39954819D01*
X7450000Y-39954819D02*
X7545238Y-39907200D01*
X7545238Y-39907200D02*
X7592857Y-39859580D01*
X7592857Y-39859580D02*
X7688095Y-39716723D01*
X7688095Y-39716723D02*
X7735714Y-39526247D01*
X7735714Y-39526247D02*
X7735714Y-39145295D01*
X7735714Y-39145295D02*
X7688095Y-39050057D01*
X7688095Y-39050057D02*
X7640476Y-39002438D01*
X7640476Y-39002438D02*
X7545238Y-38954819D01*
X7545238Y-38954819D02*
X7354762Y-38954819D01*
X7354762Y-38954819D02*
X7259524Y-39002438D01*
X7259524Y-39002438D02*
X7211905Y-39050057D01*
X7211905Y-39050057D02*
X7164286Y-39145295D01*
X7164286Y-39145295D02*
X7164286Y-39383390D01*
X7164286Y-39383390D02*
X7211905Y-39478628D01*
X7211905Y-39478628D02*
X7259524Y-39526247D01*
X7259524Y-39526247D02*
X7354762Y-39573866D01*
X7354762Y-39573866D02*
X7545238Y-39573866D01*
X7545238Y-39573866D02*
X7640476Y-39526247D01*
X7640476Y-39526247D02*
X7688095Y-39478628D01*
X7688095Y-39478628D02*
X7735714Y-39383390D01*
X6783333Y-38609580D02*
X6735714Y-38657200D01*
X6735714Y-38657200D02*
X6592857Y-38704819D01*
X6592857Y-38704819D02*
X6497619Y-38704819D01*
X6497619Y-38704819D02*
X6354762Y-38657200D01*
X6354762Y-38657200D02*
X6259524Y-38561961D01*
X6259524Y-38561961D02*
X6211905Y-38466723D01*
X6211905Y-38466723D02*
X6164286Y-38276247D01*
X6164286Y-38276247D02*
X6164286Y-38133390D01*
X6164286Y-38133390D02*
X6211905Y-37942914D01*
X6211905Y-37942914D02*
X6259524Y-37847676D01*
X6259524Y-37847676D02*
X6354762Y-37752438D01*
X6354762Y-37752438D02*
X6497619Y-37704819D01*
X6497619Y-37704819D02*
X6592857Y-37704819D01*
X6592857Y-37704819D02*
X6735714Y-37752438D01*
X6735714Y-37752438D02*
X6783333Y-37800057D01*
X7354762Y-38133390D02*
X7259524Y-38085771D01*
X7259524Y-38085771D02*
X7211905Y-38038152D01*
X7211905Y-38038152D02*
X7164286Y-37942914D01*
X7164286Y-37942914D02*
X7164286Y-37895295D01*
X7164286Y-37895295D02*
X7211905Y-37800057D01*
X7211905Y-37800057D02*
X7259524Y-37752438D01*
X7259524Y-37752438D02*
X7354762Y-37704819D01*
X7354762Y-37704819D02*
X7545238Y-37704819D01*
X7545238Y-37704819D02*
X7640476Y-37752438D01*
X7640476Y-37752438D02*
X7688095Y-37800057D01*
X7688095Y-37800057D02*
X7735714Y-37895295D01*
X7735714Y-37895295D02*
X7735714Y-37942914D01*
X7735714Y-37942914D02*
X7688095Y-38038152D01*
X7688095Y-38038152D02*
X7640476Y-38085771D01*
X7640476Y-38085771D02*
X7545238Y-38133390D01*
X7545238Y-38133390D02*
X7354762Y-38133390D01*
X7354762Y-38133390D02*
X7259524Y-38181009D01*
X7259524Y-38181009D02*
X7211905Y-38228628D01*
X7211905Y-38228628D02*
X7164286Y-38323866D01*
X7164286Y-38323866D02*
X7164286Y-38514342D01*
X7164286Y-38514342D02*
X7211905Y-38609580D01*
X7211905Y-38609580D02*
X7259524Y-38657200D01*
X7259524Y-38657200D02*
X7354762Y-38704819D01*
X7354762Y-38704819D02*
X7545238Y-38704819D01*
X7545238Y-38704819D02*
X7640476Y-38657200D01*
X7640476Y-38657200D02*
X7688095Y-38609580D01*
X7688095Y-38609580D02*
X7735714Y-38514342D01*
X7735714Y-38514342D02*
X7735714Y-38323866D01*
X7735714Y-38323866D02*
X7688095Y-38228628D01*
X7688095Y-38228628D02*
X7640476Y-38181009D01*
X7640476Y-38181009D02*
X7545238Y-38133390D01*
X-21142857Y-27054819D02*
X-21476190Y-26578628D01*
X-21714285Y-27054819D02*
X-21714285Y-26054819D01*
X-21714285Y-26054819D02*
X-21333333Y-26054819D01*
X-21333333Y-26054819D02*
X-21238095Y-26102438D01*
X-21238095Y-26102438D02*
X-21190476Y-26150057D01*
X-21190476Y-26150057D02*
X-21142857Y-26245295D01*
X-21142857Y-26245295D02*
X-21142857Y-26388152D01*
X-21142857Y-26388152D02*
X-21190476Y-26483390D01*
X-21190476Y-26483390D02*
X-21238095Y-26531009D01*
X-21238095Y-26531009D02*
X-21333333Y-26578628D01*
X-21333333Y-26578628D02*
X-21714285Y-26578628D01*
X-20190476Y-27054819D02*
X-20761904Y-27054819D01*
X-20476190Y-27054819D02*
X-20476190Y-26054819D01*
X-20476190Y-26054819D02*
X-20571428Y-26197676D01*
X-20571428Y-26197676D02*
X-20666666Y-26292914D01*
X-20666666Y-26292914D02*
X-20761904Y-26340533D01*
X-19571428Y-26054819D02*
X-19476190Y-26054819D01*
X-19476190Y-26054819D02*
X-19380952Y-26102438D01*
X-19380952Y-26102438D02*
X-19333333Y-26150057D01*
X-19333333Y-26150057D02*
X-19285714Y-26245295D01*
X-19285714Y-26245295D02*
X-19238095Y-26435771D01*
X-19238095Y-26435771D02*
X-19238095Y-26673866D01*
X-19238095Y-26673866D02*
X-19285714Y-26864342D01*
X-19285714Y-26864342D02*
X-19333333Y-26959580D01*
X-19333333Y-26959580D02*
X-19380952Y-27007200D01*
X-19380952Y-27007200D02*
X-19476190Y-27054819D01*
X-19476190Y-27054819D02*
X-19571428Y-27054819D01*
X-19571428Y-27054819D02*
X-19666666Y-27007200D01*
X-19666666Y-27007200D02*
X-19714285Y-26959580D01*
X-19714285Y-26959580D02*
X-19761904Y-26864342D01*
X-19761904Y-26864342D02*
X-19809523Y-26673866D01*
X-19809523Y-26673866D02*
X-19809523Y-26435771D01*
X-19809523Y-26435771D02*
X-19761904Y-26245295D01*
X-19761904Y-26245295D02*
X-19714285Y-26150057D01*
X-19714285Y-26150057D02*
X-19666666Y-26102438D01*
X-19666666Y-26102438D02*
X-19571428Y-26054819D01*
X-12466666Y-27054819D02*
X-12799999Y-26578628D01*
X-13038094Y-27054819D02*
X-13038094Y-26054819D01*
X-13038094Y-26054819D02*
X-12657142Y-26054819D01*
X-12657142Y-26054819D02*
X-12561904Y-26102438D01*
X-12561904Y-26102438D02*
X-12514285Y-26150057D01*
X-12514285Y-26150057D02*
X-12466666Y-26245295D01*
X-12466666Y-26245295D02*
X-12466666Y-26388152D01*
X-12466666Y-26388152D02*
X-12514285Y-26483390D01*
X-12514285Y-26483390D02*
X-12561904Y-26531009D01*
X-12561904Y-26531009D02*
X-12657142Y-26578628D01*
X-12657142Y-26578628D02*
X-13038094Y-26578628D01*
X-12133332Y-26054819D02*
X-11466666Y-26054819D01*
X-11466666Y-26054819D02*
X-11895237Y-27054819D01*
X-17216666Y-57954819D02*
X-17549999Y-57478628D01*
X-17788094Y-57954819D02*
X-17788094Y-56954819D01*
X-17788094Y-56954819D02*
X-17407142Y-56954819D01*
X-17407142Y-56954819D02*
X-17311904Y-57002438D01*
X-17311904Y-57002438D02*
X-17264285Y-57050057D01*
X-17264285Y-57050057D02*
X-17216666Y-57145295D01*
X-17216666Y-57145295D02*
X-17216666Y-57288152D01*
X-17216666Y-57288152D02*
X-17264285Y-57383390D01*
X-17264285Y-57383390D02*
X-17311904Y-57431009D01*
X-17311904Y-57431009D02*
X-17407142Y-57478628D01*
X-17407142Y-57478628D02*
X-17788094Y-57478628D01*
X-16740475Y-57954819D02*
X-16549999Y-57954819D01*
X-16549999Y-57954819D02*
X-16454761Y-57907200D01*
X-16454761Y-57907200D02*
X-16407142Y-57859580D01*
X-16407142Y-57859580D02*
X-16311904Y-57716723D01*
X-16311904Y-57716723D02*
X-16264285Y-57526247D01*
X-16264285Y-57526247D02*
X-16264285Y-57145295D01*
X-16264285Y-57145295D02*
X-16311904Y-57050057D01*
X-16311904Y-57050057D02*
X-16359523Y-57002438D01*
X-16359523Y-57002438D02*
X-16454761Y-56954819D01*
X-16454761Y-56954819D02*
X-16645237Y-56954819D01*
X-16645237Y-56954819D02*
X-16740475Y-57002438D01*
X-16740475Y-57002438D02*
X-16788094Y-57050057D01*
X-16788094Y-57050057D02*
X-16835713Y-57145295D01*
X-16835713Y-57145295D02*
X-16835713Y-57383390D01*
X-16835713Y-57383390D02*
X-16788094Y-57478628D01*
X-16788094Y-57478628D02*
X-16740475Y-57526247D01*
X-16740475Y-57526247D02*
X-16645237Y-57573866D01*
X-16645237Y-57573866D02*
X-16454761Y-57573866D01*
X-16454761Y-57573866D02*
X-16359523Y-57526247D01*
X-16359523Y-57526247D02*
X-16311904Y-57478628D01*
X-16311904Y-57478628D02*
X-16264285Y-57383390D01*
X7738095Y-32006819D02*
X8309523Y-32006819D01*
X8023809Y-33006819D02*
X8023809Y-32006819D01*
X8642857Y-33006819D02*
X8642857Y-32006819D01*
X8642857Y-32006819D02*
X9023809Y-32006819D01*
X9023809Y-32006819D02*
X9119047Y-32054438D01*
X9119047Y-32054438D02*
X9166666Y-32102057D01*
X9166666Y-32102057D02*
X9214285Y-32197295D01*
X9214285Y-32197295D02*
X9214285Y-32340152D01*
X9214285Y-32340152D02*
X9166666Y-32435390D01*
X9166666Y-32435390D02*
X9119047Y-32483009D01*
X9119047Y-32483009D02*
X9023809Y-32530628D01*
X9023809Y-32530628D02*
X8642857Y-32530628D01*
X10166666Y-33006819D02*
X9595238Y-33006819D01*
X9880952Y-33006819D02*
X9880952Y-32006819D01*
X9880952Y-32006819D02*
X9785714Y-32149676D01*
X9785714Y-32149676D02*
X9690476Y-32244914D01*
X9690476Y-32244914D02*
X9595238Y-32292533D01*
X2983333Y-22804819D02*
X2650000Y-22328628D01*
X2411905Y-22804819D02*
X2411905Y-21804819D01*
X2411905Y-21804819D02*
X2792857Y-21804819D01*
X2792857Y-21804819D02*
X2888095Y-21852438D01*
X2888095Y-21852438D02*
X2935714Y-21900057D01*
X2935714Y-21900057D02*
X2983333Y-21995295D01*
X2983333Y-21995295D02*
X2983333Y-22138152D01*
X2983333Y-22138152D02*
X2935714Y-22233390D01*
X2935714Y-22233390D02*
X2888095Y-22281009D01*
X2888095Y-22281009D02*
X2792857Y-22328628D01*
X2792857Y-22328628D02*
X2411905Y-22328628D01*
X3888095Y-21804819D02*
X3411905Y-21804819D01*
X3411905Y-21804819D02*
X3364286Y-22281009D01*
X3364286Y-22281009D02*
X3411905Y-22233390D01*
X3411905Y-22233390D02*
X3507143Y-22185771D01*
X3507143Y-22185771D02*
X3745238Y-22185771D01*
X3745238Y-22185771D02*
X3840476Y-22233390D01*
X3840476Y-22233390D02*
X3888095Y-22281009D01*
X3888095Y-22281009D02*
X3935714Y-22376247D01*
X3935714Y-22376247D02*
X3935714Y-22614342D01*
X3935714Y-22614342D02*
X3888095Y-22709580D01*
X3888095Y-22709580D02*
X3840476Y-22757200D01*
X3840476Y-22757200D02*
X3745238Y-22804819D01*
X3745238Y-22804819D02*
X3507143Y-22804819D01*
X3507143Y-22804819D02*
X3411905Y-22757200D01*
X3411905Y-22757200D02*
X3364286Y-22709580D01*
X6238095Y-42154819D02*
X6238095Y-42964342D01*
X6238095Y-42964342D02*
X6285714Y-43059580D01*
X6285714Y-43059580D02*
X6333333Y-43107200D01*
X6333333Y-43107200D02*
X6428571Y-43154819D01*
X6428571Y-43154819D02*
X6619047Y-43154819D01*
X6619047Y-43154819D02*
X6714285Y-43107200D01*
X6714285Y-43107200D02*
X6761904Y-43059580D01*
X6761904Y-43059580D02*
X6809523Y-42964342D01*
X6809523Y-42964342D02*
X6809523Y-42154819D01*
X7714285Y-42154819D02*
X7523809Y-42154819D01*
X7523809Y-42154819D02*
X7428571Y-42202438D01*
X7428571Y-42202438D02*
X7380952Y-42250057D01*
X7380952Y-42250057D02*
X7285714Y-42392914D01*
X7285714Y-42392914D02*
X7238095Y-42583390D01*
X7238095Y-42583390D02*
X7238095Y-42964342D01*
X7238095Y-42964342D02*
X7285714Y-43059580D01*
X7285714Y-43059580D02*
X7333333Y-43107200D01*
X7333333Y-43107200D02*
X7428571Y-43154819D01*
X7428571Y-43154819D02*
X7619047Y-43154819D01*
X7619047Y-43154819D02*
X7714285Y-43107200D01*
X7714285Y-43107200D02*
X7761904Y-43059580D01*
X7761904Y-43059580D02*
X7809523Y-42964342D01*
X7809523Y-42964342D02*
X7809523Y-42726247D01*
X7809523Y-42726247D02*
X7761904Y-42631009D01*
X7761904Y-42631009D02*
X7714285Y-42583390D01*
X7714285Y-42583390D02*
X7619047Y-42535771D01*
X7619047Y-42535771D02*
X7428571Y-42535771D01*
X7428571Y-42535771D02*
X7333333Y-42583390D01*
X7333333Y-42583390D02*
X7285714Y-42631009D01*
X7285714Y-42631009D02*
X7238095Y-42726247D01*
X-8642857Y-27409580D02*
X-8690476Y-27457200D01*
X-8690476Y-27457200D02*
X-8833333Y-27504819D01*
X-8833333Y-27504819D02*
X-8928571Y-27504819D01*
X-8928571Y-27504819D02*
X-9071428Y-27457200D01*
X-9071428Y-27457200D02*
X-9166666Y-27361961D01*
X-9166666Y-27361961D02*
X-9214285Y-27266723D01*
X-9214285Y-27266723D02*
X-9261904Y-27076247D01*
X-9261904Y-27076247D02*
X-9261904Y-26933390D01*
X-9261904Y-26933390D02*
X-9214285Y-26742914D01*
X-9214285Y-26742914D02*
X-9166666Y-26647676D01*
X-9166666Y-26647676D02*
X-9071428Y-26552438D01*
X-9071428Y-26552438D02*
X-8928571Y-26504819D01*
X-8928571Y-26504819D02*
X-8833333Y-26504819D01*
X-8833333Y-26504819D02*
X-8690476Y-26552438D01*
X-8690476Y-26552438D02*
X-8642857Y-26600057D01*
X-7690476Y-27504819D02*
X-8261904Y-27504819D01*
X-7976190Y-27504819D02*
X-7976190Y-26504819D01*
X-7976190Y-26504819D02*
X-8071428Y-26647676D01*
X-8071428Y-26647676D02*
X-8166666Y-26742914D01*
X-8166666Y-26742914D02*
X-8261904Y-26790533D01*
X-7357142Y-26504819D02*
X-6738095Y-26504819D01*
X-6738095Y-26504819D02*
X-7071428Y-26885771D01*
X-7071428Y-26885771D02*
X-6928571Y-26885771D01*
X-6928571Y-26885771D02*
X-6833333Y-26933390D01*
X-6833333Y-26933390D02*
X-6785714Y-26981009D01*
X-6785714Y-26981009D02*
X-6738095Y-27076247D01*
X-6738095Y-27076247D02*
X-6738095Y-27314342D01*
X-6738095Y-27314342D02*
X-6785714Y-27409580D01*
X-6785714Y-27409580D02*
X-6833333Y-27457200D01*
X-6833333Y-27457200D02*
X-6928571Y-27504819D01*
X-6928571Y-27504819D02*
X-7214285Y-27504819D01*
X-7214285Y-27504819D02*
X-7309523Y-27457200D01*
X-7309523Y-27457200D02*
X-7357142Y-27409580D01*
X-14666666Y-27054819D02*
X-14999999Y-26578628D01*
X-15238094Y-27054819D02*
X-15238094Y-26054819D01*
X-15238094Y-26054819D02*
X-14857142Y-26054819D01*
X-14857142Y-26054819D02*
X-14761904Y-26102438D01*
X-14761904Y-26102438D02*
X-14714285Y-26150057D01*
X-14714285Y-26150057D02*
X-14666666Y-26245295D01*
X-14666666Y-26245295D02*
X-14666666Y-26388152D01*
X-14666666Y-26388152D02*
X-14714285Y-26483390D01*
X-14714285Y-26483390D02*
X-14761904Y-26531009D01*
X-14761904Y-26531009D02*
X-14857142Y-26578628D01*
X-14857142Y-26578628D02*
X-15238094Y-26578628D01*
X-13809523Y-26054819D02*
X-13999999Y-26054819D01*
X-13999999Y-26054819D02*
X-14095237Y-26102438D01*
X-14095237Y-26102438D02*
X-14142856Y-26150057D01*
X-14142856Y-26150057D02*
X-14238094Y-26292914D01*
X-14238094Y-26292914D02*
X-14285713Y-26483390D01*
X-14285713Y-26483390D02*
X-14285713Y-26864342D01*
X-14285713Y-26864342D02*
X-14238094Y-26959580D01*
X-14238094Y-26959580D02*
X-14190475Y-27007200D01*
X-14190475Y-27007200D02*
X-14095237Y-27054819D01*
X-14095237Y-27054819D02*
X-13904761Y-27054819D01*
X-13904761Y-27054819D02*
X-13809523Y-27007200D01*
X-13809523Y-27007200D02*
X-13761904Y-26959580D01*
X-13761904Y-26959580D02*
X-13714285Y-26864342D01*
X-13714285Y-26864342D02*
X-13714285Y-26626247D01*
X-13714285Y-26626247D02*
X-13761904Y-26531009D01*
X-13761904Y-26531009D02*
X-13809523Y-26483390D01*
X-13809523Y-26483390D02*
X-13904761Y-26435771D01*
X-13904761Y-26435771D02*
X-14095237Y-26435771D01*
X-14095237Y-26435771D02*
X-14190475Y-26483390D01*
X-14190475Y-26483390D02*
X-14238094Y-26531009D01*
X-14238094Y-26531009D02*
X-14285713Y-26626247D01*
X-642857Y-10154819D02*
X-976190Y-9678628D01*
X-1214285Y-10154819D02*
X-1214285Y-9154819D01*
X-1214285Y-9154819D02*
X-833333Y-9154819D01*
X-833333Y-9154819D02*
X-738095Y-9202438D01*
X-738095Y-9202438D02*
X-690476Y-9250057D01*
X-690476Y-9250057D02*
X-642857Y-9345295D01*
X-642857Y-9345295D02*
X-642857Y-9488152D01*
X-642857Y-9488152D02*
X-690476Y-9583390D01*
X-690476Y-9583390D02*
X-738095Y-9631009D01*
X-738095Y-9631009D02*
X-833333Y-9678628D01*
X-833333Y-9678628D02*
X-1214285Y-9678628D01*
X309523Y-10154819D02*
X-261904Y-10154819D01*
X23809Y-10154819D02*
X23809Y-9154819D01*
X23809Y-9154819D02*
X-71428Y-9297676D01*
X-71428Y-9297676D02*
X-166666Y-9392914D01*
X-166666Y-9392914D02*
X-261904Y-9440533D01*
X642857Y-9154819D02*
X1261904Y-9154819D01*
X1261904Y-9154819D02*
X928571Y-9535771D01*
X928571Y-9535771D02*
X1071428Y-9535771D01*
X1071428Y-9535771D02*
X1166666Y-9583390D01*
X1166666Y-9583390D02*
X1214285Y-9631009D01*
X1214285Y-9631009D02*
X1261904Y-9726247D01*
X1261904Y-9726247D02*
X1261904Y-9964342D01*
X1261904Y-9964342D02*
X1214285Y-10059580D01*
X1214285Y-10059580D02*
X1166666Y-10107200D01*
X1166666Y-10107200D02*
X1071428Y-10154819D01*
X1071428Y-10154819D02*
X785714Y-10154819D01*
X785714Y-10154819D02*
X690476Y-10107200D01*
X690476Y-10107200D02*
X642857Y-10059580D01*
X9666666Y-58731009D02*
X9333333Y-58731009D01*
X9333333Y-59254819D02*
X9333333Y-58254819D01*
X9333333Y-58254819D02*
X9809523Y-58254819D01*
X10714285Y-59254819D02*
X10142857Y-59254819D01*
X10428571Y-59254819D02*
X10428571Y-58254819D01*
X10428571Y-58254819D02*
X10333333Y-58397676D01*
X10333333Y-58397676D02*
X10238095Y-58492914D01*
X10238095Y-58492914D02*
X10142857Y-58540533D01*
X16833333Y-62154819D02*
X16500000Y-61678628D01*
X16261905Y-62154819D02*
X16261905Y-61154819D01*
X16261905Y-61154819D02*
X16642857Y-61154819D01*
X16642857Y-61154819D02*
X16738095Y-61202438D01*
X16738095Y-61202438D02*
X16785714Y-61250057D01*
X16785714Y-61250057D02*
X16833333Y-61345295D01*
X16833333Y-61345295D02*
X16833333Y-61488152D01*
X16833333Y-61488152D02*
X16785714Y-61583390D01*
X16785714Y-61583390D02*
X16738095Y-61631009D01*
X16738095Y-61631009D02*
X16642857Y-61678628D01*
X16642857Y-61678628D02*
X16261905Y-61678628D01*
X17785714Y-62154819D02*
X17214286Y-62154819D01*
X17500000Y-62154819D02*
X17500000Y-61154819D01*
X17500000Y-61154819D02*
X17404762Y-61297676D01*
X17404762Y-61297676D02*
X17309524Y-61392914D01*
X17309524Y-61392914D02*
X17214286Y-61440533D01*
X-5366666Y-17459580D02*
X-5414285Y-17507200D01*
X-5414285Y-17507200D02*
X-5557142Y-17554819D01*
X-5557142Y-17554819D02*
X-5652380Y-17554819D01*
X-5652380Y-17554819D02*
X-5795237Y-17507200D01*
X-5795237Y-17507200D02*
X-5890475Y-17411961D01*
X-5890475Y-17411961D02*
X-5938094Y-17316723D01*
X-5938094Y-17316723D02*
X-5985713Y-17126247D01*
X-5985713Y-17126247D02*
X-5985713Y-16983390D01*
X-5985713Y-16983390D02*
X-5938094Y-16792914D01*
X-5938094Y-16792914D02*
X-5890475Y-16697676D01*
X-5890475Y-16697676D02*
X-5795237Y-16602438D01*
X-5795237Y-16602438D02*
X-5652380Y-16554819D01*
X-5652380Y-16554819D02*
X-5557142Y-16554819D01*
X-5557142Y-16554819D02*
X-5414285Y-16602438D01*
X-5414285Y-16602438D02*
X-5366666Y-16650057D01*
X-4509523Y-16554819D02*
X-4699999Y-16554819D01*
X-4699999Y-16554819D02*
X-4795237Y-16602438D01*
X-4795237Y-16602438D02*
X-4842856Y-16650057D01*
X-4842856Y-16650057D02*
X-4938094Y-16792914D01*
X-4938094Y-16792914D02*
X-4985713Y-16983390D01*
X-4985713Y-16983390D02*
X-4985713Y-17364342D01*
X-4985713Y-17364342D02*
X-4938094Y-17459580D01*
X-4938094Y-17459580D02*
X-4890475Y-17507200D01*
X-4890475Y-17507200D02*
X-4795237Y-17554819D01*
X-4795237Y-17554819D02*
X-4604761Y-17554819D01*
X-4604761Y-17554819D02*
X-4509523Y-17507200D01*
X-4509523Y-17507200D02*
X-4461904Y-17459580D01*
X-4461904Y-17459580D02*
X-4414285Y-17364342D01*
X-4414285Y-17364342D02*
X-4414285Y-17126247D01*
X-4414285Y-17126247D02*
X-4461904Y-17031009D01*
X-4461904Y-17031009D02*
X-4509523Y-16983390D01*
X-4509523Y-16983390D02*
X-4604761Y-16935771D01*
X-4604761Y-16935771D02*
X-4795237Y-16935771D01*
X-4795237Y-16935771D02*
X-4890475Y-16983390D01*
X-4890475Y-16983390D02*
X-4938094Y-17031009D01*
X-4938094Y-17031009D02*
X-4985713Y-17126247D01*
X-3642857Y-10154819D02*
X-3976190Y-9678628D01*
X-4214285Y-10154819D02*
X-4214285Y-9154819D01*
X-4214285Y-9154819D02*
X-3833333Y-9154819D01*
X-3833333Y-9154819D02*
X-3738095Y-9202438D01*
X-3738095Y-9202438D02*
X-3690476Y-9250057D01*
X-3690476Y-9250057D02*
X-3642857Y-9345295D01*
X-3642857Y-9345295D02*
X-3642857Y-9488152D01*
X-3642857Y-9488152D02*
X-3690476Y-9583390D01*
X-3690476Y-9583390D02*
X-3738095Y-9631009D01*
X-3738095Y-9631009D02*
X-3833333Y-9678628D01*
X-3833333Y-9678628D02*
X-4214285Y-9678628D01*
X-2690476Y-10154819D02*
X-3261904Y-10154819D01*
X-2976190Y-10154819D02*
X-2976190Y-9154819D01*
X-2976190Y-9154819D02*
X-3071428Y-9297676D01*
X-3071428Y-9297676D02*
X-3166666Y-9392914D01*
X-3166666Y-9392914D02*
X-3261904Y-9440533D01*
X-2309523Y-9250057D02*
X-2261904Y-9202438D01*
X-2261904Y-9202438D02*
X-2166666Y-9154819D01*
X-2166666Y-9154819D02*
X-1928571Y-9154819D01*
X-1928571Y-9154819D02*
X-1833333Y-9202438D01*
X-1833333Y-9202438D02*
X-1785714Y-9250057D01*
X-1785714Y-9250057D02*
X-1738095Y-9345295D01*
X-1738095Y-9345295D02*
X-1738095Y-9440533D01*
X-1738095Y-9440533D02*
X-1785714Y-9583390D01*
X-1785714Y-9583390D02*
X-2357142Y-10154819D01*
X-2357142Y-10154819D02*
X-1738095Y-10154819D01*
X-21716666Y-55454819D02*
X-22049999Y-54978628D01*
X-22288094Y-55454819D02*
X-22288094Y-54454819D01*
X-22288094Y-54454819D02*
X-21907142Y-54454819D01*
X-21907142Y-54454819D02*
X-21811904Y-54502438D01*
X-21811904Y-54502438D02*
X-21764285Y-54550057D01*
X-21764285Y-54550057D02*
X-21716666Y-54645295D01*
X-21716666Y-54645295D02*
X-21716666Y-54788152D01*
X-21716666Y-54788152D02*
X-21764285Y-54883390D01*
X-21764285Y-54883390D02*
X-21811904Y-54931009D01*
X-21811904Y-54931009D02*
X-21907142Y-54978628D01*
X-21907142Y-54978628D02*
X-22288094Y-54978628D01*
X-21145237Y-54883390D02*
X-21240475Y-54835771D01*
X-21240475Y-54835771D02*
X-21288094Y-54788152D01*
X-21288094Y-54788152D02*
X-21335713Y-54692914D01*
X-21335713Y-54692914D02*
X-21335713Y-54645295D01*
X-21335713Y-54645295D02*
X-21288094Y-54550057D01*
X-21288094Y-54550057D02*
X-21240475Y-54502438D01*
X-21240475Y-54502438D02*
X-21145237Y-54454819D01*
X-21145237Y-54454819D02*
X-20954761Y-54454819D01*
X-20954761Y-54454819D02*
X-20859523Y-54502438D01*
X-20859523Y-54502438D02*
X-20811904Y-54550057D01*
X-20811904Y-54550057D02*
X-20764285Y-54645295D01*
X-20764285Y-54645295D02*
X-20764285Y-54692914D01*
X-20764285Y-54692914D02*
X-20811904Y-54788152D01*
X-20811904Y-54788152D02*
X-20859523Y-54835771D01*
X-20859523Y-54835771D02*
X-20954761Y-54883390D01*
X-20954761Y-54883390D02*
X-21145237Y-54883390D01*
X-21145237Y-54883390D02*
X-21240475Y-54931009D01*
X-21240475Y-54931009D02*
X-21288094Y-54978628D01*
X-21288094Y-54978628D02*
X-21335713Y-55073866D01*
X-21335713Y-55073866D02*
X-21335713Y-55264342D01*
X-21335713Y-55264342D02*
X-21288094Y-55359580D01*
X-21288094Y-55359580D02*
X-21240475Y-55407200D01*
X-21240475Y-55407200D02*
X-21145237Y-55454819D01*
X-21145237Y-55454819D02*
X-20954761Y-55454819D01*
X-20954761Y-55454819D02*
X-20859523Y-55407200D01*
X-20859523Y-55407200D02*
X-20811904Y-55359580D01*
X-20811904Y-55359580D02*
X-20764285Y-55264342D01*
X-20764285Y-55264342D02*
X-20764285Y-55073866D01*
X-20764285Y-55073866D02*
X-20811904Y-54978628D01*
X-20811904Y-54978628D02*
X-20859523Y-54931009D01*
X-20859523Y-54931009D02*
X-20954761Y-54883390D01*
X-18786904Y-38954819D02*
X-18786904Y-39764342D01*
X-18786904Y-39764342D02*
X-18739285Y-39859580D01*
X-18739285Y-39859580D02*
X-18691666Y-39907200D01*
X-18691666Y-39907200D02*
X-18596428Y-39954819D01*
X-18596428Y-39954819D02*
X-18405952Y-39954819D01*
X-18405952Y-39954819D02*
X-18310714Y-39907200D01*
X-18310714Y-39907200D02*
X-18263095Y-39859580D01*
X-18263095Y-39859580D02*
X-18215476Y-39764342D01*
X-18215476Y-39764342D02*
X-18215476Y-38954819D01*
X-17263095Y-38954819D02*
X-17739285Y-38954819D01*
X-17739285Y-38954819D02*
X-17786904Y-39431009D01*
X-17786904Y-39431009D02*
X-17739285Y-39383390D01*
X-17739285Y-39383390D02*
X-17644047Y-39335771D01*
X-17644047Y-39335771D02*
X-17405952Y-39335771D01*
X-17405952Y-39335771D02*
X-17310714Y-39383390D01*
X-17310714Y-39383390D02*
X-17263095Y-39431009D01*
X-17263095Y-39431009D02*
X-17215476Y-39526247D01*
X-17215476Y-39526247D02*
X-17215476Y-39764342D01*
X-17215476Y-39764342D02*
X-17263095Y-39859580D01*
X-17263095Y-39859580D02*
X-17310714Y-39907200D01*
X-17310714Y-39907200D02*
X-17405952Y-39954819D01*
X-17405952Y-39954819D02*
X-17644047Y-39954819D01*
X-17644047Y-39954819D02*
X-17739285Y-39907200D01*
X-17739285Y-39907200D02*
X-17786904Y-39859580D01*
X16833333Y-50859580D02*
X16785714Y-50907200D01*
X16785714Y-50907200D02*
X16642857Y-50954819D01*
X16642857Y-50954819D02*
X16547619Y-50954819D01*
X16547619Y-50954819D02*
X16404762Y-50907200D01*
X16404762Y-50907200D02*
X16309524Y-50811961D01*
X16309524Y-50811961D02*
X16261905Y-50716723D01*
X16261905Y-50716723D02*
X16214286Y-50526247D01*
X16214286Y-50526247D02*
X16214286Y-50383390D01*
X16214286Y-50383390D02*
X16261905Y-50192914D01*
X16261905Y-50192914D02*
X16309524Y-50097676D01*
X16309524Y-50097676D02*
X16404762Y-50002438D01*
X16404762Y-50002438D02*
X16547619Y-49954819D01*
X16547619Y-49954819D02*
X16642857Y-49954819D01*
X16642857Y-49954819D02*
X16785714Y-50002438D01*
X16785714Y-50002438D02*
X16833333Y-50050057D01*
X17214286Y-50050057D02*
X17261905Y-50002438D01*
X17261905Y-50002438D02*
X17357143Y-49954819D01*
X17357143Y-49954819D02*
X17595238Y-49954819D01*
X17595238Y-49954819D02*
X17690476Y-50002438D01*
X17690476Y-50002438D02*
X17738095Y-50050057D01*
X17738095Y-50050057D02*
X17785714Y-50145295D01*
X17785714Y-50145295D02*
X17785714Y-50240533D01*
X17785714Y-50240533D02*
X17738095Y-50383390D01*
X17738095Y-50383390D02*
X17166667Y-50954819D01*
X17166667Y-50954819D02*
X17785714Y-50954819D01*
X8357142Y-27859580D02*
X8309523Y-27907200D01*
X8309523Y-27907200D02*
X8166666Y-27954819D01*
X8166666Y-27954819D02*
X8071428Y-27954819D01*
X8071428Y-27954819D02*
X7928571Y-27907200D01*
X7928571Y-27907200D02*
X7833333Y-27811961D01*
X7833333Y-27811961D02*
X7785714Y-27716723D01*
X7785714Y-27716723D02*
X7738095Y-27526247D01*
X7738095Y-27526247D02*
X7738095Y-27383390D01*
X7738095Y-27383390D02*
X7785714Y-27192914D01*
X7785714Y-27192914D02*
X7833333Y-27097676D01*
X7833333Y-27097676D02*
X7928571Y-27002438D01*
X7928571Y-27002438D02*
X8071428Y-26954819D01*
X8071428Y-26954819D02*
X8166666Y-26954819D01*
X8166666Y-26954819D02*
X8309523Y-27002438D01*
X8309523Y-27002438D02*
X8357142Y-27050057D01*
X9309523Y-27954819D02*
X8738095Y-27954819D01*
X9023809Y-27954819D02*
X9023809Y-26954819D01*
X9023809Y-26954819D02*
X8928571Y-27097676D01*
X8928571Y-27097676D02*
X8833333Y-27192914D01*
X8833333Y-27192914D02*
X8738095Y-27240533D01*
X10261904Y-27954819D02*
X9690476Y-27954819D01*
X9976190Y-27954819D02*
X9976190Y-26954819D01*
X9976190Y-26954819D02*
X9880952Y-27097676D01*
X9880952Y-27097676D02*
X9785714Y-27192914D01*
X9785714Y-27192914D02*
X9690476Y-27240533D01*
X14238095Y-61154819D02*
X14238095Y-61964342D01*
X14238095Y-61964342D02*
X14285714Y-62059580D01*
X14285714Y-62059580D02*
X14333333Y-62107200D01*
X14333333Y-62107200D02*
X14428571Y-62154819D01*
X14428571Y-62154819D02*
X14619047Y-62154819D01*
X14619047Y-62154819D02*
X14714285Y-62107200D01*
X14714285Y-62107200D02*
X14761904Y-62059580D01*
X14761904Y-62059580D02*
X14809523Y-61964342D01*
X14809523Y-61964342D02*
X14809523Y-61154819D01*
X15809523Y-62154819D02*
X15238095Y-62154819D01*
X15523809Y-62154819D02*
X15523809Y-61154819D01*
X15523809Y-61154819D02*
X15428571Y-61297676D01*
X15428571Y-61297676D02*
X15333333Y-61392914D01*
X15333333Y-61392914D02*
X15238095Y-61440533D01*
X-5186904Y-40954819D02*
X-5186904Y-41764342D01*
X-5186904Y-41764342D02*
X-5139285Y-41859580D01*
X-5139285Y-41859580D02*
X-5091666Y-41907200D01*
X-5091666Y-41907200D02*
X-4996428Y-41954819D01*
X-4996428Y-41954819D02*
X-4805952Y-41954819D01*
X-4805952Y-41954819D02*
X-4710714Y-41907200D01*
X-4710714Y-41907200D02*
X-4663095Y-41859580D01*
X-4663095Y-41859580D02*
X-4615476Y-41764342D01*
X-4615476Y-41764342D02*
X-4615476Y-40954819D01*
X-4234523Y-40954819D02*
X-3567857Y-40954819D01*
X-3567857Y-40954819D02*
X-3996428Y-41954819D01*
D12*
X-15000000Y-54000000D02*
X-15000000Y-56000000D01*
X-16000000Y-54000000D02*
X-15000000Y-54000000D01*
X-16000000Y-54000000D02*
X-16000000Y-56000000D01*
X-16000000Y-56000000D02*
X-15000000Y-56000000D01*
X20150000Y-51200000D02*
X18650000Y-51200000D01*
X20150000Y-51200000D02*
X20150000Y-54500000D01*
X18650000Y-51200000D02*
X18650000Y-54500000D01*
X19400000Y-52750000D02*
X19600000Y-52950000D01*
X19600000Y-52950000D02*
X19200000Y-52950000D01*
X19200000Y-52950000D02*
X19400000Y-52750000D01*
X20150000Y-54500000D02*
X18650000Y-54500000D01*
X620000Y-16640000D02*
X620000Y-18100000D01*
X620000Y-16640000D02*
X1550000Y-16640000D01*
X3780000Y-16640000D02*
X3780000Y-18100000D01*
X3780000Y-16640000D02*
X2850000Y-16640000D01*
X3610000Y-26390000D02*
X3610000Y-26865000D01*
X3135000Y-33610000D02*
X3610000Y-33610000D01*
X3135000Y-26390000D02*
X3610000Y-26390000D01*
X-3135000Y-33610000D02*
X-3610000Y-33610000D01*
X-3135000Y-26390000D02*
X-3610000Y-26390000D01*
X-3610000Y-33610000D02*
X-3610000Y-33135000D01*
X-3610000Y-26390000D02*
X-3610000Y-26865000D01*
D13*
X4000000Y-33300000D02*
G75*
G03*
X4000000Y-33300000I-100000J0D01*
G01*
D12*
X-18450000Y-31150000D02*
X-16550000Y-31150000D01*
X-18450000Y-31150000D02*
X-18450000Y-27450000D01*
X-16550000Y-31150000D02*
X-16550000Y-27450000D01*
X-17500000Y-29400000D02*
X-17700000Y-29200000D01*
X-17700000Y-29200000D02*
X-17300000Y-29200000D01*
X-17300000Y-29200000D02*
X-17500000Y-29400000D01*
X-18450000Y-27450000D02*
X-16550000Y-27450000D01*
D14*
X12600000Y-80000000D02*
G75*
G03*
X12600000Y-80000000I-1600000J0D01*
G01*
D12*
X15500000Y-41500000D02*
X17500000Y-41500000D01*
X15500000Y-42500000D02*
X15500000Y-41500000D01*
X15500000Y-42500000D02*
X17500000Y-42500000D01*
X17500000Y-42500000D02*
X17500000Y-41500000D01*
X12500000Y-64500000D02*
X12500000Y-62500000D01*
X13500000Y-64500000D02*
X12500000Y-64500000D01*
X13500000Y-64500000D02*
X13500000Y-62500000D01*
X13500000Y-62500000D02*
X12500000Y-62500000D01*
X-14400000Y-52650000D02*
X-9600000Y-52650000D01*
X-14400000Y-52650000D02*
X-14400000Y-62350000D01*
X-9600000Y-62350000D02*
X-9600000Y-52650000D01*
X-14400000Y-62350000D02*
X-9600000Y-62350000D01*
D14*
X26600000Y-80000000D02*
G75*
G03*
X26600000Y-80000000I-1600000J0D01*
G01*
D12*
X-11250000Y-43550000D02*
X-12750000Y-43550000D01*
X-11250000Y-43550000D02*
X-11250000Y-46850000D01*
X-12750000Y-43550000D02*
X-12750000Y-46850000D01*
X-12000000Y-45100000D02*
X-11800000Y-45300000D01*
X-11800000Y-45300000D02*
X-12200000Y-45300000D01*
X-12200000Y-45300000D02*
X-12000000Y-45100000D01*
X-11250000Y-46850000D02*
X-12750000Y-46850000D01*
X-20750000Y-60650000D02*
X-19250000Y-60650000D01*
X-20750000Y-60650000D02*
X-20750000Y-57350000D01*
X-19250000Y-60650000D02*
X-19250000Y-57350000D01*
X-20000000Y-59100000D02*
X-20200000Y-58900000D01*
X-20200000Y-58900000D02*
X-19800000Y-58900000D01*
X-19800000Y-58900000D02*
X-20000000Y-59100000D01*
X-20750000Y-57350000D02*
X-19250000Y-57350000D01*
X14000000Y-51200000D02*
X16000000Y-51200000D01*
X14000000Y-52200000D02*
X14000000Y-51200000D01*
X14000000Y-52200000D02*
X16000000Y-52200000D01*
X16000000Y-52200000D02*
X16000000Y-51200000D01*
X-16000000Y-61000000D02*
X-16000000Y-59000000D01*
X-15000000Y-61000000D02*
X-16000000Y-61000000D01*
X-15000000Y-61000000D02*
X-15000000Y-59000000D01*
X-15000000Y-59000000D02*
X-16000000Y-59000000D01*
D14*
X19600000Y-87000000D02*
G75*
G03*
X19600000Y-87000000I-1600000J0D01*
G01*
D12*
X-20500000Y-64200000D02*
X-20500000Y-62200000D01*
X-19500000Y-64200000D02*
X-20500000Y-64200000D01*
X-19500000Y-64200000D02*
X-19500000Y-62200000D01*
X-19500000Y-62200000D02*
X-20500000Y-62200000D01*
X-11050000Y-31150000D02*
X-9550000Y-31150000D01*
X-11050000Y-31150000D02*
X-11050000Y-27850000D01*
X-9550000Y-31150000D02*
X-9550000Y-27850000D01*
X-10300000Y-29600000D02*
X-10500000Y-29400000D01*
X-10500000Y-29400000D02*
X-10100000Y-29400000D01*
X-10100000Y-29400000D02*
X-10300000Y-29600000D01*
X-11050000Y-27850000D02*
X-9550000Y-27850000D01*
X350000Y-46650000D02*
X1850000Y-46650000D01*
X350000Y-46650000D02*
X350000Y-43350000D01*
X1850000Y-46650000D02*
X1850000Y-43350000D01*
X1100000Y-45100000D02*
X900000Y-44900000D01*
X900000Y-44900000D02*
X1300000Y-44900000D01*
X1300000Y-44900000D02*
X1100000Y-45100000D01*
X350000Y-43350000D02*
X1850000Y-43350000D01*
X11400000Y-42500000D02*
X9400000Y-42500000D01*
X11400000Y-41500000D02*
X11400000Y-42500000D01*
X11400000Y-41500000D02*
X9400000Y-41500000D01*
X9400000Y-41500000D02*
X9400000Y-42500000D01*
D14*
X6500000Y-63100000D02*
X-6500000Y-63100000D01*
X-7000000Y-62600000D02*
X-7000000Y-52400000D01*
X7000000Y-52400000D02*
X7000000Y-62600000D01*
X-6500000Y-51900000D02*
X6500000Y-51900000D01*
X-7000000Y-62600000D02*
G75*
G03*
X-6500000Y-63100000I500001J1D01*
G01*
X6500000Y-63100000D02*
G75*
G03*
X7000000Y-62600000I-1J500001D01*
G01*
X-6500000Y-51900000D02*
G75*
G03*
X-7000000Y-52400000I0J-500000D01*
G01*
X7000000Y-52400000D02*
G75*
G03*
X6500000Y-51900000I-500000J0D01*
G01*
X-5500000Y-78500000D02*
X-5500000Y-83500000D01*
X5500000Y-78500000D02*
X5500000Y-83500000D01*
X5500000Y-78500000D02*
G75*
G03*
X-5500000Y-78500000I-5500000J0D01*
G01*
X-5500000Y-83500000D02*
G75*
G03*
X5500000Y-83500000I5500000J0D01*
G01*
D12*
X750000Y-21550000D02*
X750000Y-19550000D01*
X1750000Y-21550000D02*
X750000Y-21550000D01*
X1750000Y-21550000D02*
X1750000Y-19550000D01*
X1750000Y-19550000D02*
X750000Y-19550000D01*
X-3200000Y-19850000D02*
X-3200000Y-17850000D01*
X-2200000Y-19850000D02*
X-3200000Y-19850000D01*
X-2200000Y-19850000D02*
X-2200000Y-17850000D01*
X-2200000Y-17850000D02*
X-3200000Y-17850000D01*
X2000000Y-10500000D02*
X4000000Y-10500000D01*
X2000000Y-11500000D02*
X2000000Y-10500000D01*
X2000000Y-11500000D02*
X4000000Y-11500000D01*
X4000000Y-11500000D02*
X4000000Y-10500000D01*
X-1750000Y-21550000D02*
X150000Y-21550000D01*
X-1750000Y-21550000D02*
X-1750000Y-17850000D01*
X150000Y-21550000D02*
X150000Y-17850000D01*
X-800000Y-19800000D02*
X-1000000Y-19600000D01*
X-1000000Y-19600000D02*
X-600000Y-19600000D01*
X-600000Y-19600000D02*
X-800000Y-19800000D01*
X-1750000Y-17850000D02*
X150000Y-17850000D01*
X10750000Y-53350000D02*
X9250000Y-53350000D01*
X10750000Y-53350000D02*
X10750000Y-56650000D01*
X9250000Y-53350000D02*
X9250000Y-56650000D01*
X10000000Y-54900000D02*
X10200000Y-55100000D01*
X10200000Y-55100000D02*
X9800000Y-55100000D01*
X9800000Y-55100000D02*
X10000000Y-54900000D01*
X10750000Y-56650000D02*
X9250000Y-56650000D01*
X13700000Y-57300000D02*
X13700000Y-54700000D01*
X13900000Y-57300000D02*
X13700000Y-57300000D01*
X18100000Y-57300000D02*
X18300000Y-57300000D01*
X18300000Y-57300000D02*
X18300000Y-54700000D01*
X13700000Y-54700000D02*
X13900000Y-54700000D01*
X18300000Y-54700000D02*
X18100000Y-54700000D01*
X12500000Y-41500000D02*
X14500000Y-41500000D01*
X12500000Y-42500000D02*
X12500000Y-41500000D01*
X12500000Y-42500000D02*
X14500000Y-42500000D01*
X14500000Y-42500000D02*
X14500000Y-41500000D01*
X-5900000Y-8300000D02*
X-5900000Y-4000000D01*
X-5900000Y-8300000D02*
X-4900000Y-8300000D01*
X5900000Y-8300000D02*
X4900000Y-8300000D01*
X5900000Y-8300000D02*
X5900000Y-4000000D01*
X13500000Y-45950000D02*
X13600000Y-45950000D01*
X16400000Y-45950000D02*
X16500000Y-45950000D01*
X16500000Y-45950000D02*
X16500000Y-44050000D01*
X13500000Y-44050000D02*
X13500000Y-45950000D01*
X13600000Y-44050000D02*
X13500000Y-44050000D01*
X14500000Y-44050000D02*
X15500000Y-44050000D01*
X16500000Y-44050000D02*
X16400000Y-44050000D01*
D13*
X14150000Y-47100000D02*
G75*
G03*
X14150000Y-47100000I-100000J0D01*
G01*
D12*
X3850000Y-38950000D02*
X5850000Y-38950000D01*
X3850000Y-39950000D02*
X3850000Y-38950000D01*
X3850000Y-39950000D02*
X5850000Y-39950000D01*
X5850000Y-39950000D02*
X5850000Y-38950000D01*
X3850000Y-37700000D02*
X5850000Y-37700000D01*
X3850000Y-38700000D02*
X3850000Y-37700000D01*
X3850000Y-38700000D02*
X5850000Y-38700000D01*
X5850000Y-38700000D02*
X5850000Y-37700000D01*
X-21450000Y-31150000D02*
X-19550000Y-31150000D01*
X-21450000Y-31150000D02*
X-21450000Y-27450000D01*
X-19550000Y-31150000D02*
X-19550000Y-27450000D01*
X-20500000Y-29400000D02*
X-20700000Y-29200000D01*
X-20700000Y-29200000D02*
X-20300000Y-29200000D01*
X-20300000Y-29200000D02*
X-20500000Y-29400000D01*
X-21450000Y-27450000D02*
X-19550000Y-27450000D01*
X15350000Y-11112071D02*
X15350000Y-10715000D01*
X16110000Y-11112071D02*
X16110000Y-10715000D01*
X17890000Y-11112071D02*
X17890000Y-10715000D01*
X18650000Y-11112071D02*
X18650000Y-10715000D01*
X20430000Y-11112071D02*
X20430000Y-10715000D01*
X21190000Y-11112071D02*
X21190000Y-10715000D01*
X12810000Y-11045000D02*
X12810000Y-10715000D01*
X13570000Y-11045000D02*
X13570000Y-10715000D01*
X11860000Y-10715000D02*
X22140000Y-10715000D01*
X14460000Y-10715000D02*
X14460000Y-8055000D01*
X17000000Y-10715000D02*
X17000000Y-8055000D01*
X19540000Y-10715000D02*
X19540000Y-8055000D01*
X22140000Y-10715000D02*
X22140000Y-8055000D01*
X11860000Y-8055000D02*
X11860000Y-10715000D01*
X12810000Y-8055000D02*
X12810000Y-2055000D01*
X12870000Y-8055000D02*
X12870000Y-2055000D01*
X12990000Y-8055000D02*
X12990000Y-2055000D01*
X13110000Y-8055000D02*
X13110000Y-2055000D01*
X13230000Y-8055000D02*
X13230000Y-2055000D01*
X13350000Y-8055000D02*
X13350000Y-2055000D01*
X13470000Y-8055000D02*
X13470000Y-2055000D01*
X15350000Y-8055000D02*
X15350000Y-2055000D01*
X17890000Y-8055000D02*
X17890000Y-2055000D01*
X20430000Y-8055000D02*
X20430000Y-2055000D01*
X22140000Y-8055000D02*
X11860000Y-8055000D01*
X12810000Y-2055000D02*
X13570000Y-2055000D01*
X13570000Y-2055000D02*
X13570000Y-8055000D01*
X15350000Y-2055000D02*
X16110000Y-2055000D01*
X16110000Y-2055000D02*
X16110000Y-8055000D01*
X17890000Y-2055000D02*
X18650000Y-2055000D01*
X18650000Y-2055000D02*
X18650000Y-8055000D01*
X20430000Y-2055000D02*
X21190000Y-2055000D01*
X21190000Y-2055000D02*
X21190000Y-8055000D01*
X-13250000Y-31150000D02*
X-11350000Y-31150000D01*
X-13250000Y-31150000D02*
X-13250000Y-27450000D01*
X-11350000Y-31150000D02*
X-11350000Y-27450000D01*
X-12300000Y-29400000D02*
X-12500000Y-29200000D01*
X-12500000Y-29200000D02*
X-12100000Y-29200000D01*
X-12100000Y-29200000D02*
X-12300000Y-29400000D01*
X-13250000Y-27450000D02*
X-11350000Y-27450000D01*
X-15000000Y-56500000D02*
X-15000000Y-58500000D01*
X-16000000Y-56500000D02*
X-15000000Y-56500000D01*
X-16000000Y-56500000D02*
X-16000000Y-58500000D01*
X-16000000Y-58500000D02*
X-15000000Y-58500000D01*
X3650000Y-19550000D02*
X3650000Y-21550000D01*
X2650000Y-19550000D02*
X3650000Y-19550000D01*
X2650000Y-19550000D02*
X2650000Y-21550000D01*
X2650000Y-21550000D02*
X3650000Y-21550000D01*
X5450000Y-43400000D02*
X5450000Y-43600000D01*
X5450000Y-46400000D02*
X5450000Y-46600000D01*
X8650000Y-43400000D02*
X5450000Y-43400000D01*
X8650000Y-43400000D02*
X8650000Y-43600000D01*
X8650000Y-46400000D02*
X8650000Y-46600000D01*
X8650000Y-46600000D02*
X5450000Y-46600000D01*
D13*
X3850000Y-44025000D02*
G75*
G03*
X3850000Y-44025000I-100000J0D01*
G01*
D12*
X-8250000Y-27850000D02*
X-8250000Y-29850000D01*
X-9250000Y-27850000D02*
X-8250000Y-27850000D01*
X-9250000Y-27850000D02*
X-9250000Y-29850000D01*
X-9250000Y-29850000D02*
X-8250000Y-29850000D01*
X-15450000Y-31150000D02*
X-13550000Y-31150000D01*
X-15450000Y-31150000D02*
X-15450000Y-27450000D01*
X-13550000Y-31150000D02*
X-13550000Y-27450000D01*
X-14500000Y-29400000D02*
X-14700000Y-29200000D01*
X-14700000Y-29200000D02*
X-14300000Y-29200000D01*
X-14300000Y-29200000D02*
X-14500000Y-29400000D01*
X-15450000Y-27450000D02*
X-13550000Y-27450000D01*
X-1000000Y-10500000D02*
X1000000Y-10500000D01*
X-1000000Y-11500000D02*
X-1000000Y-10500000D01*
X-1000000Y-11500000D02*
X1000000Y-11500000D01*
X1000000Y-11500000D02*
X1000000Y-10500000D01*
X11250000Y-59600000D02*
X8750000Y-59600000D01*
X11250000Y-59600000D02*
X11250000Y-64400000D01*
X8750000Y-59600000D02*
X8750000Y-64400000D01*
X10000000Y-61900000D02*
X10200000Y-62100000D01*
X10200000Y-62100000D02*
X9800000Y-62100000D01*
X9800000Y-62100000D02*
X10000000Y-61900000D01*
X11250000Y-64400000D02*
X8750000Y-64400000D01*
X16500000Y-64500000D02*
X16500000Y-62500000D01*
X17500000Y-64500000D02*
X16500000Y-64500000D01*
X17500000Y-64500000D02*
X17500000Y-62500000D01*
X17500000Y-62500000D02*
X16500000Y-62500000D01*
X-5700000Y-19900000D02*
X-5700000Y-17900000D01*
X-4700000Y-19900000D02*
X-5700000Y-19900000D01*
X-4700000Y-19900000D02*
X-4700000Y-17900000D01*
X-4700000Y-17900000D02*
X-5700000Y-17900000D01*
X-4000000Y-10500000D02*
X-2000000Y-10500000D01*
X-4000000Y-11500000D02*
X-4000000Y-10500000D01*
X-4000000Y-11500000D02*
X-2000000Y-11500000D01*
X-2000000Y-11500000D02*
X-2000000Y-10500000D01*
D14*
X19600000Y-73000000D02*
G75*
G03*
X19600000Y-73000000I-1600000J0D01*
G01*
D12*
X-20500000Y-56000000D02*
X-20500000Y-54000000D01*
X-19500000Y-56000000D02*
X-20500000Y-56000000D01*
X-19500000Y-56000000D02*
X-19500000Y-54000000D01*
X-19500000Y-54000000D02*
X-20500000Y-54000000D01*
D11*
X-13825000Y-42350000D02*
X-14025000Y-42350000D01*
X-13825000Y-42350000D02*
X-13825000Y-47850000D01*
X-22225000Y-42350000D02*
X-22025000Y-42350000D01*
X-22225000Y-42350000D02*
X-22225000Y-47850000D01*
X-13825000Y-47850000D02*
X-14025000Y-47850000D01*
X-22225000Y-47850000D02*
X-22025000Y-47850000D01*
D13*
X-14350000Y-40050000D02*
G75*
G03*
X-14350000Y-40050000I-100000J0D01*
G01*
D12*
X18000000Y-52200000D02*
X16000000Y-52200000D01*
X18000000Y-51200000D02*
X18000000Y-52200000D01*
X18000000Y-51200000D02*
X16000000Y-51200000D01*
X16000000Y-51200000D02*
X16000000Y-52200000D01*
X-3250000Y-37950000D02*
X-10200000Y-37950000D01*
X-3250000Y-37950000D02*
X-3250000Y-39850000D01*
X-10200000Y-37950000D02*
X-10200000Y-39850000D01*
X-3250000Y-39850000D02*
X-10200000Y-39850000D01*
X8000000Y-28250000D02*
X10000000Y-28250000D01*
X8000000Y-29250000D02*
X8000000Y-28250000D01*
X8000000Y-29250000D02*
X10000000Y-29250000D01*
X10000000Y-29250000D02*
X10000000Y-28250000D01*
X15700000Y-64300000D02*
X15600000Y-64300000D01*
X15700000Y-63800000D02*
X15700000Y-64300000D01*
X15700000Y-62700000D02*
X15700000Y-63200000D01*
X15500000Y-62700000D02*
X15700000Y-62700000D01*
X14400000Y-64300000D02*
X14300000Y-64300000D01*
X14300000Y-64300000D02*
X14300000Y-63800000D01*
X14300000Y-63200000D02*
X14300000Y-62700000D01*
X14300000Y-62700000D02*
X14400000Y-62700000D01*
X-2125000Y-47600000D02*
X-2125000Y-47400000D01*
X-2125000Y-42400000D02*
X-2125000Y-42600000D01*
X-6725000Y-47600000D02*
X-2125000Y-47600000D01*
X-6725000Y-47600000D02*
X-6725000Y-47400000D01*
X-6725000Y-42400000D02*
X-2125000Y-42400000D01*
X-6725000Y-42400000D02*
X-6725000Y-42600000D01*
D13*
X-425000Y-46905000D02*
G75*
G03*
X-425000Y-46905000I-100000J0D01*
G01*
D11*
X-17000000Y-80000000D02*
G75*
G03*
X-17000000Y-80000000I-2000000J0D01*
G01*
X-15000000Y-80000000D02*
G75*
G03*
X-15000000Y-80000000I-4000000J0D01*
G01*
M02*
