G04 #@! TF.GenerationSoftware,KiCad,Pcbnew,7.0.6*
G04 #@! TF.CreationDate,2023-09-14T19:31:32+09:00*
G04 #@! TF.ProjectId,SmaCon,536d6143-6f6e-42e6-9b69-6361645f7063,V2.0*
G04 #@! TF.SameCoordinates,Original*
G04 #@! TF.FileFunction,Soldermask,Bot*
G04 #@! TF.FilePolarity,Negative*
%FSLAX46Y46*%
G04 Gerber Fmt 4.6, Leading zero omitted, Abs format (unit mm)*
G04 Created by KiCad (PCBNEW 7.0.6) date 2023-09-14 19:31:32*
%MOMM*%
%LPD*%
G01*
G04 APERTURE LIST*
%ADD10R,1.800000X2.200000*%
%ADD11R,0.203200X1.300000*%
%ADD12O,1.000000X1.800000*%
%ADD13C,0.650000*%
%ADD14O,1.000000X2.100000*%
%ADD15C,1.400000*%
%ADD16O,18.000000X1.000000*%
%ADD17O,11.000000X1.800000*%
%ADD18O,1.000000X1.600000*%
%ADD19C,1.100000*%
%ADD20R,1.700000X1.700000*%
%ADD21O,1.700000X1.700000*%
%ADD22C,1.200000*%
%ADD23R,1.000000X1.000000*%
%ADD24O,1.000000X1.000000*%
%ADD25C,1.500000*%
%ADD26C,1.700000*%
G04 APERTURE END LIST*
D10*
X-13850000Y-42250000D03*
X-20150000Y-42250000D03*
D11*
X-18250000Y-39000000D03*
X-17750000Y-39000000D03*
X-17250000Y-39000000D03*
X-16750000Y-39000000D03*
X-16250000Y-39000000D03*
X-15750000Y-39000000D03*
D10*
X6150000Y-23000000D03*
X-6150000Y-23000000D03*
D11*
X-4250000Y-19750000D03*
X-3750000Y-19750000D03*
X-3250000Y-19750000D03*
X-2750000Y-19750000D03*
X-2250000Y-19750000D03*
X-1750000Y-19750000D03*
X-1250000Y-19750000D03*
X-750000Y-19750000D03*
X-250000Y-19750000D03*
X250000Y-19750000D03*
X750000Y-19750000D03*
X1250000Y-19750000D03*
X1750000Y-19750000D03*
X2250000Y-19750000D03*
X2750000Y-19750000D03*
X3250000Y-19750000D03*
X3750000Y-19750000D03*
X4250000Y-19750000D03*
D12*
X-4320000Y-97325000D03*
D13*
X-2890000Y-93645000D03*
X2890000Y-93645000D03*
D14*
X4320000Y-93145000D03*
D12*
X4320000Y-97325000D03*
D14*
X-4320000Y-93145000D03*
D15*
X13250000Y-76700000D03*
X13250000Y-83300000D03*
X8750000Y-76700000D03*
X8750000Y-83300000D03*
D16*
X0Y-68500000D03*
D15*
X22750000Y-83300000D03*
X22750000Y-76700000D03*
X27250000Y-83300000D03*
X27250000Y-76700000D03*
D17*
X-17000000Y-68100000D03*
D15*
X14700000Y-84750000D03*
X21300000Y-84750000D03*
X14700000Y-89250000D03*
X21300000Y-89250000D03*
D18*
X-1000000Y-71500000D03*
X1000000Y-71500000D03*
D19*
X-17500000Y-5800000D03*
X-12500000Y-5800000D03*
D20*
X13190000Y-12155000D03*
D21*
X15730000Y-12155000D03*
X18270000Y-12155000D03*
X20810000Y-12155000D03*
D22*
X5900000Y-34000000D03*
X50000Y-2425000D03*
X50000Y-9425000D03*
D15*
X21300000Y-75250000D03*
X14700000Y-75250000D03*
X21300000Y-70750000D03*
X14700000Y-70750000D03*
D23*
X-5130000Y-38900000D03*
D24*
X-6400000Y-38900000D03*
X-7670000Y-38900000D03*
X-8940000Y-38900000D03*
X-10210000Y-38900000D03*
D25*
X-25000000Y-74000000D03*
X-13000000Y-86000000D03*
D26*
X-17000000Y-71400000D03*
X-19000000Y-71400000D03*
X-21000000Y-71400000D03*
X-10400000Y-82000000D03*
X-10400000Y-80000000D03*
X-10400000Y-78000000D03*
M02*
