M48
; DRILL file {KiCad 7.0.6} date Sat Aug  5 21:37:13 2023
; FORMAT={-:-/ absolute / metric / decimal}
; #@! TF.CreationDate,2023-08-05T21:37:13+09:00
; #@! TF.GenerationSoftware,Kicad,Pcbnew,7.0.6
; #@! TF.FileFunction,MixedPlating,1,2
FMAT,2
METRIC
; #@! TA.AperFunction,Plated,PTH,ViaDrill
T1C0.305
; #@! TA.AperFunction,Plated,PTH,ComponentDrill
T2C0.500
; #@! TA.AperFunction,Plated,PTH,ComponentDrill
T3C0.600
; #@! TA.AperFunction,Plated,PTH,ComponentDrill
T4C0.700
; #@! TA.AperFunction,Plated,PTH,ComponentDrill
T5C0.800
; #@! TA.AperFunction,Plated,PTH,ComponentDrill
T6C1.000
; #@! TA.AperFunction,NonPlated,NPTH,ComponentDrill
T7C0.650
; #@! TA.AperFunction,NonPlated,NPTH,ComponentDrill
T8C1.000
; #@! TA.AperFunction,NonPlated,NPTH,ComponentDrill
T9C1.100
; #@! TA.AperFunction,NonPlated,NPTH,ComponentDrill
T10C1.200
; #@! TA.AperFunction,NonPlated,NPTH,ComponentDrill
T11C1.500
; #@! TA.AperFunction,NonPlated,NPTH,ComponentDrill
T12C1.800
%
G90
G05
T1
X-25.0Y-5.0
X-25.0Y-10.0
X-25.0Y-15.0
X-25.0Y-20.0
X-25.0Y-25.0
X-25.0Y-30.0
X-25.0Y-35.0
X-25.0Y-40.0
X-25.0Y-45.0
X-25.0Y-50.0
X-25.0Y-55.0
X-25.0Y-60.0
X-25.0Y-65.0
X-25.0Y-70.0
X-25.0Y-80.0
X-25.0Y-85.0
X-25.0Y-90.0
X-25.0Y-95.0
X-23.1Y-36.25
X-20.0Y-15.0
X-20.0Y-20.0
X-20.0Y-25.0
X-20.0Y-65.0
X-20.0Y-75.0
X-20.0Y-80.0
X-20.0Y-85.0
X-20.0Y-90.0
X-20.0Y-95.0
X-19.65Y-36.25
X-18.35Y-40.15
X-16.85Y-34.85
X-16.7Y-51.15
X-16.0Y-29.2
X-15.0Y-5.0
X-15.0Y-15.0
X-15.0Y-20.0
X-15.0Y-25.0
X-15.0Y-75.0
X-15.0Y-80.0
X-15.0Y-85.0
X-15.0Y-90.0
X-15.0Y-95.0
X-11.303Y-36.142
X-10.0Y-5.0
X-10.0Y-10.0
X-10.0Y-15.0
X-10.0Y-20.0
X-10.0Y-25.0
X-10.0Y-50.0
X-10.0Y-57.5
X-10.0Y-65.0
X-10.0Y-75.0
X-10.0Y-85.0
X-10.0Y-90.0
X-10.0Y-95.0
X-6.75Y-36.7
X-5.5Y-37.341
X-5.0Y-5.0
X-5.0Y-10.0
X-5.0Y-65.0
X-5.0Y-70.0
X-5.0Y-75.0
X-5.0Y-80.0
X-5.0Y-85.0
X-5.0Y-90.0
X-4.6Y-29.75
X-4.0Y-16.2
X-4.0Y-26.15
X-2.4Y-91.0
X-2.338Y-34.515
X-1.85Y-16.05
X-1.692Y-21.492
X-1.656Y-23.894
X-1.55Y-25.35
X-1.325Y-28.675
X-1.325Y-30.0
X-1.325Y-31.325
X-0.25Y-14.0
X-0.25Y-24.55
X-0.25Y-25.4
X-0.05Y-43.3
X0.0Y-5.0
X0.0Y-40.0
X0.0Y-50.0
X0.0Y-55.0
X0.0Y-65.0
X0.0Y-75.0
X0.2Y-35.55
X0.308Y-34.55
X0.6Y-16.85
X1.85Y-34.85
X2.0Y-21.9
X2.15Y-23.2
X2.2Y-17.45
X2.4Y-91.0
X3.025Y-24.225
X3.45Y-22.15
X3.45Y-35.2
X4.1Y-40.45
X4.1Y-43.0
X4.35Y-37.25
X4.65Y-24.3
X5.0Y-5.0
X5.0Y-10.0
X5.0Y-15.0
X5.0Y-65.0
X5.0Y-70.0
X5.0Y-80.0
X5.0Y-85.0
X5.0Y-90.0
X6.05Y-46.35
X6.45Y-45.3
X6.95Y-40.8
X7.1Y-28.05
X7.8Y-43.95
X8.45Y-29.9
X10.0Y-5.0
X10.0Y-10.0
X10.0Y-15.0
X10.0Y-25.0
X10.0Y-37.5
X10.0Y-90.0
X10.0Y-95.0
X10.05Y-29.9
X11.5Y-50.5
X11.5Y-52.5
X12.5Y-50.5
X12.5Y-52.5
X15.0Y-5.0
X15.0Y-10.0
X15.0Y-20.0
X15.0Y-25.0
X15.0Y-30.0
X15.0Y-50.0
X15.0Y-60.0
X15.0Y-80.0
X15.0Y-95.0
X20.0Y-5.0
X20.0Y-10.0
X20.0Y-15.0
X20.0Y-20.0
X20.0Y-25.0
X20.0Y-30.0
X20.0Y-35.0
X20.0Y-50.0
X20.0Y-60.0
X20.0Y-65.0
X20.0Y-80.0
X20.0Y-95.0
X23.0Y-73.0
X23.6Y-72.4
X24.2Y-71.8
X24.8Y-71.2
X25.0Y-5.0
X25.0Y-10.0
X25.0Y-15.0
X25.0Y-20.0
X25.0Y-25.0
X25.0Y-30.0
X25.0Y-35.0
X25.0Y-40.0
X25.0Y-80.0
X25.0Y-85.0
X25.0Y-90.0
X25.0Y-95.0
X25.4Y-70.6
T2
X-1.0Y-71.0
X1.0Y-71.0
T4
X-9.28Y-38.9
X-8.01Y-38.9
X-6.74Y-38.9
X-5.47Y-38.9
X-4.2Y-38.9
T5
X6.9Y-34.0
X8.75Y-76.7
X8.75Y-83.3
X13.25Y-76.7
X13.25Y-83.3
X14.7Y-70.75
X14.7Y-75.25
X14.7Y-84.75
X14.7Y-89.25
X21.3Y-70.75
X21.3Y-75.25
X21.3Y-84.75
X21.3Y-89.25
X22.75Y-76.7
X22.75Y-83.3
X27.25Y-76.7
X27.25Y-83.3
T6
X-21.0Y-71.4
X-19.0Y-71.4
X-17.0Y-71.4
X-10.4Y-78.0
X-10.4Y-80.0
X-10.4Y-82.0
X13.19Y-12.155
X15.73Y-12.155
X18.27Y-12.155
X20.81Y-12.155
T7
X-2.89Y-93.645
X2.89Y-93.645
T9
X-2.5Y-3.8
X2.5Y-3.8
T10
X-16.5Y-2.4
X-16.5Y-9.4
T11
X-25.0Y-74.0
X-13.0Y-86.0
T3
G00X-4.32Y-92.595
M15
G01X-4.32Y-93.695
M16
G05
G00X-4.32Y-96.925
M15
G01X-4.32Y-97.725
M16
G05
G00X4.32Y-92.595
M15
G01X4.32Y-93.695
M16
G05
G00X4.32Y-96.925
M15
G01X4.32Y-97.725
M16
G05
T8
G00X-8.5Y-68.5
M15
G01X8.5Y-68.5
M16
G05
T12
G00X-21.6Y-68.1
M15
G01X-12.4Y-68.1
M16
G05
T0
M30
